{
.appVersion = "1053";
customParameters = (
{
name = glyphOrder;
value = (
A,
AE,
B,
C,
D,
E,
F,
G,
H,
I,
IJ,
J,
K,
L,
M,
N,
Eng,
O,
Ohorn,
OE,
P,
Thorn,
Q,
R,
S,
Germandbls,
Schwa,
T,
U,
Uhorn,
V,
W,
X,
Y,
Z,
A.ss01,
E.ss01,
F.ss01,
G.ss01,
I.ss01,
IJ.ss01,
J.ss01,
M.ss01,
N.ss01,
Eng.ss01,
Q.ss01,
Schwa.ss01,
T.ss01,
U.ss01,
W.ss01,
Y.ss01,
Z.ss01,
a,
ae,
b,
c,
d,
e,
f,
g,
h,
i,
idotless,
ij,
j,
jdotless,
k,
kgreenlandic,
l,
m,
n,
eng,
o,
oe,
ohorn,
p,
thorn,
q,
r,
s,
germandbls,
t,
u,
uhorn,
v,
w,
x,
y,
z,
f.orig,
jdotless.orig,
a.ss01,
ae.ss01,
e.ss01,
f.ss01,
l.ss01,
oe.ss01,
t.ss01,
w.ss01,
y.ss01,
z.ss01,
a.sc,
ae.sc,
b.sc,
c.sc,
d.sc,
e.sc,
f.sc,
g.sc,
h.sc,
i.sc,
ij.sc,
j.sc,
k.sc,
l.sc,
m.sc,
n.sc,
eng.sc,
o.sc,
ohorn.sc,
oe.sc,
p.sc,
thorn.sc,
q.sc,
r.sc,
s.sc,
germandbls.sc,
schwa.sc,
t.sc,
u.sc,
uhorn.sc,
v.sc,
w.sc,
x.sc,
y.sc,
z.sc,
a.sc.ss01,
e.sc.ss01,
f.sc.ss01,
g.sc.ss01,
i.sc.ss01,
ij.sc.ss01,
j.sc.ss01,
m.sc.ss01,
n.sc.ss01,
eng.sc.ss01,
q.sc.ss01,
schwa.sc.ss01,
t.sc.ss01,
u.sc.ss01,
w.sc.ss01,
y.sc.ss01,
z.sc.ss01
);
}
);
date = "2017-08-14 19:06:31 +0000";
disablesNiceNames = 1;
familyName = Mont;
fontMaster = (
{
ascender = 742;
capHeight = 700;
descender = -194;
id = "7C7516DB-6554-481F-A885-45E791722A73";
xHeight = 517;
}
);
glyphs = (
{
glyphname = A;
lastChange = "2017-08-14 19:06:31 +0000";
layers = (
{
anchors = (
{
name = bottom;
position = "{279.346, 0}";
},
{
name = ogonek;
position = "{551.91, 0}";
},
{
name = top;
position = "{279.346, 559.3}";
},
{
name = topleft;
position = "{86.021, 559.324}";
}
);
layerId = "7C7516DB-6554-481F-A885-45E791722A73";
paths = (
{
closed = 1;
nodes = (
"29.252 0 LINE",
"284.085 544.215 LINE",
"274.536 544.215 LINE",
"529.369 0 LINE",
"551.91 0 LINE",
"289.323 559.3 LINE",
"269.37 559.3 LINE",
"6.783 0 LINE"
);
},
{
closed = 1;
nodes = (
"470.456 147.376 LINE",
"461.476 166.176 LINE",
"95.748 166.176 LINE",
"86.768 147.376 LINE"
);
}
);
width = 558.69217;
}
);
unicode = 0041;
},
{
glyphname = AE;
lastChange = "2017-08-14 19:06:31 +0000";
layers = (
{
anchors = (
{
name = bottom;
position = "{390.794, 0}";
},
{
name = top;
position = "{390.794, 559.3}";
}
);
layerId = "7C7516DB-6554-481F-A885-45E791722A73";
paths = (
{
closed = 1;
nodes = (
"29.252 0 LINE",
"378.871 545.661 LINE",
"365.267 540.308 LINE",
"386.215 540.308 LINE",
"386.215 559.3 LINE",
"365.435 559.3 LINE",
"6.783 0 LINE"
);
},
{
closed = 1;
nodes = (
"386.215 147.4 LINE",
"386.215 166.2 LINE",
"124.952 166.2 LINE",
"117.04 147.4 LINE"
);
},
{
closed = 1;
nodes = (
"759.876 0 LINE",
"759.876 18.992 LINE",
"400.771 18.992 LINE",
"400.771 274.632 LINE",
"711.443 274.632 LINE",
"711.443 293.433 LINE",
"400.771 293.433 LINE",
"400.771 540.308 LINE",
"747.776 540.308 LINE",
"747.776 559.3 LINE",
"380.817 559.3 LINE",
"380.817 0 LINE"
);
}
);
width = 815.02059;
}
);
unicode = 00C6;
},
{
glyphname = B;
lastChange = "2017-08-14 19:06:31 +0000";
layers = (
{
anchors = (
{
name = bottom;
position = "{305.082, 0}";
},
{
name = top;
position = "{305.082, 559.3}";
}
);
layerId = "7C7516DB-6554-481F-A885-45E791722A73";
paths = (
{
closed = 1;
nodes = (
"348.244 0 LINE",
"486.183 0 OFFCURVE",
"553.686 52.079 OFFCURVE",
"553.686 146.457 CURVE SMOOTH",
"553.686 240.835 OFFCURVE",
"487.766 290.612 OFFCURVE",
"357.481 290.612 CURVE",
"343.675 279.243 LINE",
"449.432 279.243 OFFCURVE",
"523.033 324.514 OFFCURVE",
"523.033 417.733 CURVE SMOOTH",
"523.033 510.953 OFFCURVE",
"449.432 559.3 OFFCURVE",
"332.064 559.3 CURVE SMOOTH",
"106.244 559.3 LINE",
"106.244 0 LINE"
);
},
{
closed = 1;
nodes = (
"126.198 274.752 LINE",
"351.053 274.752 LINE SMOOTH",
"469.867 274.752 OFFCURVE",
"533.626 235.545 OFFCURVE",
"533.626 147.104 CURVE SMOOTH",
"533.626 58.663 OFFCURVE",
"469.867 18.681 OFFCURVE",
"351.053 18.681 CURVE SMOOTH",
"126.198 18.681 LINE"
);
},
{
closed = 1;
nodes = (
"126.198 540.619 LINE",
"334.659 540.619 LINE SMOOTH",
"440.832 540.619 OFFCURVE",
"502.973 498.336 OFFCURVE",
"502.973 416.918 CURVE SMOOTH",
"502.973 335.5 OFFCURVE",
"440.832 293.217 OFFCURVE",
"334.659 293.217 CURVE SMOOTH",
"126.198 293.217 LINE"
);
}
);
width = 605.57696;
}
);
unicode = 0042;
},
{
glyphname = C;
lastChange = "2017-08-14 19:06:31 +0000";
layers = (
{
anchors = (
{
name = bottom;
position = "{329.787, 0}";
},
{
name = top;
position = "{330.25, 559.324}";
}
);
layerId = "7C7516DB-6554-481F-A885-45E791722A73";
paths = (
{
closed = 1;
nodes = (
"532.074 70.4 CURVE",
"519.928 84.438 LINE",
"468.561 35.915 OFFCURVE",
"406.767 16.595 OFFCURVE",
"338.393 16.595 CURVE SMOOTH",
"183.947 16.595 OFFCURVE",
"67.257 130.605 OFFCURVE",
"67.257 279.65 CURVE SMOOTH",
"67.257 428.695 OFFCURVE",
"183.947 542.705 OFFCURVE",
"338.393 542.705 CURVE SMOOTH",
"406.767 542.705 OFFCURVE",
"468.561 524.16 OFFCURVE",
"519.928 475.637 CURVE",
"532.074 489.675 LINE",
"483.374 538.334 OFFCURVE",
"413.409 562.009 OFFCURVE",
"338.18 562.009 CURVE SMOOTH",
"171.979 562.009 OFFCURVE",
"47.197 441.36 OFFCURVE",
"47.197 279.65 CURVE SMOOTH",
"47.197 117.94 OFFCURVE",
"171.979 -2.709 OFFCURVE",
"338.18 -2.709 CURVE SMOOTH",
"413.409 -2.709 OFFCURVE",
"483.374 21.741 OFFCURVE"
);
}
);
width = 575.78634;
}
);
unicode = 0043;
},
{
glyphname = D;
lastChange = "2017-08-14 19:06:31 +0000";
layers = (
{
anchors = (
{
name = bottom;
position = "{319.741, 0}";
},
{
name = center;
position = "{161.907, 284.42}";
},
{
name = top;
position = "{315.749, 558.525}";
}
);
layerId = "7C7516DB-6554-481F-A885-45E791722A73";
paths = (
{
closed = 1;
nodes = (
"322.053 0 LINE",
"501.074 0 OFFCURVE",
"621.037 117.892 OFFCURVE",
"621.037 279.65 CURVE SMOOTH",
"621.037 441.408 OFFCURVE",
"501.074 559.3 OFFCURVE",
"322.053 559.3 CURVE SMOOTH",
"106.244 559.3 LINE",
"106.244 0 LINE"
);
},
{
closed = 1;
nodes = (
"126.269 540.164 LINE",
"320.293 540.164 LINE SMOOTH",
"491.372 540.164 OFFCURVE",
"600.977 430.246 OFFCURVE",
"600.977 279.65 CURVE SMOOTH",
"600.977 129.054 OFFCURVE",
"491.372 19.136 OFFCURVE",
"320.293 19.136 CURVE SMOOTH",
"126.269 19.136 LINE"
);
}
);
width = 668.23401;
}
);
unicode = 0044;
},
{
glyphname = E;
lastChange = "2017-08-14 19:06:31 +0000";
layers = (
{
anchors = (
{
name = bottom;
position = "{303.579, 0}";
},
{
name = ogonek;
position = "{485.303, 0}";
},
{
name = top;
position = "{290.128, 559.3}";
},
{
name = topleft;
position = "{32.279, 559.3}";
}
);
layerId = "7C7516DB-6554-481F-A885-45E791722A73";
paths = (
{
closed = 1;
nodes = (
"485.303 0 LINE",
"485.303 18.992 LINE",
"126.198 18.992 LINE",
"126.198 274.632 LINE",
"436.87 274.632 LINE",
"436.87 293.433 LINE",
"126.198 293.433 LINE",
"126.198 540.308 LINE",
"473.204 540.308 LINE",
"473.204 559.3 LINE",
"106.244 559.3 LINE",
"106.244 0 LINE"
);
}
);
width = 540.44761;
}
);
unicode = 0045;
},
{
glyphname = F;
lastChange = "2017-08-14 19:06:31 +0000";
layers = (
{
layerId = "7C7516DB-6554-481F-A885-45E791722A73";
paths = (
{
closed = 1;
nodes = (
"126.269 0 LINE",
"126.269 258.029 LINE",
"436.87 258.029 LINE",
"436.87 277.021 LINE",
"126.269 277.021 LINE",
"126.269 540.308 LINE",
"473.204 540.308 LINE",
"473.204 559.3 LINE",
"106.244 559.3 LINE",
"106.244 0 LINE"
);
}
);
width = 511.46599;
}
);
unicode = 0046;
},
{
glyphname = G;
lastChange = "2017-08-14 19:06:31 +0000";
layers = (
{
anchors = (
{
name = bottom;
position = "{325.36, 0}";
},
{
name = top;
position = "{325.61, 558.549}";
}
);
layerId = "7C7516DB-6554-481F-A885-45E791722A73";
paths = (
{
closed = 1;
nodes = (
"536.679 69.177 CURVE",
"524.836 84.686 LINE",
"475.558 35.579 OFFCURVE",
"411.389 16.595 OFFCURVE",
"340.82 16.595 CURVE SMOOTH",
"183.947 16.595 OFFCURVE",
"67.257 130.652 OFFCURVE",
"67.257 279.65 CURVE SMOOTH",
"67.257 428.719 OFFCURVE",
"183.947 542.705 OFFCURVE",
"340.874 542.705 CURVE SMOOTH",
"411.603 542.705 OFFCURVE",
"473.433 524.256 OFFCURVE",
"524.853 475.757 CURVE",
"537.035 489.795 LINE",
"488.299 538.382 OFFCURVE",
"418.281 562.009 OFFCURVE",
"340.66 562.009 CURVE SMOOTH",
"171.979 562.009 OFFCURVE",
"47.197 441.36 OFFCURVE",
"47.197 279.65 CURVE SMOOTH",
"47.197 117.94 OFFCURVE",
"171.979 -2.709 OFFCURVE",
"340.571 -2.709 CURVE SMOOTH",
"417.569 -2.709 OFFCURVE",
"487.694 21.285 OFFCURVE"
);
},
{
closed = 1;
nodes = (
"536.679 76.273 LINE",
"533.031 274.68 LINE",
"517.998 268.304 LINE",
"521.646 69.177 LINE"
);
}
);
width = 626.07702;
}
);
unicode = 0047;
},
{
glyphname = H;
lastChange = "2017-08-14 19:06:31 +0000";
layers = (
{
anchors = (
{
name = bottom;
position = "{329.965, 0}";
},
{
name = center;
position = "{329.965, 430.773}";
},
{
name = top;
position = "{329.965, 559.3}";
}
);
layerId = "7C7516DB-6554-481F-A885-45E791722A73";
paths = (
{
closed = 1;
nodes = (
"126.269 0 LINE",
"126.269 274.345 LINE",
"533.662 274.345 LINE",
"533.662 0 LINE",
"553.686 0 LINE",
"553.686 559.3 LINE",
"533.662 559.3 LINE",
"533.662 293.72 LINE",
"126.269 293.72 LINE",
"126.269 559.3 LINE",
"106.244 559.3 LINE",
"106.244 0 LINE"
);
}
);
width = 659.93044;
}
);
unicode = 0048;
},
{
glyphname = I;
lastChange = "2017-08-14 19:06:31 +0000";
layers = (
{
anchors = (
{
name = bottom;
position = "{116.257, 0}";
},
{
name = ogonek;
position = "{126.269, 0}";
},
{
name = top;
position = "{116.257, 559.3}";
},
{
name = topleft;
position = "{32.279, 558.525}";
}
);
layerId = "7C7516DB-6554-481F-A885-45E791722A73";
paths = (
{
closed = 1;
nodes = (
"126.269 0 LINE",
"126.269 559.3 LINE",
"106.244 559.3 LINE",
"106.244 0 LINE"
);
}
);
width = 232.51308;
}
);
unicode = 0049;
},
{
glyphname = IJ;
lastChange = "2017-08-14 19:06:31 +0000";
layers = (
{
anchors = (
{
name = top;
position = "{135.139, 559.3}";
}
);
layerId = "7C7516DB-6554-481F-A885-45E791722A73";
paths = (
{
closed = 1;
nodes = (
"476.503 235.018 CURVE SMOOTH",
"476.503 559.3 LINE",
"456.478 559.3 LINE",
"456.478 235.481 LINE SMOOTH",
"456.478 88.226 OFFCURVE",
"383.803 16.667 OFFCURVE",
"265.156 16.667 CURVE SMOOTH",
"204.766 16.667 OFFCURVE",
"149.629 35.02 OFFCURVE",
"106.521 66.253 CURVE",
"95.496 49.85 LINE",
"139.52 19.152 OFFCURVE",
"199.129 -2.565 OFFCURVE",
"264.561 -2.565 CURVE SMOOTH",
"392.517 -2.565 OFFCURVE",
"476.503 76.289 OFFCURVE"
);
},
{
closed = 1;
nodes = (
"121.415 232.813 LINE",
"121.415 559.3 LINE",
"101.39 559.3 LINE",
"101.39 232.813 LINE"
);
}
);
width = 577.89298;
}
);
unicode = 0132;
},
{
glyphname = J;
lastChange = "2017-08-14 19:06:31 +0000";
layers = (
{
anchors = (
{
name = top;
position = "{170.487, 559.3}";
}
);
layerId = "7C7516DB-6554-481F-A885-45E791722A73";
paths = (
{
closed = 1;
nodes = (
"286.229 156.828 CURVE SMOOTH",
"286.229 559.3 LINE",
"54.727 559.3 LINE",
"54.727 540.308 LINE",
"266.258 540.308 LINE",
"266.258 158.138 LINE SMOOTH",
"266.258 62.218 OFFCURVE",
"227.009 16.595 OFFCURVE",
"145.434 16.595 CURVE SMOOTH",
"92.52 16.595 OFFCURVE",
"46.799 42.627 OFFCURVE",
"16.075 89.408 CURVE",
"2.738 76.512 LINE",
"33.044 26.83 OFFCURVE",
"86.883 -2.709 OFFCURVE",
"144.999 -2.709 CURVE SMOOTH",
"238.542 -2.709 OFFCURVE",
"286.229 50.697 OFFCURVE"
);
}
);
width = 387.61941;
}
);
unicode = 004A;
},
{
glyphname = K;
lastChange = "2017-08-14 19:06:31 +0000";
layers = (
{
anchors = (
{
name = bottom;
position = "{299.579, 0}";
},
{
name = top;
position = "{299.579, 559.3}";
}
);
layerId = "7C7516DB-6554-481F-A885-45E791722A73";
paths = (
{
closed = 1;
nodes = (
"265.726 289.414 LINE",
"277.552 301.151 LINE",
"531.257 559.3 LINE",
"505.321 559.3 LINE",
"122.428 171.785 LINE",
"122.659 144.651 LINE"
);
},
{
closed = 1;
nodes = (
"126.198 0 LINE",
"126.198 559.3 LINE",
"106.244 559.3 LINE",
"106.244 0 LINE"
);
},
{
closed = 1;
nodes = (
"549.704 0 LINE",
"270.937 312.665 LINE",
"256.346 298.706 LINE",
"523.483 0 LINE"
);
}
);
width = 561.91847;
}
);
unicode = 004B;
},
{
glyphname = L;
lastChange = "2017-08-14 19:06:31 +0000";
layers = (
{
anchors = (
{
name = bottom;
position = "{292.555, 0}";
},
{
name = center;
position = "{116.257, 288.599}";
},
{
name = dot;
position = "{351.187, 300.576}";
},
{
name = top;
position = "{116.257, 559.3}";
},
{
name = topright;
position = "{360.405, 559.3}";
}
);
layerId = "7C7516DB-6554-481F-A885-45E791722A73";
paths = (
{
closed = 1;
nodes = (
"461.824 0 LINE",
"461.824 19.112 LINE",
"126.269 19.112 LINE",
"126.269 559.3 LINE",
"106.244 559.3 LINE",
"106.244 0 LINE"
);
}
);
width = 469.87853;
}
);
unicode = 004C;
},
{
glyphname = M;
lastChange = "2017-08-14 19:06:31 +0000";
layers = (
{
anchors = (
{
name = bottom;
position = "{386.666, 0}";
},
{
name = top;
position = "{386.666, 559.3}";
}
);
layerId = "7C7516DB-6554-481F-A885-45E791722A73";
paths = (
{
closed = 1;
nodes = (
"125.895 0 LINE",
"125.895 529.058 LINE",
"118.027 529.058 LINE",
"380.994 78.238 LINE",
"392.339 78.238 LINE",
"654.373 529.058 LINE",
"647.438 529.058 LINE",
"647.473 0 LINE",
"667.124 0 LINE",
"667.088 559.3 LINE",
"650.185 559.3 LINE",
"382.665 97.278 LINE",
"391.601 97.278 LINE",
"123.148 559.3 LINE",
"106.244 559.3 LINE",
"106.244 0 LINE"
);
}
);
width = 773.36842;
}
);
unicode = 004D;
},
{
glyphname = N;
lastChange = "2017-08-14 19:06:31 +0000";
layers = (
{
anchors = (
{
name = bottom;
position = "{329.965, 0}";
},
{
name = top;
position = "{329.965, 559.3}";
}
);
layerId = "7C7516DB-6554-481F-A885-45E791722A73";
paths = (
{
closed = 1;
nodes = (
"126.162 0 LINE",
"126.162 534.907 LINE",
"115.857 534.907 LINE",
"536.783 0 LINE",
"553.686 0 LINE",
"553.686 559.3 LINE",
"533.768 559.3 LINE",
"533.768 24.393 LINE",
"544.074 24.393 LINE",
"123.148 559.3 LINE",
"106.244 559.3 LINE",
"106.244 0 LINE"
);
}
);
width = 659.93044;
}
);
unicode = 004E;
},
{
glyphname = Eng;
lastChange = "2017-08-14 19:06:31 +0000";
layers = (
{
layerId = "7C7516DB-6554-481F-A885-45E791722A73";
paths = (
{
closed = 1;
nodes = (
"126.162 0 LINE",
"126.162 534.907 LINE",
"115.857 534.907 LINE",
"536.783 0 LINE",
"544.074 24.393 LINE",
"123.148 559.3 LINE",
"106.244 559.3 LINE",
"106.244 0 LINE"
);
},
{
closed = 1;
nodes = (
"553.686 1.966 CURVE SMOOTH",
"553.686 559.3 LINE",
"533.768 559.3 LINE",
"533.768 3.276 LINE SMOOTH",
"533.768 -92.644 OFFCURVE",
"494.519 -138.267 OFFCURVE",
"412.944 -138.267 CURVE SMOOTH",
"360.298 -138.267 OFFCURVE",
"314.808 -112.523 OFFCURVE",
"284.333 -66.413 CURVE",
"271.334 -79.62 LINE",
"301.569 -128.535 OFFCURVE",
"354.981 -157.571 OFFCURVE",
"412.509 -157.571 CURVE SMOOTH",
"506.052 -157.571 OFFCURVE",
"553.686 -104.166 OFFCURVE"
);
}
);
width = 659.93044;
}
);
unicode = 014A;
},
{
glyphname = O;
lastChange = "2017-08-14 19:06:31 +0000";
layers = (
{
anchors = (
{
name = bottom;
position = "{338.269, 0}";
},
{
name = center;
position = "{338.269, 279.65}";
},
{
name = ogonek;
position = "{380.809, 0}";
},
{
name = top;
position = "{338.269, 559.3}";
},
{
name = topleft;
position = "{47.286, 559.3}";
},
{
name = topright;
position = "{538.233, 559.3}";
}
);
layerId = "7C7516DB-6554-481F-A885-45E791722A73";
paths = (
{
closed = 1;
nodes = (
"629.341 279.65 CURVE SMOOTH",
"629.341 441.288 OFFCURVE",
"504.523 562.009 OFFCURVE",
"338.269 562.009 CURVE SMOOTH",
"172.014 562.009 OFFCURVE",
"47.197 441.288 OFFCURVE",
"47.197 279.65 CURVE SMOOTH",
"47.197 118.012 OFFCURVE",
"172.014 -2.709 OFFCURVE",
"338.269 -2.709 CURVE SMOOTH",
"504.523 -2.709 OFFCURVE",
"629.341 118.012 OFFCURVE"
);
},
{
closed = 1;
nodes = (
"67.257 279.65 CURVE SMOOTH",
"67.257 430.293 OFFCURVE",
"184.018 542.705 OFFCURVE",
"338.269 542.705 CURVE SMOOTH",
"492.519 542.705 OFFCURVE",
"609.281 430.293 OFFCURVE",
"609.281 279.65 CURVE SMOOTH",
"609.281 129.007 OFFCURVE",
"492.519 16.595 OFFCURVE",
"338.269 16.595 CURVE SMOOTH",
"184.018 16.595 OFFCURVE",
"67.257 129.007 OFFCURVE"
);
}
);
width = 676.53759;
}
);
unicode = 004F;
},
{
glyphname = Ohorn;
lastChange = "2017-08-14 19:06:31 +0000";
layers = (
{
anchors = (
{
name = bottom;
position = "{338.269, 0}";
},
{
name = top;
position = "{338.269, 559.3}";
}
);
layerId = "7C7516DB-6554-481F-A885-45E791722A73";
paths = (
{
closed = 1;
nodes = (
"629.341 279.65 CURVE SMOOTH",
"629.341 399.508 OFFCURVE",
"550.068 501.013 OFFCURVE",
"445.753 542.002 CURVE",
"430.839 538.622 LINE",
"454.763 534.579 OFFCURVE",
"488.199 532.014 OFFCURVE",
"506.762 532.014 CURVE SMOOTH",
"578.124 532.014 OFFCURVE",
"613.712 560.019 OFFCURVE",
"613.712 615.574 CURVE SMOOTH",
"613.712 636.803 OFFCURVE",
"606.342 659.391 OFFCURVE",
"595.647 675.586 CURVE",
"578.772 668.308 LINE",
"587.688 653.246 OFFCURVE",
"594.952 635.692 OFFCURVE",
"594.952 615.014 CURVE SMOOTH",
"594.952 571.501 OFFCURVE",
"565.988 550.072 OFFCURVE",
"506.727 550.072 CURVE SMOOTH",
"453.778 550.072 OFFCURVE",
"407.754 562.009 OFFCURVE",
"338.447 562.009 CURVE SMOOTH",
"172.014 562.009 OFFCURVE",
"47.197 441.288 OFFCURVE",
"47.197 279.65 CURVE SMOOTH",
"47.197 118.012 OFFCURVE",
"172.014 -2.709 OFFCURVE",
"338.269 -2.709 CURVE SMOOTH",
"504.523 -2.709 OFFCURVE",
"629.341 118.012 OFFCURVE"
);
},
{
closed = 1;
nodes = (
"67.257 279.65 CURVE SMOOTH",
"67.257 428.743 OFFCURVE",
"184.018 542.705 OFFCURVE",
"338.269 542.705 CURVE SMOOTH",
"492.519 542.705 OFFCURVE",
"609.281 428.743 OFFCURVE",
"609.281 279.65 CURVE SMOOTH",
"609.281 130.557 OFFCURVE",
"492.519 16.595 OFFCURVE",
"338.269 16.595 CURVE SMOOTH",
"184.018 16.595 OFFCURVE",
"67.257 130.557 OFFCURVE"
);
}
);
width = 676.53759;
}
);
unicode = 01A0;
},
{
glyphname = OE;
lastChange = "2017-08-14 19:06:31 +0000";
layers = (
{
anchors = (
{
name = bottom;
position = "{475.986, 0}";
},
{
name = top;
position = "{475.986, 559.3}";
}
);
layerId = "7C7516DB-6554-481F-A885-45E791722A73";
paths = (
{
closed = 1;
nodes = (
"471.825 0 LINE",
"471.825 19.136 LINE",
"346.359 19.136 LINE SMOOTH",
"177.653 19.136 OFFCURVE",
"67.257 128.279 OFFCURVE",
"67.257 278.875 CURVE SMOOTH",
"67.257 429.47 OFFCURVE",
"177.653 540.164 OFFCURVE",
"346.359 540.164 CURVE SMOOTH",
"471.825 540.164 LINE",
"471.825 559.3 LINE",
"346.181 559.3 LINE SMOOTH",
"167.952 559.3 OFFCURVE",
"47.197 440.633 OFFCURVE",
"47.197 278.875 CURVE SMOOTH",
"47.197 117.117 OFFCURVE",
"167.952 0 OFFCURVE",
"346.181 0 CURVE SMOOTH"
);
},
{
closed = 1;
nodes = (
"845.068 0 LINE",
"845.068 18.992 LINE",
"485.963 18.992 LINE",
"485.963 274.632 LINE",
"796.635 274.632 LINE",
"796.635 293.433 LINE",
"485.963 293.433 LINE",
"485.963 540.308 LINE",
"832.969 540.308 LINE",
"832.969 559.3 LINE",
"466.01 559.3 LINE",
"466.01 0 LINE"
);
}
);
width = 900.21315;
}
);
unicode = 0152;
},
{
glyphname = P;
lastChange = "2017-08-14 19:06:31 +0000";
layers = (
{
layerId = "7C7516DB-6554-481F-A885-45E791722A73";
paths = (
{
closed = 1;
nodes = (
"126.269 0 LINE",
"126.269 199.526 LINE",
"117.279 190.13 LINE",
"299.757 190.13 LINE SMOOTH",
"439.315 190.13 OFFCURVE",
"523.015 258.453 OFFCURVE",
"523.015 374.715 CURVE SMOOTH",
"523.015 490.978 OFFCURVE",
"439.315 559.3 OFFCURVE",
"299.757 559.3 CURVE SMOOTH",
"106.244 559.3 LINE",
"106.244 0 LINE"
);
},
{
closed = 1;
nodes = (
"126.269 548.977 LINE",
"117.279 540.212 LINE",
"301.073 540.212 LINE SMOOTH",
"431.987 540.212 OFFCURVE",
"502.955 479.792 OFFCURVE",
"502.955 374.715 CURVE SMOOTH",
"502.955 269.639 OFFCURVE",
"431.987 209.218 OFFCURVE",
"301.073 209.218 CURVE SMOOTH",
"117.279 209.218 LINE",
"126.269 200.453 LINE"
);
}
);
width = 574.97734;
}
);
unicode = 0050;
},
{
glyphname = Thorn;
lastChange = "2017-08-14 19:06:31 +0000";
layers = (
{
layerId = "7C7516DB-6554-481F-A885-45E791722A73";
paths = (
{
closed = 1;
nodes = (
"299.757 110.246 LINE",
"439.315 110.246 OFFCURVE",
"523.015 178.569 OFFCURVE",
"523.015 294.831 CURVE SMOOTH",
"523.015 411.094 OFFCURVE",
"439.315 479.416 OFFCURVE",
"299.757 479.416 CURVE SMOOTH",
"118.294 479.416 LINE",
"118.294 460.328 LINE",
"301.073 460.328 LINE SMOOTH",
"431.987 460.328 OFFCURVE",
"502.955 399.908 OFFCURVE",
"502.955 294.831 CURVE SMOOTH",
"502.955 189.755 OFFCURVE",
"431.987 129.334 OFFCURVE",
"301.073 129.334 CURVE SMOOTH",
"118.294 129.334 LINE",
"118.294 110.246 LINE"
);
},
{
closed = 1;
nodes = (
"126.269 0 LINE",
"126.269 558.549 LINE",
"106.244 558.549 LINE",
"106.244 0 LINE"
);
}
);
width = 574.97734;
}
);
unicode = 00DE;
},
{
glyphname = Q;
lastChange = "2017-08-14 19:06:31 +0000";
layers = (
{
anchors = (
{
name = top;
position = "{338.287, 559.3}";
}
);
layerId = "7C7516DB-6554-481F-A885-45E791722A73";
paths = (
{
closed = 1;
nodes = (
"629.341 279.65 CURVE SMOOTH",
"629.341 441.288 OFFCURVE",
"504.523 562.009 OFFCURVE",
"338.269 562.009 CURVE SMOOTH",
"172.014 562.009 OFFCURVE",
"47.197 441.288 OFFCURVE",
"47.197 279.65 CURVE SMOOTH",
"47.197 118.012 OFFCURVE",
"172.014 -2.709 OFFCURVE",
"338.269 -2.709 CURVE SMOOTH",
"504.523 -2.709 OFFCURVE",
"629.341 118.012 OFFCURVE"
);
},
{
closed = 1;
nodes = (
"653.753 -39.311 CURVE",
"640.861 -25.584 LINE",
"608.696 -63.481 OFFCURVE",
"570.905 -81.69 OFFCURVE",
"524.41 -81.69 CURVE SMOOTH",
"473.817 -81.69 OFFCURVE",
"421.188 -51.783 OFFCURVE",
"366.55 8.118 CURVE",
"341.636 2.804 LINE",
"410.589 -69.066 OFFCURVE",
"465.796 -100.346 OFFCURVE",
"524.321 -100.346 CURVE SMOOTH",
"575.662 -100.346 OFFCURVE",
"620.442 -79.453 OFFCURVE"
);
},
{
closed = 1;
nodes = (
"67.257 279.65 CURVE SMOOTH",
"67.257 428.743 OFFCURVE",
"184.018 542.705 OFFCURVE",
"338.269 542.705 CURVE SMOOTH",
"492.519 542.705 OFFCURVE",
"609.281 428.743 OFFCURVE",
"609.281 279.65 CURVE SMOOTH",
"609.281 130.557 OFFCURVE",
"492.519 16.595 OFFCURVE",
"338.269 16.595 CURVE SMOOTH",
"184.018 16.595 OFFCURVE",
"67.257 130.557 OFFCURVE"
);
}
);
width = 676.53759;
}
);
unicode = 0051;
},
{
glyphname = R;
lastChange = "2017-08-14 19:06:31 +0000";
layers = (
{
anchors = (
{
name = bottom;
position = "{296.325, 0}";
},
{
name = top;
position = "{296.325, 559.3}";
}
);
layerId = "7C7516DB-6554-481F-A885-45E791722A73";
paths = (
{
closed = 1;
nodes = (
"126.269 0 LINE",
"126.198 199.526 LINE",
"117.279 190.226 LINE",
"299.757 190.226 LINE SMOOTH",
"439.315 190.226 OFFCURVE",
"523.015 258.453 OFFCURVE",
"523.015 374.715 CURVE SMOOTH",
"523.015 490.978 OFFCURVE",
"439.315 559.3 OFFCURVE",
"299.757 559.3 CURVE SMOOTH",
"106.244 559.3 LINE",
"106.244 0 LINE"
);
},
{
closed = 1;
nodes = (
"531.194 0 LINE",
"383.307 202.97 LINE",
"359.078 202.97 LINE",
"506.929 0 LINE"
);
},
{
closed = 1;
nodes = (
"126.269 548.977 LINE",
"117.279 540.212 LINE",
"301.073 540.212 LINE SMOOTH",
"431.987 540.212 OFFCURVE",
"502.955 479.792 OFFCURVE",
"502.955 374.715 CURVE SMOOTH",
"502.955 269.639 OFFCURVE",
"431.987 209.218 OFFCURVE",
"301.073 209.218 CURVE SMOOTH",
"117.279 209.218 LINE",
"126.198 200.453 LINE"
);
}
);
width = 579.76015;
}
);
unicode = 0052;
},
{
glyphname = S;
lastChange = "2017-08-14 19:06:31 +0000";
layers = (
{
anchors = (
{
name = bottom;
position = "{257.458, 0}";
},
{
name = top;
position = "{257.458, 559.3}";
}
);
layerId = "7C7516DB-6554-481F-A885-45E791722A73";
paths = (
{
closed = 1;
nodes = (
"441.085 138.579 CURVE SMOOTH",
"441.085 340.845 OFFCURVE",
"82.112 234.538 OFFCURVE",
"82.112 419.459 CURVE SMOOTH",
"82.112 487.462 OFFCURVE",
"136.305 542.968 OFFCURVE",
"253.84 542.968 CURVE SMOOTH",
"304.771 542.968 OFFCURVE",
"362.895 527.06 OFFCURVE",
"408.43 494.445 CURVE",
"418.397 510.945 LINE",
"376.746 542.153 OFFCURVE",
"314.098 562.009 OFFCURVE",
"253.084 562.009 CURVE SMOOTH",
"119.465 562.009 OFFCURVE",
"62.141 494.365 OFFCURVE",
"62.141 419.946 CURVE SMOOTH",
"62.141 213.732 OFFCURVE",
"421.114 322.389 OFFCURVE",
"421.114 138.147 CURVE SMOOTH",
"421.114 70.919 OFFCURVE",
"366.885 16.332 OFFCURVE",
"245.43 16.332 CURVE SMOOTH",
"166.521 16.332 OFFCURVE",
"94.538 48.707 OFFCURVE",
"58.551 89.943 CURVE",
"46.121 75.745 LINE",
"84.553 29.763 OFFCURVE",
"163.4 -2.709 OFFCURVE",
"246.185 -2.709 CURVE SMOOTH",
"381.387 -2.709 OFFCURVE",
"441.085 63.433 OFFCURVE"
);
}
);
width = 487.20570;
}
);
unicode = 0053;
},
{
glyphname = Germandbls;
lastChange = "2017-08-14 19:06:31 +0000";
layers = (
{
layerId = "7C7516DB-6554-481F-A885-45E791722A73";
paths = (
{
closed = 1;
nodes = (
"549.384 153.863 CURVE SMOOTH",
"549.384 256.495 OFFCURVE",
"476.706 311.211 OFFCURVE",
"367.438 311.211 CURVE SMOOTH",
"345.56 311.211 OFFCURVE",
"322.979 308.814 OFFCURVE",
"303.616 302.493 CURVE",
"305.974 291.819 LINE",
"499.803 486.663 LINE",
"499.803 502.299 LINE",
"454.304 540.508 OFFCURVE",
"392.97 558.909 OFFCURVE",
"322.569 558.909 CURVE SMOOTH",
"184.513 558.909 OFFCURVE",
"101.39 474.414 OFFCURVE",
"101.39 333.047 CURVE SMOOTH",
"101.39 0 LINE",
"121.415 0 LINE",
"121.415 331.377 LINE SMOOTH",
"121.415 467.127 OFFCURVE",
"195.077 539.868 OFFCURVE",
"322.623 539.868 CURVE SMOOTH",
"389.467 539.868 OFFCURVE",
"445.759 524.687 OFFCURVE",
"487.827 488.317 CURVE",
"489.934 501.165 LINE",
"287.986 297.787 LINE",
"294.237 283.11 LINE",
"315.11 289.454 OFFCURVE",
"341.612 292.65 OFFCURVE",
"367.339 292.65 CURVE SMOOTH",
"465.583 292.65 OFFCURVE",
"529.324 245.669 OFFCURVE",
"529.324 154.223 CURVE SMOOTH",
"529.324 63.552 OFFCURVE",
"466.374 16.571 OFFCURVE",
"370.451 16.571 CURVE SMOOTH",
"330.41 16.571 OFFCURVE",
"295.783 23.738 OFFCURVE",
"265.291 38.728 CURVE",
"258.391 19.544 LINE",
"292.352 4.458 OFFCURVE",
"323.307 -2.709 OFFCURVE",
"371.163 -2.709 CURVE SMOOTH",
"477.533 -2.709 OFFCURVE",
"549.384 51.232 OFFCURVE"
);
}
);
width = 601.27470;
}
);
},
{
glyphname = Schwa;
lastChange = "2017-08-14 19:06:31 +0000";
layers = (
{
anchors = (
{
name = bottom;
position = "{330.881, 0}";
},
{
name = top;
position = "{330.881, 559.3}";
}
);
layerId = "7C7516DB-6554-481F-A885-45E791722A73";
paths = (
{
closed = 1;
nodes = (
"612.983 280.425 CURVE SMOOTH",
"612.983 441.36 OFFCURVE",
"488.201 562.009 OFFCURVE",
"321.822 562.009 CURVE SMOOTH",
"245.188 562.009 OFFCURVE",
"175.676 538.918 OFFCURVE",
"124.656 493.015 CURVE",
"135.833 477.962 LINE",
"189.609 524.16 OFFCURVE",
"251.973 542.705 OFFCURVE",
"321.786 542.705 CURVE SMOOTH",
"475.441 542.705 OFFCURVE",
"592.923 428.695 OFFCURVE",
"592.923 280.665 CURVE SMOOTH",
"592.923 277.964 LINE SMOOTH",
"592.923 130.708 OFFCURVE",
"473.388 16.164 OFFCURVE",
"330.09 16.164 CURVE SMOOTH",
"178.88 16.164 OFFCURVE",
"67.257 129.933 OFFCURVE",
"67.257 278.739 CURVE",
"59.575 270.35 LINE",
"597.324 270.35 LINE",
"597.324 288.551 LINE",
"47.197 288.551 LINE",
"47.197 279.89 LINE SMOOTH",
"47.197 117.892 OFFCURVE",
"167.054 -2.709 OFFCURVE",
"330.09 -2.709 CURVE SMOOTH",
"487.481 -2.709 OFFCURVE",
"612.983 124.868 OFFCURVE"
);
}
);
width = 660.17961;
}
);
},
{
glyphname = T;
lastChange = "2017-08-14 19:06:31 +0000";
layers = (
{
anchors = (
{
name = bottom;
position = "{222.609, 0}";
},
{
name = center;
position = "{222.609, 283.461}";
},
{
name = top;
position = "{222.609, 559.3}";
}
);
layerId = "7C7516DB-6554-481F-A885-45E791722A73";
paths = (
{
closed = 1;
nodes = (
"232.621 0 LINE",
"232.621 540.188 LINE",
"441.983 540.188 LINE",
"441.983 559.3 LINE",
"3.236 559.3 LINE",
"3.236 540.188 LINE",
"212.597 540.188 LINE",
"212.597 0 LINE"
);
}
);
width = 445.21860;
}
);
unicode = 0054;
},
{
glyphname = U;
lastChange = "2017-08-14 19:06:31 +0000";
layers = (
{
anchors = (
{
name = bottom;
position = "{321.12, 0}";
},
{
name = ogonek;
position = "{472.306, 0}";
},
{
name = top;
position = "{321.12, 559.3}";
},
{
name = topright;
position = "{543.078, 559.3}";
}
);
layerId = "7C7516DB-6554-481F-A885-45E791722A73";
paths = (
{
closed = 1;
nodes = (
"540.778 234.634 CURVE SMOOTH",
"540.778 559.3 LINE",
"520.825 559.3 LINE",
"520.825 235.577 LINE SMOOTH",
"520.825 88.082 OFFCURVE",
"448.095 16.595 OFFCURVE",
"321.12 16.595 CURVE SMOOTH",
"194.144 16.595 OFFCURVE",
"121.415 88.082 OFFCURVE",
"121.415 235.577 CURVE SMOOTH",
"121.415 559.3 LINE",
"101.39 559.3 LINE",
"101.39 234.634 LINE SMOOTH",
"101.39 76.145 OFFCURVE",
"185.127 -2.709 OFFCURVE",
"321.084 -2.709 CURVE SMOOTH",
"457.041 -2.709 OFFCURVE",
"540.778 76.145 OFFCURVE"
);
}
);
width = 642.16803;
}
);
unicode = 0055;
},
{
glyphname = V;
lastChange = "2017-08-14 19:06:31 +0000";
layers = (
{
layerId = "7C7516DB-6554-481F-A885-45E791722A73";
paths = (
{
closed = 1;
nodes = (
"282.024 0 LINE",
"536.521 559.3 LINE",
"514.194 559.3 LINE",
"266.881 15.013 LINE",
"277.481 15.013 LINE",
"30.292 559.3 LINE",
"7.574 559.3 LINE",
"262.071 0 LINE"
);
}
);
width = 544.09458;
}
);
unicode = 0056;
},
{
glyphname = W;
lastChange = "2017-08-14 19:06:31 +0000";
layers = (
{
anchors = (
{
name = bottom;
position = "{452.614, 0}";
},
{
name = top;
position = "{452.614, 559.3}";
}
);
layerId = "7C7516DB-6554-481F-A885-45E791722A73";
paths = (
{
closed = 1;
nodes = (
"256.527 0 LINE",
"454.873 537.072 LINE",
"450.498 537.072 LINE",
"648.702 0 LINE",
"669.028 0 LINE",
"870.994 559.3 LINE",
"850.338 559.3 LINE",
"653.743 15.013 LINE",
"663.844 15.013 LINE",
"462.68 559.3 LINE",
"442.887 559.3 LINE",
"241.491 15.013 LINE",
"252.473 15.013 LINE",
"56.02 559.3 LINE",
"34.235 559.3 LINE",
"236.201 0 LINE"
);
}
);
width = 905.22895;
}
);
unicode = 0057;
},
{
glyphname = X;
lastChange = "2017-08-14 19:06:31 +0000";
layers = (
{
layerId = "7C7516DB-6554-481F-A885-45E791722A73";
paths = (
{
closed = 1;
nodes = (
"43.414 0 LINE",
"255.353 278.579 LINE",
"248.666 278.555 LINE",
"460.675 0 LINE",
"485.261 0 LINE",
"261.247 294.304 LINE",
"261.247 284.172 LINE",
"469.17 559.3 LINE",
"445.66 559.3 LINE",
"249.546 299.609 LINE",
"256.304 299.633 LINE",
"60.118 559.3 LINE",
"35.622 559.3 LINE",
"245.918 280.857 LINE",
"245.936 297.212 LINE",
"19.638 0 LINE"
);
}
);
width = 504.89853;
}
);
unicode = 0058;
},
{
glyphname = Y;
lastChange = "2017-08-14 19:06:31 +0000";
layers = (
{
anchors = (
{
name = bottom;
position = "{271.905, 0}";
},
{
name = top;
position = "{271.905, 559.3}";
}
);
layerId = "7C7516DB-6554-481F-A885-45E791722A73";
paths = (
{
closed = 1;
nodes = (
"281.917 0 LINE",
"281.917 157.291 LINE",
"277.036 142.286 LINE",
"536.378 559.3 LINE",
"514.069 559.3 LINE",
"267.565 164.21 LINE",
"276.583 164.21 LINE",
"30.114 559.3 LINE",
"7.431 559.3 LINE",
"266.81 142.286 LINE",
"261.893 157.291 LINE",
"261.893 0 LINE"
);
}
);
width = 543.80981;
}
);
unicode = 0059;
},
{
glyphname = Z;
lastChange = "2017-08-14 19:06:31 +0000";
layers = (
{
anchors = (
{
name = bottom;
position = "{271.353, 0}";
},
{
name = top;
position = "{263.441, 559.3}";
}
);
layerId = "7C7516DB-6554-481F-A885-45E791722A73";
paths = (
{
closed = 1;
nodes = (
"486.735 0 LINE",
"486.735 19.112 LINE",
"61.238 19.112 LINE",
"62.545 11.721 LINE",
"478.538 544.223 LINE",
"478.538 559.324 LINE",
"44.264 559.324 LINE",
"44.264 540.212 LINE",
"457.43 540.212 LINE",
"456.122 547.603 LINE",
"40.13 15.101 LINE",
"40.13 0 LINE"
);
}
);
width = 517.80531;
}
);
unicode = 005A;
},
{
glyphname = A.ss01;
lastChange = "2017-08-14 19:06:31 +0000";
layers = (
{
anchors = (
{
name = bottom;
position = "{325.111, 0}";
},
{
name = ogonek;
position = "{548.832, 0}";
},
{
name = top;
position = "{325.111, 559.3}";
},
{
name = topleft;
position = "{72.907, 559.3}";
}
);
layerId = "7C7516DB-6554-481F-A885-45E791722A73";
paths = (
{
closed = 1;
nodes = (
"121.415 0 LINE",
"121.415 326.408 LINE SMOOTH",
"121.415 471.17 OFFCURVE",
"198.171 542.705 OFFCURVE",
"325.111 542.705 CURVE SMOOTH",
"452.051 542.705 OFFCURVE",
"528.808 471.17 OFFCURVE",
"528.808 326.408 CURVE SMOOTH",
"528.808 0 LINE",
"548.832 0 LINE",
"548.832 324.378 LINE SMOOTH",
"548.832 483.083 OFFCURVE",
"460.873 562.009 OFFCURVE",
"325.111 562.009 CURVE SMOOTH",
"189.35 562.009 OFFCURVE",
"101.39 483.083 OFFCURVE",
"101.39 324.378 CURVE SMOOTH",
"101.39 0 LINE"
);
},
{
closed = 1;
nodes = (
"537.424 182.412 LINE",
"537.424 201.404 LINE",
"115.101 201.404 LINE",
"115.101 182.412 LINE"
);
}
);
width = 650.22244;
}
);
},
{
glyphname = E.ss01;
lastChange = "2017-08-14 19:06:31 +0000";
layers = (
{
anchors = (
{
name = bottom;
position = "{272.518, 0}";
},
{
name = ogonek;
position = "{456.926, 0}";
},
{
name = top;
position = "{272.518, 559.3}";
},
{
name = topleft;
position = "{53.748, 559.3}";
}
);
layerId = "7C7516DB-6554-481F-A885-45E791722A73";
paths = (
{
closed = 1;
nodes = (
"479.072 72.405 CURVE",
"465.976 86.58 LINE",
"424.521 42.387 OFFCURVE",
"350.973 16.332 OFFCURVE",
"264.295 16.332 CURVE SMOOTH",
"134.341 16.332 OFFCURVE",
"71.951 70.336 OFFCURVE",
"71.951 148.606 CURVE SMOOTH",
"71.951 234.554 OFFCURVE",
"145.169 274.536 OFFCURVE",
"248.195 274.536 CURVE SMOOTH",
"381.094 274.536 LINE",
"381.094 293.433 LINE",
"247.688 293.433 LINE SMOOTH",
"153.454 293.433 OFFCURVE",
"96.203 337.242 OFFCURVE",
"96.203 414.593 CURVE SMOOTH",
"96.203 487.438 OFFCURVE",
"156.202 542.968 OFFCURVE",
"276.413 542.968 CURVE SMOOTH",
"338.421 542.968 OFFCURVE",
"394.891 527.204 OFFCURVE",
"442.764 497.881 CURVE",
"451.815 514.404 LINE",
"407.844 544.526 OFFCURVE",
"342.066 562.009 OFFCURVE",
"275.461 562.009 CURVE SMOOTH",
"143.753 562.009 OFFCURVE",
"76.143 495.963 OFFCURVE",
"76.143 415.728 CURVE SMOOTH",
"76.143 332.216 OFFCURVE",
"136.693 278.467 OFFCURVE",
"242.077 278.467 CURVE",
"238.823 289.789 LINE",
"132.542 289.789 OFFCURVE",
"51.891 240.595 OFFCURVE",
"51.891 147.447 CURVE SMOOTH",
"51.891 60.7 OFFCURVE",
"122.95 -2.709 OFFCURVE",
"263.344 -2.709 CURVE SMOOTH",
"357.081 -2.709 OFFCURVE",
"435.821 24.993 OFFCURVE"
);
}
);
width = 498.16765;
}
);
},
{
glyphname = F.ss01;
lastChange = "2017-08-14 19:06:31 +0000";
layers = (
{
layerId = "7C7516DB-6554-481F-A885-45E791722A73";
paths = (
{
closed = 1;
nodes = (
"121.415 0 LINE",
"121.415 380.947 LINE SMOOTH",
"121.415 482.141 OFFCURVE",
"177.724 542.705 OFFCURVE",
"301.945 542.705 CURVE SMOOTH",
"361.134 542.705 OFFCURVE",
"414.155 529.314 OFFCURVE",
"455.991 497.034 CURVE",
"467.487 513.701 LINE",
"424.646 546.9 OFFCURVE",
"366.344 562.009 OFFCURVE",
"301.589 562.009 CURVE SMOOTH",
"165.418 562.009 OFFCURVE",
"101.39 489.547 OFFCURVE",
"101.39 383.152 CURVE SMOOTH",
"101.39 0 LINE"
);
},
{
closed = 1;
nodes = (
"413.035 258.029 LINE",
"413.035 277.021 LINE",
"116.63 277.021 LINE",
"116.63 258.029 LINE"
);
}
);
width = 481.88895;
}
);
},
{
glyphname = G.ss01;
lastChange = "2017-08-14 19:06:31 +0000";
layers = (
{
anchors = (
{
name = bottom;
position = "{325.36, 0.072}";
},
{
name = top;
position = "{325.61, 559.324}";
}
);
layerId = "7C7516DB-6554-481F-A885-45E791722A73";
paths = (
{
closed = 1;
nodes = (
"531.62 81.258 CURVE",
"524.302 99.02 LINE",
"471.602 41.924 OFFCURVE",
"399.379 16.499 OFFCURVE",
"330.214 16.499 CURVE SMOOTH",
"195.815 16.499 OFFCURVE",
"67.257 113.826 OFFCURVE",
"67.257 279.362 CURVE SMOOTH",
"67.257 428.624 OFFCURVE",
"183.947 542.609 OFFCURVE",
"340.874 542.609 CURVE SMOOTH",
"411.603 542.609 OFFCURVE",
"473.433 524.16 OFFCURVE",
"524.853 475.661 CURVE",
"537.035 489.699 LINE",
"488.299 538.286 OFFCURVE",
"418.281 561.913 OFFCURVE",
"340.66 561.913 CURVE SMOOTH",
"171.979 561.913 OFFCURVE",
"47.197 441.264 OFFCURVE",
"47.197 279.362 CURVE SMOOTH",
"47.197 97.965 OFFCURVE",
"187.696 -2.709 OFFCURVE",
"329.627 -2.709 CURVE SMOOTH",
"403.202 -2.709 OFFCURVE",
"477.755 23.435 OFFCURVE"
);
},
{
closed = 1;
nodes = (
"536.679 0 LINE",
"536.679 274.584 LINE",
"517.998 274.584 LINE",
"517.998 80.26 LINE",
"518.906 76.56 LINE",
"518.906 0 LINE"
);
}
);
width = 626.07702;
}
);
},
{
glyphname = I.ss01;
lastChange = "2017-08-14 19:06:31 +0000";
layers = (
{
anchors = (
{
name = bottom;
position = "{171.536, 0}";
},
{
name = ogonek;
position = "{181.548, 0}";
},
{
name = top;
position = "{171.536, 559.3}";
},
{
name = topleft;
position = "{5.182, 559.3}";
}
);
layerId = "7C7516DB-6554-481F-A885-45E791722A73";
paths = (
{
closed = 1;
nodes = (
"181.548 8.23 LINE",
"181.548 551.094 LINE",
"161.523 551.094 LINE",
"161.523 8.23 LINE"
);
},
{
closed = 1;
nodes = (
"305.262 0 LINE",
"305.262 18.992 LINE",
"37.809 18.992 LINE",
"37.809 0 LINE"
);
},
{
closed = 1;
nodes = (
"305.262 540.308 LINE",
"305.262 559.3 LINE",
"37.809 559.3 LINE",
"37.809 540.308 LINE"
);
}
);
width = 343.07102;
}
);
},
{
glyphname = IJ.ss01;
lastChange = "2017-08-14 19:06:31 +0000";
layers = (
{
anchors = (
{
name = top;
position = "{135.139, 559.3}";
}
);
layerId = "7C7516DB-6554-481F-A885-45E791722A73";
paths = (
{
closed = 1;
nodes = (
"476.503 155.118 CURVE SMOOTH",
"476.503 559.3 LINE",
"456.478 559.3 LINE",
"456.478 155.581 LINE SMOOTH",
"456.478 8.326 OFFCURVE",
"383.803 -63.233 OFFCURVE",
"265.156 -63.233 CURVE SMOOTH",
"204.766 -63.233 OFFCURVE",
"149.629 -44.88 OFFCURVE",
"106.521 -13.647 CURVE",
"95.496 -30.05 LINE",
"139.52 -60.748 OFFCURVE",
"199.129 -82.465 OFFCURVE",
"264.561 -82.465 CURVE SMOOTH",
"392.517 -82.465 OFFCURVE",
"476.503 -3.611 OFFCURVE"
);
},
{
closed = 1;
nodes = (
"121.415 152.913 LINE",
"121.415 559.3 LINE",
"101.39 559.3 LINE",
"101.39 152.913 LINE"
);
}
);
width = 577.89298;
}
);
},
{
glyphname = J.ss01;
lastChange = "2017-08-14 19:06:31 +0000";
layers = (
{
anchors = (
{
name = top;
position = "{170.487, 559.3}";
}
);
layerId = "7C7516DB-6554-481F-A885-45E791722A73";
paths = (
{
closed = 1;
nodes = (
"286.229 76.928 CURVE SMOOTH",
"286.229 559.3 LINE",
"54.727 559.3 LINE",
"54.727 540.308 LINE",
"266.258 540.308 LINE",
"266.258 78.238 LINE SMOOTH",
"266.258 -17.682 OFFCURVE",
"227.009 -63.305 OFFCURVE",
"145.434 -63.305 CURVE SMOOTH",
"92.52 -63.305 OFFCURVE",
"46.799 -37.273 OFFCURVE",
"16.075 9.508 CURVE",
"2.738 -3.388 LINE",
"33.044 -53.07 OFFCURVE",
"86.883 -82.609 OFFCURVE",
"144.999 -82.609 CURVE SMOOTH",
"238.542 -82.609 OFFCURVE",
"286.229 -29.203 OFFCURVE"
);
}
);
width = 387.61941;
}
);
},
{
glyphname = M.ss01;
lastChange = "2017-08-14 19:06:31 +0000";
layers = (
{
anchors = (
{
name = bottom;
position = "{455.787, 0}";
},
{
name = top;
position = "{455.787, 559.3}";
}
);
layerId = "7C7516DB-6554-481F-A885-45E791722A73";
paths = (
{
closed = 1;
nodes = (
"805.33 0 LINE",
"805.33 352.751 LINE SMOOTH",
"805.33 491.385 OFFCURVE",
"736.405 562.009 OFFCURVE",
"627.625 562.009 CURVE SMOOTH",
"518.846 562.009 OFFCURVE",
"448.125 491.313 OFFCURVE",
"448.125 331.825 CURVE SMOOTH",
"448.125 262.951 LINE",
"465.8 262.951 LINE",
"465.8 336.115 LINE SMOOTH",
"465.8 479.208 OFFCURVE",
"524.251 542.705 OFFCURVE",
"625.606 542.705 CURVE SMOOTH",
"727.752 542.705 OFFCURVE",
"785.306 480.007 OFFCURVE",
"785.306 351.808 CURVE SMOOTH",
"785.306 0 LINE"
);
},
{
closed = 1;
nodes = (
"126.269 0 LINE",
"126.269 372.126 LINE",
"126.144 385.997 LINE",
"126.144 559.3 LINE",
"106.244 559.3 LINE",
"106.244 0 LINE"
);
},
{
closed = 1;
nodes = (
"465.8 0 LINE",
"465.8 352.751 LINE SMOOTH",
"465.8 491.385 OFFCURVE",
"396.981 562.009 OFFCURVE",
"288.415 562.009 CURVE SMOOTH",
"179.564 562.009 OFFCURVE",
"110.924 491.073 OFFCURVE",
"110.924 329.26 CURVE SMOOTH",
"110.924 239.7 LINE",
"126.269 239.7 LINE",
"126.269 336.115 LINE SMOOTH",
"126.269 479.208 OFFCURVE",
"184.721 542.705 OFFCURVE",
"286.075 542.705 CURVE SMOOTH",
"388.221 542.705 OFFCURVE",
"445.775 480.007 OFFCURVE",
"445.775 351.808 CURVE SMOOTH",
"445.775 0 LINE"
);
}
);
width = 906.72075;
}
);
},
{
glyphname = N.ss01;
lastChange = "2017-08-14 19:06:31 +0000";
layers = (
{
anchors = (
{
name = bottom;
position = "{324.391, 0}";
},
{
name = top;
position = "{325.974, 559.3}";
}
);
layerId = "7C7516DB-6554-481F-A885-45E791722A73";
paths = (
{
closed = 1;
nodes = (
"545.703 0 LINE",
"545.703 336.771 LINE SMOOTH",
"545.703 483.395 OFFCURVE",
"462.5 562.009 OFFCURVE",
"328.224 562.009 CURVE SMOOTH",
"193.948 562.009 OFFCURVE",
"110.746 483.083 OFFCURVE",
"110.746 321.03 CURVE SMOOTH",
"110.746 239.7 LINE",
"126.269 239.7 LINE",
"126.269 320.135 LINE SMOOTH",
"126.269 471.17 OFFCURVE",
"199.14 542.705 OFFCURVE",
"326.027 542.705 CURVE SMOOTH",
"452.949 542.705 OFFCURVE",
"525.679 472.017 OFFCURVE",
"525.679 335.828 CURVE SMOOTH",
"525.679 0 LINE"
);
},
{
closed = 1;
nodes = (
"126.269 0 LINE",
"126.269 372.126 LINE",
"126.144 385.997 LINE",
"126.144 559.3 LINE",
"106.244 559.3 LINE",
"106.244 0 LINE"
);
}
);
width = 647.09322;
}
);
},
{
glyphname = Eng.ss01;
lastChange = "2017-08-14 19:06:31 +0000";
layers = (
{
layerId = "7C7516DB-6554-481F-A885-45E791722A73";
paths = (
{
closed = 1;
nodes = (
"545.703 1.966 CURVE SMOOTH",
"545.703 336.771 LINE SMOOTH",
"545.703 483.395 OFFCURVE",
"462.5 562.009 OFFCURVE",
"328.224 562.009 CURVE SMOOTH",
"193.948 562.009 OFFCURVE",
"110.746 483.083 OFFCURVE",
"110.746 321.03 CURVE SMOOTH",
"110.746 239.7 LINE",
"126.269 239.7 LINE",
"126.269 320.135 LINE SMOOTH",
"126.269 471.17 OFFCURVE",
"199.14 542.705 OFFCURVE",
"326.027 542.705 CURVE SMOOTH",
"452.949 542.705 OFFCURVE",
"525.679 472.017 OFFCURVE",
"525.679 335.828 CURVE SMOOTH",
"525.679 3.276 LINE SMOOTH",
"525.679 -92.644 OFFCURVE",
"486.429 -138.267 OFFCURVE",
"404.854 -138.267 CURVE SMOOTH",
"352.208 -138.267 OFFCURVE",
"306.718 -112.523 OFFCURVE",
"276.243 -66.413 CURVE",
"263.244 -79.62 LINE",
"293.479 -128.535 OFFCURVE",
"346.891 -157.571 OFFCURVE",
"404.419 -157.571 CURVE SMOOTH",
"497.962 -157.571 OFFCURVE",
"545.703 -104.166 OFFCURVE"
);
},
{
closed = 1;
nodes = (
"126.269 0 LINE",
"126.269 372.126 LINE",
"126.144 385.997 LINE",
"126.144 559.3 LINE",
"106.244 559.3 LINE",
"106.244 0 LINE"
);
}
);
width = 647.09322;
}
);
},
{
glyphname = Q.ss01;
lastChange = "2017-08-14 19:06:31 +0000";
layers = (
{
layerId = "7C7516DB-6554-481F-A885-45E791722A73";
paths = (
{
closed = 1;
nodes = (
"629.341 279.65 CURVE SMOOTH",
"629.341 441.288 OFFCURVE",
"504.523 562.009 OFFCURVE",
"338.269 562.009 CURVE SMOOTH",
"172.014 562.009 OFFCURVE",
"47.197 441.288 OFFCURVE",
"47.197 279.65 CURVE SMOOTH",
"47.197 118.012 OFFCURVE",
"172.014 -2.709 OFFCURVE",
"338.269 -2.709 CURVE SMOOTH",
"504.523 -2.709 OFFCURVE",
"629.341 118.012 OFFCURVE"
);
},
{
closed = 1;
nodes = (
"348.281 -107.865 LINE",
"348.281 1.374 LINE",
"348.103 9.956 LINE",
"348.103 166.432 LINE",
"328.417 166.432 LINE",
"328.417 9.956 LINE",
"328.257 1.374 LINE",
"328.257 -107.865 LINE"
);
},
{
closed = 1;
nodes = (
"67.257 279.65 CURVE SMOOTH",
"67.257 428.743 OFFCURVE",
"184.018 542.705 OFFCURVE",
"338.269 542.705 CURVE SMOOTH",
"492.519 542.705 OFFCURVE",
"609.281 428.743 OFFCURVE",
"609.281 279.65 CURVE SMOOTH",
"609.281 130.461 OFFCURVE",
"492.768 16.595 OFFCURVE",
"338.269 16.595 CURVE SMOOTH",
"183.769 16.595 OFFCURVE",
"67.257 130.461 OFFCURVE"
);
}
);
width = 676.53759;
}
);
},
{
glyphname = Schwa.ss01;
lastChange = "2017-08-14 19:06:31 +0000";
layers = (
{
anchors = (
{
name = bottom;
position = "{330.09, 0}";
},
{
name = top;
position = "{330.09, 559.3}";
}
);
layerId = "7C7516DB-6554-481F-A885-45E791722A73";
paths = (
{
closed = 1;
nodes = (
"612.983 280.425 CURVE SMOOTH",
"612.983 441.36 OFFCURVE",
"488.201 562.009 OFFCURVE",
"321.822 562.009 CURVE SMOOTH",
"245.188 562.009 OFFCURVE",
"175.676 538.918 OFFCURVE",
"124.656 493.015 CURVE",
"135.833 477.962 LINE",
"189.609 524.16 OFFCURVE",
"251.973 542.705 OFFCURVE",
"321.786 542.705 CURVE SMOOTH",
"475.441 542.705 OFFCURVE",
"592.923 428.695 OFFCURVE",
"592.923 280.665 CURVE SMOOTH",
"592.923 277.964 LINE SMOOTH",
"592.923 130.708 OFFCURVE",
"473.388 16.164 OFFCURVE",
"330.09 16.164 CURVE SMOOTH",
"225.383 16.164 OFFCURVE",
"140.048 70.256 OFFCURVE",
"96.709 155.509 CURVE",
"90.61 146.752 LINE",
"590.034 352.287 LINE",
"583.624 368.531 LINE",
"72.711 158.114 LINE",
"116.13 61.06 OFFCURVE",
"211.984 -2.709 OFFCURVE",
"330.09 -2.709 CURVE SMOOTH",
"487.481 -2.709 OFFCURVE",
"612.983 124.868 OFFCURVE"
);
}
);
width = 660.17961;
}
);
},
{
glyphname = T.ss01;
lastChange = "2017-08-14 19:06:31 +0000";
layers = (
{
anchors = (
{
name = bottom;
position = "{222.876, 0}";
},
{
name = center;
position = "{222.858, 278.452}";
},
{
name = top;
position = "{222.965, 558.549}";
}
);
layerId = "7C7516DB-6554-481F-A885-45E791722A73";
paths = (
{
closed = 1;
nodes = (
"222.085 542.777 CURVE SMOOTH",
"291.313 542.777 OFFCURVE",
"367.234 526.653 OFFCURVE",
"433.608 487.55 CURVE",
"442.908 503.977 LINE",
"372.276 544.966 OFFCURVE",
"295.625 562.009 OFFCURVE",
"222.085 562.009 CURVE SMOOTH",
"148.545 562.009 OFFCURVE",
"73.477 544.966 OFFCURVE",
"2.844 503.977 CURVE",
"12.145 487.55 LINE",
"79.31 526.653 OFFCURVE",
"152.857 542.777 OFFCURVE"
);
},
{
closed = 1;
nodes = (
"232.888 0 LINE",
"232.888 549.297 LINE",
"212.864 549.297 LINE",
"212.864 0 LINE"
);
}
);
width = 445.75254;
}
);
},
{
glyphname = U.ss01;
lastChange = "2017-08-14 19:06:31 +0000";
layers = (
{
anchors = (
{
name = bottom;
position = "{321.12, 0}";
},
{
name = ogonek;
position = "{538.998, 0}";
},
{
name = top;
position = "{321.12, 559.3}";
},
{
name = topright;
position = "{534.233, 558.525}";
}
);
layerId = "7C7516DB-6554-481F-A885-45E791722A73";
paths = (
{
closed = 1;
nodes = (
"536.348 238.27 CURVE SMOOTH",
"536.348 319.6 LINE",
"520.825 319.6 LINE",
"520.825 239.165 LINE SMOOTH",
"520.825 88.13 OFFCURVE",
"447.953 16.595 OFFCURVE",
"321.066 16.595 CURVE SMOOTH",
"194.144 16.595 OFFCURVE",
"121.415 87.283 OFFCURVE",
"121.415 223.472 CURVE SMOOTH",
"121.415 559.3 LINE",
"101.39 559.3 LINE",
"101.39 222.529 LINE SMOOTH",
"101.39 75.905 OFFCURVE",
"184.593 -2.709 OFFCURVE",
"319.047 -2.709 CURVE SMOOTH",
"453.145 -2.709 OFFCURVE",
"536.348 76.217 OFFCURVE"
);
},
{
closed = 1;
nodes = (
"540.849 0 LINE",
"540.849 559.3 LINE",
"520.825 559.3 LINE",
"520.825 187.174 LINE",
"520.949 173.303 LINE",
"520.949 0 LINE"
);
}
);
width = 647.09322;
}
);
},
{
glyphname = W.ss01;
lastChange = "2017-08-14 19:06:31 +0000";
layers = (
{
anchors = (
{
name = top;
position = "{450.933, 559.3}";
}
);
layerId = "7C7516DB-6554-481F-A885-45E791722A73";
paths = (
{
closed = 1;
nodes = (
"452.436 149.509 CURVE",
"449.43 149.509 LINE",
"466.918 46.326 OFFCURVE",
"529.282 -2.709 OFFCURVE",
"620.699 -2.709 CURVE SMOOTH",
"730.297 -2.709 OFFCURVE",
"800.476 67.38 OFFCURVE",
"800.476 214.004 CURVE SMOOTH",
"800.476 559.3 LINE",
"780.452 559.3 LINE",
"780.452 214.947 LINE SMOOTH",
"780.452 77.767 OFFCURVE",
"721.316 16.595 OFFCURVE",
"620.699 16.595 CURVE SMOOTH",
"520.082 16.595 OFFCURVE",
"460.946 77.767 OFFCURVE",
"460.946 214.947 CURVE SMOOTH",
"460.946 559.3 LINE",
"440.921 559.3 LINE",
"440.921 214.947 LINE SMOOTH",
"440.921 77.767 OFFCURVE",
"381.785 16.595 OFFCURVE",
"281.168 16.595 CURVE SMOOTH",
"180.551 16.595 OFFCURVE",
"121.415 77.767 OFFCURVE",
"121.415 214.947 CURVE SMOOTH",
"121.415 559.3 LINE",
"101.39 559.3 LINE",
"101.39 214.004 LINE SMOOTH",
"101.39 67.38 OFFCURVE",
"171.569 -2.709 OFFCURVE",
"281.168 -2.709 CURVE SMOOTH",
"372.585 -2.709 OFFCURVE",
"434.949 46.326 OFFCURVE"
);
}
);
width = 901.86675;
}
);
},
{
glyphname = Y.ss01;
lastChange = "2017-08-14 19:06:31 +0000";
layers = (
{
anchors = (
{
name = bottom;
position = "{527.628, 0}";
},
{
name = top;
position = "{317.075, 559.3}";
}
);
layerId = "7C7516DB-6554-481F-A885-45E791722A73";
paths = (
{
closed = 1;
nodes = (
"536.804 154.974 CURVE SMOOTH",
"536.804 559.3 LINE",
"516.779 559.3 LINE",
"516.779 155.437 LINE SMOOTH",
"516.779 8.182 OFFCURVE",
"444.104 -63.377 OFFCURVE",
"317.367 -63.377 CURVE SMOOTH",
"232.272 -63.377 OFFCURVE",
"169.223 -34.948 OFFCURVE",
"122.159 24.186 CURVE",
"108.76 9.332 LINE",
"155.158 -49.266 OFFCURVE",
"225.844 -82.609 OFFCURVE",
"316.772 -82.609 CURVE SMOOTH",
"452.818 -82.609 OFFCURVE",
"536.804 -3.755 OFFCURVE"
);
},
{
closed = 1;
nodes = (
"532.303 384.902 CURVE SMOOTH",
"532.303 466.232 LINE",
"516.779 466.232 LINE",
"516.779 385.797 LINE SMOOTH",
"516.779 234.762 OFFCURVE",
"443.908 163.467 OFFCURVE",
"317.021 163.467 CURVE SMOOTH",
"189.956 163.467 OFFCURVE",
"117.37 234.131 OFFCURVE",
"117.37 370.105 CURVE SMOOTH",
"117.37 559.3 LINE",
"97.345 559.3 LINE",
"97.345 368.922 LINE SMOOTH",
"97.345 222.561 OFFCURVE",
"180.53 144.164 OFFCURVE",
"315.002 144.164 CURVE SMOOTH",
"449.1 144.164 OFFCURVE",
"532.303 222.849 OFFCURVE"
);
}
);
width = 638.19422;
}
);
},
{
glyphname = Z.ss01;
lastChange = "2017-08-14 19:06:31 +0000";
layers = (
{
anchors = (
{
name = bottom;
position = "{271.442, 0}";
},
{
name = top;
position = "{263.53, 559.3}";
}
);
layerId = "7C7516DB-6554-481F-A885-45E791722A73";
paths = (
{
closed = 1;
nodes = (
"490.78 0 LINE",
"490.78 18.992 LINE",
"65.283 18.992 LINE",
"66.644 12.201 LINE",
"478.645 544.582 LINE",
"478.645 559.324 LINE",
"44.37 559.324 LINE",
"44.37 540.332 LINE",
"457.536 540.332 LINE",
"456.176 547.123 LINE",
"44.175 14.742 LINE",
"44.175 0 LINE"
);
},
{
closed = 1;
nodes = (
"260.983 274.704 LINE",
"266.522 278.539 LINE",
"420.19 278.539 LINE",
"419.122 293.361 LINE",
"268.184 293.361 LINE",
"262.645 289.526 LINE",
"100.683 289.526 LINE",
"101.751 274.704 LINE"
);
}
);
width = 525.89531;
}
);
},
{
glyphname = a;
lastChange = "2017-08-14 19:06:31 +0000";
layers = (
{
anchors = (
{
name = bottom;
position = "{229.036, 0}";
},
{
name = ogonek;
position = "{377.146, 0}";
},
{
name = top;
position = "{221.533, 413.802}";
}
);
layerId = "7C7516DB-6554-481F-A885-45E791722A73";
paths = (
{
closed = 1;
nodes = (
"378.25 0 LINE",
"378.25 269.782 LINE SMOOTH",
"378.25 365.598 OFFCURVE",
"324.899 416.367 OFFCURVE",
"226.627 416.367 CURVE SMOOTH",
"163.418 416.367 OFFCURVE",
"103.143 392.589 OFFCURVE",
"63.235 355.203 CURVE",
"75.593 340.781 LINE",
"111.838 374.755 OFFCURVE",
"165.036 397.614 OFFCURVE",
"226.742 397.614 CURVE SMOOTH",
"312.753 397.614 OFFCURVE",
"358.403 354.293 OFFCURVE",
"358.403 269.319 CURVE SMOOTH",
"358.403 111.453 LINE",
"358.688 97.654 LINE",
"358.688 0 LINE"
);
},
{
closed = 1;
nodes = (
"366.831 107.29 CURVE",
"358.403 118.971 LINE",
"331.289 53.006 OFFCURVE",
"280.945 15.421 OFFCURVE",
"201.273 15.421 CURVE SMOOTH",
"119.174 15.421 OFFCURVE",
"71.346 53.853 OFFCURVE",
"71.346 114.904 CURVE SMOOTH",
"71.346 169.1 OFFCURVE",
"108.115 208.235 OFFCURVE",
"201.54 208.235 CURVE SMOOTH",
"367.498 208.235 LINE",
"367.498 225.574 LINE",
"201.69 225.574 LINE SMOOTH",
"89.514 225.574 OFFCURVE",
"51.731 173.783 OFFCURVE",
"51.731 113.889 CURVE SMOOTH",
"51.731 44.209 OFFCURVE",
"105.934 -2.565 OFFCURVE",
"200.062 -2.565 CURVE SMOOTH",
"287.185 -2.565 OFFCURVE",
"344.357 41.021 OFFCURVE"
);
}
);
width = 465.34490;
}
);
unicode = 0061;
},
{
glyphname = ae;
lastChange = "2017-08-14 19:06:31 +0000";
layers = (
{
anchors = (
{
name = top;
position = "{368.326, 413.802}";
}
);
layerId = "7C7516DB-6554-481F-A885-45E791722A73";
paths = (
{
closed = 1;
nodes = (
"377.688 148.646 CURVE",
"365.569 150.196 LINE",
"394.276 48.116 OFFCURVE",
"481.755 -2.565 OFFCURVE",
"576.443 -2.565 CURVE SMOOTH",
"640.044 -2.565 OFFCURVE",
"699.19 20.63 OFFCURVE",
"737.337 65.422 CURVE",
"724.196 79.125 LINE",
"689.516 36.626 OFFCURVE",
"635.198 16.164 OFFCURVE",
"576.568 16.164 CURVE SMOOTH",
"462.9 16.164 OFFCURVE",
"378.25 94.602 OFFCURVE",
"378.25 207.133 CURVE SMOOTH",
"378.25 211.048 LINE SMOOTH",
"378.25 317.962 OFFCURVE",
"455.637 397.95 OFFCURVE",
"561.054 397.95 CURVE SMOOTH",
"666.472 397.95 OFFCURVE",
"744.651 317.962 OFFCURVE",
"744.651 211.048 CURVE",
"751.728 224.871 LINE",
"374.818 224.871 LINE",
"374.818 207.532 LINE",
"763.314 207.532 LINE",
"763.35 209.466 OFFCURVE",
"763.385 210.744 OFFCURVE",
"763.385 212.726 CURVE SMOOTH",
"763.385 331.865 OFFCURVE",
"675.444 416.367 OFFCURVE",
"561.108 416.367 CURVE SMOOTH",
"473.123 416.367 OFFCURVE",
"401.122 365.806 OFFCURVE",
"373.26 289.046 CURVE",
"377.199 282.071 LINE",
"370.842 372.174 OFFCURVE",
"320.275 416.367 OFFCURVE",
"226.556 416.367 CURVE SMOOTH",
"163.382 416.367 OFFCURVE",
"103.143 392.589 OFFCURVE",
"63.235 355.203 CURVE",
"75.593 340.781 LINE",
"111.838 374.755 OFFCURVE",
"165.036 397.614 OFFCURVE",
"226.742 397.614 CURVE SMOOTH",
"312.753 397.614 OFFCURVE",
"358.403 354.293 OFFCURVE",
"358.403 269.319 CURVE SMOOTH",
"358.403 161.35 LINE SMOOTH",
"358.403 67.244 OFFCURVE",
"293.871 15.421 OFFCURVE",
"201.308 15.421 CURVE SMOOTH",
"119.156 15.421 OFFCURVE",
"71.346 53.853 OFFCURVE",
"71.346 114.928 CURVE SMOOTH",
"71.346 168.373 OFFCURVE",
"108.115 207.532 OFFCURVE",
"201.54 207.532 CURVE SMOOTH",
"363.435 207.532 LINE",
"363.435 224.871 LINE",
"201.69 224.871 LINE SMOOTH",
"89.514 224.871 OFFCURVE",
"51.731 173.103 OFFCURVE",
"51.731 113.937 CURVE SMOOTH",
"51.731 44.209 OFFCURVE",
"106.343 -2.565 OFFCURVE",
"200.757 -2.565 CURVE SMOOTH",
"290.573 -2.565 OFFCURVE",
"368.131 42.355 OFFCURVE"
);
}
);
width = 806.48403;
}
);
unicode = 00E6;
},
{
glyphname = b;
lastChange = "2017-08-14 19:06:31 +0000";
layers = (
{
layerId = "7C7516DB-6554-481F-A885-45E791722A73";
paths = (
{
closed = 1;
nodes = (
"500.15 207.301 CURVE SMOOTH",
"500.15 330.099 OFFCURVE",
"411.791 416.367 OFFCURVE",
"296.913 416.367 CURVE SMOOTH",
"182.053 416.367 OFFCURVE",
"97.046 330.53 OFFCURVE",
"97.046 207.301 CURVE SMOOTH",
"97.046 83.999 OFFCURVE",
"181.91 -2.565 OFFCURVE",
"296.913 -2.565 CURVE SMOOTH",
"411.791 -2.565 OFFCURVE",
"500.15 84.502 OFFCURVE"
);
},
{
closed = 1;
nodes = (
"111.529 0 LINE",
"111.529 149.029 LINE",
"103.635 208.076 LINE",
"111.725 267.122 LINE",
"111.725 592.858 LINE",
"91.878 592.858 LINE",
"91.878 0 LINE"
);
},
{
closed = 1;
nodes = (
"111.653 207.301 CURVE SMOOTH",
"111.653 319.832 OFFCURVE",
"190.676 397.423 OFFCURVE",
"296.005 397.423 CURVE SMOOTH",
"401.334 397.423 OFFCURVE",
"480.357 319.832 OFFCURVE",
"480.357 207.301 CURVE SMOOTH",
"480.357 94.769 OFFCURVE",
"401.334 16.379 OFFCURVE",
"296.005 16.379 CURVE SMOOTH",
"190.676 16.379 OFFCURVE",
"111.653 94.769 OFFCURVE"
);
}
);
width = 543.24836;
}
);
unicode = 0062;
},
{
glyphname = c;
lastChange = "2017-08-14 19:06:31 +0000";
layers = (
{
anchors = (
{
name = bottom;
position = "{235.757, 0}";
},
{
name = top;
position = "{235.9, 413.802}";
}
);
layerId = "7C7516DB-6554-481F-A885-45E791722A73";
paths = (
{
closed = 1;
nodes = (
"401.55 66.421 CURVE",
"387.466 80.108 LINE",
"355.408 37.034 OFFCURVE",
"304.975 16.379 OFFCURVE",
"249.688 16.379 CURVE SMOOTH",
"141.968 16.379 OFFCURVE",
"62.892 93.97 OFFCURVE",
"62.892 207.301 CURVE SMOOTH",
"62.892 319.832 OFFCURVE",
"141.968 397.423 OFFCURVE",
"249.688 397.423 CURVE SMOOTH",
"304.975 397.423 OFFCURVE",
"355.408 376.768 OFFCURVE",
"387.466 333.694 CURVE",
"401.55 347.381 LINE",
"366.115 393.204 OFFCURVE",
"310.569 416.367 OFFCURVE",
"249.706 416.367 CURVE SMOOTH",
"130.107 416.367 OFFCURVE",
"43.099 330.634 OFFCURVE",
"43.099 207.301 CURVE SMOOTH",
"43.099 83.943 OFFCURVE",
"130.107 -2.565 OFFCURVE",
"249.706 -2.565 CURVE SMOOTH",
"310.569 -2.565 OFFCURVE",
"366.115 20.598 OFFCURVE"
);
}
);
width = 441.93729;
}
);
unicode = 0063;
},
{
glyphname = d;
lastChange = "2017-08-14 19:06:31 +0000";
layers = (
{
anchors = (
{
name = bottom;
position = "{266.206, 0}";
},
{
name = center;
position = "{390.009, 503.61}";
},
{
name = topright;
position = "{531.879, 592.858}";
}
);
layerId = "7C7516DB-6554-481F-A885-45E791722A73";
paths = (
{
closed = 1;
nodes = (
"446.291 207.301 CURVE SMOOTH",
"446.291 330.53 OFFCURVE",
"361.285 416.367 OFFCURVE",
"246.425 416.367 CURVE SMOOTH",
"131.547 416.367 OFFCURVE",
"43.188 330.099 OFFCURVE",
"43.188 207.301 CURVE SMOOTH",
"43.188 84.502 OFFCURVE",
"131.547 -2.565 OFFCURVE",
"246.425 -2.565 CURVE SMOOTH",
"361.427 -2.565 OFFCURVE",
"446.291 83.999 OFFCURVE"
);
},
{
closed = 1;
nodes = (
"62.981 207.301 CURVE SMOOTH",
"62.981 319.832 OFFCURVE",
"142.004 397.423 OFFCURVE",
"247.332 397.423 CURVE SMOOTH",
"352.661 397.423 OFFCURVE",
"431.684 319.832 OFFCURVE",
"431.684 207.301 CURVE SMOOTH",
"431.684 94.769 OFFCURVE",
"352.661 16.379 OFFCURVE",
"247.332 16.379 CURVE SMOOTH",
"142.004 16.379 OFFCURVE",
"62.981 94.769 OFFCURVE"
);
},
{
closed = 1;
nodes = (
"451.459 0 LINE",
"451.459 592.858 LINE",
"431.613 592.858 LINE",
"431.613 267.122 LINE",
"439.703 208.076 LINE",
"431.809 149.029 LINE",
"431.809 0 LINE"
);
}
);
width = 543.33735;
}
);
unicode = 0064;
},
{
glyphname = e;
lastChange = "2017-08-14 19:06:31 +0000";
layers = (
{
anchors = (
{
name = bottom;
position = "{243.27, 0}";
},
{
name = ogonek;
position = "{400.012, 0}";
},
{
name = top;
position = "{243.27, 413.802}";
}
);
layerId = "7C7516DB-6554-481F-A885-45E791722A73";
paths = (
{
closed = 1;
nodes = (
"421.997 65.422 CURVE",
"408.856 79.125 LINE",
"374.175 36.626 OFFCURVE",
"319.858 16.164 OFFCURVE",
"261.192 16.164 CURVE SMOOTH",
"147.489 16.164 OFFCURVE",
"62.838 94.602 OFFCURVE",
"62.838 207.133 CURVE SMOOTH",
"62.838 211.048 LINE SMOOTH",
"62.838 317.962 OFFCURVE",
"140.226 397.95 OFFCURVE",
"245.679 397.95 CURVE SMOOTH",
"351.132 397.95 OFFCURVE",
"429.31 317.962 OFFCURVE",
"429.31 211.048 CURVE",
"437.206 223.368 LINE",
"55.939 223.368 LINE",
"55.939 206.03 LINE",
"447.974 206.03 LINE",
"448.01 207.964 OFFCURVE",
"448.045 209.242 OFFCURVE",
"448.045 211.176 CURVE SMOOTH",
"448.045 331.865 OFFCURVE",
"360.104 416.367 OFFCURVE",
"245.643 416.367 CURVE SMOOTH",
"129.351 416.367 OFFCURVE",
"43.099 329.859 OFFCURVE",
"43.099 207.301 CURVE SMOOTH",
"43.099 84.814 OFFCURVE",
"135.609 -2.565 OFFCURVE",
"261.068 -2.565 CURVE SMOOTH",
"324.703 -2.565 OFFCURVE",
"383.849 20.63 OFFCURVE"
);
}
);
width = 491.14391;
}
);
unicode = 0065;
},
{
glyphname = f;
lastChange = "2017-08-14 19:06:31 +0000";
layers = (
{
layerId = "7C7516DB-6554-481F-A885-45E791722A73";
paths = (
{
closed = 1;
nodes = (
"118.499 0 LINE",
"118.499 399.404 LINE",
"118.375 410.159 LINE",
"118.375 487.51 LINE SMOOTH",
"118.375 545.142 OFFCURVE",
"147.249 576.598 OFFCURVE",
"203.203 576.598 CURVE SMOOTH",
"229.633 576.598 OFFCURVE",
"254.481 567.929 OFFCURVE",
"272.154 551.486 CURVE",
"284.192 566.099 LINE",
"264.616 585.907 OFFCURVE",
"232.024 595.423 OFFCURVE",
"201.896 595.423 CURVE SMOOTH",
"135.823 595.423 OFFCURVE",
"98.653 553.715 OFFCURVE",
"98.653 491.433 CURVE SMOOTH",
"98.653 0 LINE"
);
},
{
closed = 1;
nodes = (
"258.953 394.402 LINE",
"258.953 413.083 LINE",
"18.198 413.083 LINE",
"18.198 394.402 LINE"
);
}
);
width = 253.64577;
}
);
unicode = 0066;
},
{
glyphname = g;
lastChange = "2017-08-14 19:06:31 +0000";
layers = (
{
anchors = (
{
name = top;
position = "{255.44, 413.802}";
}
);
layerId = "7C7516DB-6554-481F-A885-45E791722A73";
paths = (
{
closed = 1;
nodes = (
"456.313 38.264 CURVE SMOOTH",
"456.313 413.802 LINE",
"436.663 413.802 LINE",
"436.663 266.107 LINE",
"444.557 215.53 LINE",
"436.467 164.954 LINE",
"436.467 35.196 LINE SMOOTH",
"436.467 -85.133 OFFCURVE",
"380.424 -138.818 OFFCURVE",
"260.915 -138.818 CURVE SMOOTH",
"191.049 -138.818 OFFCURVE",
"130.427 -115.839 OFFCURVE",
"87.728 -74.746 CURVE",
"75.298 -89.288 LINE",
"115.278 -132.219 OFFCURVE",
"185.047 -157.571 OFFCURVE",
"261.325 -157.571 CURVE SMOOTH",
"391.601 -157.571 OFFCURVE",
"456.313 -96.248 OFFCURVE"
);
},
{
closed = 1;
nodes = (
"450.896 215.53 CURVE SMOOTH",
"450.896 333.774 OFFCURVE",
"365.907 416.367 OFFCURVE",
"248.691 416.367 CURVE SMOOTH",
"131.511 416.367 OFFCURVE",
"43.099 333.343 OFFCURVE",
"43.099 215.53 CURVE SMOOTH",
"43.099 97.718 OFFCURVE",
"131.511 13.895 OFFCURVE",
"248.691 13.895 CURVE SMOOTH",
"365.907 13.895 OFFCURVE",
"450.896 98.061 OFFCURVE"
);
},
{
closed = 1;
nodes = (
"62.892 215.53 CURVE SMOOTH",
"62.892 322.98 OFFCURVE",
"141.933 397.423 OFFCURVE",
"249.599 397.423 CURVE SMOOTH",
"357.266 397.423 OFFCURVE",
"436.289 322.98 OFFCURVE",
"436.289 215.53 CURVE SMOOTH",
"436.289 108.081 OFFCURVE",
"357.266 32.839 OFFCURVE",
"249.599 32.839 CURVE SMOOTH",
"141.933 32.839 OFFCURVE",
"62.892 108.081 OFFCURVE"
);
}
);
width = 548.19135;
}
);
unicode = 0067;
},
{
glyphname = h;
lastChange = "2017-08-14 19:06:31 +0000";
layers = (
{
anchors = (
{
name = bottom;
position = "{271.371, 0}";
},
{
name = center;
position = "{153.346, 503.61}";
},
{
name = top;
position = "{101.801, 592.858}";
},
{
name = topright;
position = "{185.911, 413.802}";
}
);
layerId = "7C7516DB-6554-481F-A885-45E791722A73";
paths = (
{
closed = 1;
nodes = (
"453.922 0 LINE",
"453.922 243.863 LINE SMOOTH",
"453.922 356.49 OFFCURVE",
"388.881 416.367 OFFCURVE",
"286.156 416.367 CURVE SMOOTH",
"169.314 416.367 OFFCURVE",
"98.735 340.214 OFFCURVE",
"98.379 230.464 CURVE",
"111.725 223.944 LINE",
"111.725 327.414 OFFCURVE",
"177.297 397.087 OFFCURVE",
"285.719 397.087 CURVE SMOOTH",
"379.02 397.087 OFFCURVE",
"434.075 343.762 OFFCURVE",
"434.075 242.928 CURVE SMOOTH",
"434.075 0 LINE"
);
},
{
closed = 1;
nodes = (
"111.725 0 LINE",
"111.725 592.858 LINE",
"91.878 592.858 LINE",
"91.878 0 LINE"
);
}
);
width = 541.01714;
}
);
unicode = 0068;
},
{
glyphname = idotless;
lastChange = "2017-08-14 19:06:31 +0000";
layers = (
{
anchors = (
{
name = bottom;
position = "{101.801, 0}";
},
{
name = ogonek;
position = "{111.707, 0}";
},
{
name = top;
position = "{101.801, 413.802}";
}
);
layerId = "7C7516DB-6554-481F-A885-45E791722A73";
paths = (
{
closed = 1;
nodes = (
"111.707 0 LINE",
"111.707 413.802 LINE",
"91.878 413.802 LINE",
"91.878 0 LINE"
);
}
);
width = 203.58485;
}
);
},
{
glyphname = jdotless;
lastChange = "2017-08-14 19:06:31 +0000";
layers = (
{
anchors = (
{
name = top;
position = "{105.882, 413.802}";
}
);
layerId = "7C7516DB-6554-481F-A885-45E791722A73";
paths = (
{
closed = 1;
nodes = (
"115.805 -53.581 CURVE SMOOTH",
"115.805 413.802 LINE",
"95.959 413.802 LINE",
"95.959 -49.658 LINE SMOOTH",
"95.959 -107.29 OFFCURVE",
"67.119 -138.746 OFFCURVE",
"13.628 -138.746 CURVE SMOOTH",
"-15.175 -138.746 OFFCURVE",
"-40.023 -130.101 OFFCURVE",
"-57.696 -113.634 CURVE",
"-69.734 -128.247 LINE",
"-50.122 -148.055 OFFCURVE",
"-17.567 -157.571 OFFCURVE",
"15.025 -157.571 CURVE SMOOTH",
"80.217 -157.571 OFFCURVE",
"115.805 -115.863 OFFCURVE"
);
}
);
width = 207.68325;
}
);
},
{
glyphname = k;
lastChange = "2017-08-14 19:06:31 +0000";
layers = (
{
anchors = (
{
name = bottom;
position = "{248.648, 0}";
},
{
name = top;
position = "{101.801, 592.858}";
},
{
name = topright;
position = "{181.866, 413.802}";
}
);
layerId = "7C7516DB-6554-481F-A885-45E791722A73";
paths = (
{
closed = 1;
nodes = (
"233.864 236.384 LINE",
"248.535 247.866 LINE",
"431.004 413.802 LINE",
"403.308 413.802 LINE",
"105.617 146.489 LINE",
"105.528 121.512 LINE"
);
},
{
closed = 1;
nodes = (
"111.725 0 LINE",
"111.725 592.858 LINE",
"91.878 592.858 LINE",
"91.878 0 LINE"
);
},
{
closed = 1;
nodes = (
"449.522 0 LINE",
"245.085 253.563 LINE",
"229.952 240.163 LINE",
"424.092 0 LINE"
);
}
);
width = 452.98014;
}
);
unicode = 006B;
},
{
glyphname = kgreenlandic;
lastChange = "2017-08-14 19:06:31 +0000";
layers = (
{
anchors = (
{
name = bottom;
position = "{217.791, 0}";
},
{
name = top;
position = "{217.791, 413.802}";
}
);
layerId = "7C7516DB-6554-481F-A885-45E791722A73";
paths = (
{
closed = 1;
nodes = (
"233.864 236.384 LINE",
"248.535 247.866 LINE",
"431.004 413.802 LINE",
"403.308 413.802 LINE",
"105.617 146.489 LINE",
"105.528 121.512 LINE"
);
},
{
closed = 1;
nodes = (
"111.725 0 LINE",
"111.725 413.802 LINE",
"91.878 413.802 LINE",
"91.878 0 LINE"
);
},
{
closed = 1;
nodes = (
"449.522 0 LINE",
"245.085 253.563 LINE",
"229.952 240.163 LINE",
"424.092 0 LINE"
);
}
);
width = 452.98014;
}
);
unicode = 0138;
},
{
glyphname = l;
lastChange = "2017-08-14 19:06:31 +0000";
layers = (
{
anchors = (
{
name = bottom;
position = "{101.801, 0}";
},
{
name = center;
position = "{101.801, 280.129}";
},
{
name = dot;
position = "{205.996, 280.129}";
},
{
name = top;
position = "{101.801, 592.858}";
},
{
name = topright;
position = "{192.091, 592.858}";
}
);
layerId = "7C7516DB-6554-481F-A885-45E791722A73";
paths = (
{
closed = 1;
nodes = (
"111.725 0 LINE",
"111.725 592.858 LINE",
"91.878 592.858 LINE",
"91.878 0 LINE"
);
}
);
width = 203.60265;
}
);
unicode = 006C;
},
{
glyphname = m;
lastChange = "2017-08-14 19:06:31 +0000";
layers = (
{
anchors = (
{
name = bottom;
position = "{434.113, 0}";
}
);
layerId = "7C7516DB-6554-481F-A885-45E791722A73";
paths = (
{
closed = 1;
nodes = (
"776.418 0 LINE",
"776.418 243.863 LINE SMOOTH",
"776.418 356.49 OFFCURVE",
"713.823 416.367 OFFCURVE",
"613.507 416.367 CURVE SMOOTH",
"500.71 416.367 OFFCURVE",
"431.064 340.286 OFFCURVE",
"430.548 236.8 CURVE",
"444.071 224.183 LINE",
"444.071 327.462 OFFCURVE",
"507.919 397.087 OFFCURVE",
"613.07 397.087 CURVE SMOOTH",
"703.116 397.087 OFFCURVE",
"756.572 343.762 OFFCURVE",
"756.572 242.928 CURVE SMOOTH",
"756.572 0 LINE"
);
},
{
closed = 1;
nodes = (
"111.725 0 LINE",
"111.725 252.54 LINE",
"111.529 269.143 LINE",
"111.529 413.802 LINE",
"91.878 413.802 LINE",
"91.878 0 LINE"
);
},
{
closed = 1;
nodes = (
"444.071 0 LINE",
"444.071 243.863 LINE SMOOTH",
"444.071 356.418 OFFCURVE",
"381.476 416.367 OFFCURVE",
"281.231 416.367 CURVE SMOOTH",
"167.643 416.367 OFFCURVE",
"98.717 340.214 OFFCURVE",
"98.379 230.464 CURVE",
"111.725 224.183 LINE",
"111.725 327.462 OFFCURVE",
"175.572 397.087 OFFCURVE",
"280.723 397.087 CURVE SMOOTH",
"370.805 397.087 OFFCURVE",
"424.225 343.762 OFFCURVE",
"424.225 242.928 CURVE SMOOTH",
"424.225 0 LINE"
);
}
);
width = 863.51367;
}
);
unicode = 006D;
},
{
glyphname = n;
lastChange = "2017-08-14 19:06:31 +0000";
layers = (
{
anchors = (
{
name = bottom;
position = "{271.371, 0}";
},
{
name = top;
position = "{271.371, 413.802}";
}
);
layerId = "7C7516DB-6554-481F-A885-45E791722A73";
paths = (
{
closed = 1;
nodes = (
"453.922 0 LINE",
"453.922 243.863 LINE SMOOTH",
"453.922 356.49 OFFCURVE",
"388.881 416.367 OFFCURVE",
"286.156 416.367 CURVE SMOOTH",
"169.314 416.367 OFFCURVE",
"98.735 340.214 OFFCURVE",
"98.379 230.464 CURVE",
"111.725 223.944 LINE",
"111.725 327.414 OFFCURVE",
"177.297 397.087 OFFCURVE",
"285.719 397.087 CURVE SMOOTH",
"379.02 397.087 OFFCURVE",
"434.075 343.762 OFFCURVE",
"434.075 242.928 CURVE SMOOTH",
"434.075 0 LINE"
);
},
{
closed = 1;
nodes = (
"111.725 0 LINE",
"111.725 252.54 LINE",
"111.529 269.143 LINE",
"111.529 413.802 LINE",
"91.878 413.802 LINE",
"91.878 0 LINE"
);
}
);
width = 541.01714;
}
);
unicode = 006E;
},
{
glyphname = eng;
lastChange = "2017-08-14 19:06:31 +0000";
layers = (
{
layerId = "7C7516DB-6554-481F-A885-45E791722A73";
paths = (
{
closed = 1;
nodes = (
"453.922 -53.581 CURVE SMOOTH",
"453.922 243.863 LINE SMOOTH",
"453.922 356.49 OFFCURVE",
"388.881 416.367 OFFCURVE",
"286.156 416.367 CURVE SMOOTH",
"169.314 416.367 OFFCURVE",
"98.735 340.214 OFFCURVE",
"98.379 230.464 CURVE",
"111.725 223.944 LINE",
"111.725 327.414 OFFCURVE",
"177.297 397.087 OFFCURVE",
"285.719 397.087 CURVE SMOOTH",
"379.02 397.087 OFFCURVE",
"434.075 343.762 OFFCURVE",
"434.075 242.928 CURVE SMOOTH",
"434.075 -49.658 LINE SMOOTH",
"434.075 -107.29 OFFCURVE",
"405.236 -138.746 OFFCURVE",
"351.745 -138.746 CURVE SMOOTH",
"322.941 -138.746 OFFCURVE",
"298.094 -130.101 OFFCURVE",
"280.42 -113.634 CURVE",
"268.383 -128.247 LINE",
"287.994 -148.055 OFFCURVE",
"320.55 -157.571 OFFCURVE",
"353.141 -157.571 CURVE SMOOTH",
"418.334 -157.571 OFFCURVE",
"453.922 -115.863 OFFCURVE"
);
},
{
closed = 1;
nodes = (
"111.725 0 LINE",
"111.725 252.54 LINE",
"111.529 269.143 LINE",
"111.529 413.802 LINE",
"91.878 413.802 LINE",
"91.878 0 LINE"
);
}
);
width = 541.01714;
}
);
unicode = 014B;
},
{
glyphname = o;
lastChange = "2017-08-14 19:06:31 +0000";
layers = (
{
anchors = (
{
name = bottom;
position = "{247.19, 0}";
},
{
name = center;
position = "{247.19, 207.301}";
},
{
name = ogonek;
position = "{316.631, 0}";
},
{
name = top;
position = "{247.19, 413.802}";
},
{
name = topright;
position = "{376.282, 414.577}";
}
);
layerId = "7C7516DB-6554-481F-A885-45E791722A73";
paths = (
{
closed = 1;
nodes = (
"451.388 207.301 CURVE SMOOTH",
"451.388 329.859 OFFCURVE",
"364.416 416.367 OFFCURVE",
"247.243 416.367 CURVE SMOOTH",
"130.071 416.367 OFFCURVE",
"43.099 329.859 OFFCURVE",
"43.099 207.301 CURVE SMOOTH",
"43.099 84.742 OFFCURVE",
"130.071 -2.565 OFFCURVE",
"247.243 -2.565 CURVE SMOOTH",
"364.416 -2.565 OFFCURVE",
"451.388 84.742 OFFCURVE"
);
},
{
closed = 1;
nodes = (
"62.892 207.301 CURVE SMOOTH",
"62.892 319.832 OFFCURVE",
"141.915 397.423 OFFCURVE",
"247.243 397.423 CURVE SMOOTH",
"352.572 397.423 OFFCURVE",
"431.595 319.832 OFFCURVE",
"431.595 207.301 CURVE SMOOTH",
"431.595 94.769 OFFCURVE",
"352.572 16.379 OFFCURVE",
"247.243 16.379 CURVE SMOOTH",
"141.915 16.379 OFFCURVE",
"62.892 94.769 OFFCURVE"
);
}
);
width = 494.48670;
}
);
unicode = 006F;
},
{
glyphname = oe;
lastChange = "2017-08-14 19:06:31 +0000";
layers = (
{
anchors = (
{
name = bottom;
position = "{441.5, 0}";
},
{
name = top;
position = "{441.5, 413.802}";
}
);
layerId = "7C7516DB-6554-481F-A885-45E791722A73";
paths = (
{
closed = 1;
nodes = (
"450.134 207.301 CURVE SMOOTH",
"450.134 329.859 OFFCURVE",
"363.518 416.367 OFFCURVE",
"247.172 416.367 CURVE SMOOTH",
"130.071 416.367 OFFCURVE",
"43.099 329.859 OFFCURVE",
"43.099 207.301 CURVE SMOOTH",
"43.099 84.742 OFFCURVE",
"130.071 -2.565 OFFCURVE",
"247.172 -2.565 CURVE SMOOTH",
"363.518 -2.565 OFFCURVE",
"450.134 84.742 OFFCURVE"
);
},
{
closed = 1;
nodes = (
"62.892 207.301 CURVE SMOOTH",
"62.892 319.832 OFFCURVE",
"141.915 397.423 OFFCURVE",
"247.243 397.423 CURVE SMOOTH",
"352.572 397.423 OFFCURVE",
"431.595 319.832 OFFCURVE",
"431.595 207.301 CURVE SMOOTH",
"431.595 94.769 OFFCURVE",
"352.572 16.379 OFFCURVE",
"247.243 16.379 CURVE SMOOTH",
"141.915 16.379 OFFCURVE",
"62.892 94.769 OFFCURVE"
);
},
{
closed = 1;
nodes = (
"810.476 65.422 CURVE",
"797.334 79.125 LINE",
"762.654 36.626 OFFCURVE",
"708.336 16.164 OFFCURVE",
"649.706 16.164 CURVE SMOOTH",
"536.039 16.164 OFFCURVE",
"451.388 94.602 OFFCURVE",
"451.388 207.133 CURVE SMOOTH",
"451.388 211.048 LINE SMOOTH",
"451.388 317.962 OFFCURVE",
"528.775 397.95 OFFCURVE",
"634.193 397.95 CURVE SMOOTH",
"739.61 397.95 OFFCURVE",
"817.789 317.962 OFFCURVE",
"817.789 211.048 CURVE",
"824.866 224.871 LINE",
"447.956 224.871 LINE",
"447.956 207.532 LINE",
"836.453 207.532 LINE",
"836.488 209.466 OFFCURVE",
"836.524 210.744 OFFCURVE",
"836.524 212.726 CURVE SMOOTH",
"836.524 331.865 OFFCURVE",
"748.582 416.367 OFFCURVE",
"634.246 416.367 CURVE SMOOTH",
"517.954 416.367 OFFCURVE",
"431.951 329.859 OFFCURVE",
"431.951 207.301 CURVE SMOOTH",
"431.951 84.814 OFFCURVE",
"524.302 -2.565 OFFCURVE",
"649.582 -2.565 CURVE SMOOTH",
"713.182 -2.565 OFFCURVE",
"772.328 20.63 OFFCURVE"
);
}
);
width = 879.62248;
}
);
unicode = 0153;
},
{
glyphname = ohorn;
lastChange = "2017-08-14 19:06:31 +0000";
layers = (
{
anchors = (
{
name = bottom;
position = "{247.243, 0}";
},
{
name = top;
position = "{247.243, 413.802}";
}
);
layerId = "7C7516DB-6554-481F-A885-45E791722A73";
paths = (
{
closed = 1;
nodes = (
"451.388 207.301 CURVE SMOOTH",
"451.388 303.932 OFFCURVE",
"397.203 378.239 OFFCURVE",
"317.005 404.869 CURVE",
"321.438 396.032 LINE",
"336.25 394.314 OFFCURVE",
"344.873 394.195 OFFCURVE",
"352.724 394.195 CURVE SMOOTH",
"414.413 394.195 OFFCURVE",
"443.707 430.022 OFFCURVE",
"443.707 470.851 CURVE SMOOTH",
"443.707 492.08 OFFCURVE",
"436.302 514.668 OFFCURVE",
"425.607 530.864 CURVE",
"408.731 523.585 LINE",
"417.648 508.524 OFFCURVE",
"424.947 490.97 OFFCURVE",
"424.947 470.291 CURVE SMOOTH",
"424.947 440.728 OFFCURVE",
"402.49 412.252 OFFCURVE",
"352.057 412.252 CURVE SMOOTH",
"308.043 412.252 OFFCURVE",
"291.703 416.367 OFFCURVE",
"247.297 416.367 CURVE SMOOTH",
"130.071 416.367 OFFCURVE",
"43.099 329.859 OFFCURVE",
"43.099 207.301 CURVE SMOOTH",
"43.099 84.742 OFFCURVE",
"130.071 -2.565 OFFCURVE",
"247.243 -2.565 CURVE SMOOTH",
"364.416 -2.565 OFFCURVE",
"451.388 84.742 OFFCURVE"
);
},
{
closed = 1;
nodes = (
"62.892 207.301 CURVE SMOOTH",
"62.892 319.832 OFFCURVE",
"141.915 397.423 OFFCURVE",
"247.243 397.423 CURVE SMOOTH",
"352.572 397.423 OFFCURVE",
"431.595 319.832 OFFCURVE",
"431.595 207.301 CURVE SMOOTH",
"431.595 94.769 OFFCURVE",
"352.572 16.379 OFFCURVE",
"247.243 16.379 CURVE SMOOTH",
"141.915 16.379 OFFCURVE",
"62.892 94.769 OFFCURVE"
);
}
);
width = 494.48670;
}
);
unicode = 01A1;
},
{
glyphname = p;
lastChange = "2017-08-14 19:06:31 +0000";
layers = (
{
anchors = (
{
name = bottom;
position = "{296.948, 0}";
},
{
name = top;
position = "{296.023, 413.802}";
}
);
layerId = "7C7516DB-6554-481F-A885-45E791722A73";
paths = (
{
closed = 1;
nodes = (
"500.15 206.502 CURVE SMOOTH",
"500.15 329.3 OFFCURVE",
"411.791 416.367 OFFCURVE",
"296.913 416.367 CURVE SMOOTH",
"181.91 416.367 OFFCURVE",
"97.046 329.803 OFFCURVE",
"97.046 206.502 CURVE SMOOTH",
"97.046 83.272 OFFCURVE",
"182.053 -2.565 OFFCURVE",
"296.913 -2.565 CURVE SMOOTH",
"411.791 -2.565 OFFCURVE",
"500.15 83.703 OFFCURVE"
);
},
{
closed = 1;
nodes = (
"111.725 -155.006 LINE",
"111.725 146.68 LINE",
"103.635 205.727 LINE",
"111.529 264.773 LINE",
"111.529 413.802 LINE",
"91.878 413.802 LINE",
"91.878 -155.006 LINE"
);
},
{
closed = 1;
nodes = (
"111.653 206.502 CURVE SMOOTH",
"111.653 319.033 OFFCURVE",
"190.676 397.423 OFFCURVE",
"296.005 397.423 CURVE SMOOTH",
"401.334 397.423 OFFCURVE",
"480.357 319.033 OFFCURVE",
"480.357 206.502 CURVE SMOOTH",
"480.357 93.97 OFFCURVE",
"401.334 16.379 OFFCURVE",
"296.005 16.379 CURVE SMOOTH",
"190.676 16.379 OFFCURVE",
"111.653 93.97 OFFCURVE"
);
}
);
width = 543.24836;
}
);
unicode = 0070;
},
{
glyphname = thorn;
lastChange = "2017-08-14 19:06:31 +0000";
layers = (
{
anchors = (
{
name = bottom;
position = "{296.913, 0}";
},
{
name = top;
position = "{296.913, 413.802}";
}
);
layerId = "7C7516DB-6554-481F-A885-45E791722A73";
paths = (
{
closed = 1;
nodes = (
"500.15 206.502 CURVE SMOOTH",
"500.15 329.3 OFFCURVE",
"411.791 416.367 OFFCURVE",
"296.913 416.367 CURVE SMOOTH",
"181.91 416.367 OFFCURVE",
"97.046 329.803 OFFCURVE",
"97.046 206.502 CURVE SMOOTH",
"97.046 83.272 OFFCURVE",
"182.053 -2.565 OFFCURVE",
"296.913 -2.565 CURVE SMOOTH",
"411.791 -2.565 OFFCURVE",
"500.15 83.703 OFFCURVE"
);
},
{
closed = 1;
nodes = (
"111.725 -155.006 LINE",
"111.725 146.68 LINE",
"103.635 205.727 LINE",
"111.529 264.773 LINE",
"111.529 592.858 LINE",
"91.878 592.858 LINE",
"91.878 -155.006 LINE"
);
},
{
closed = 1;
nodes = (
"111.653 206.502 CURVE SMOOTH",
"111.653 319.033 OFFCURVE",
"190.676 397.423 OFFCURVE",
"296.005 397.423 CURVE SMOOTH",
"401.334 397.423 OFFCURVE",
"480.357 319.033 OFFCURVE",
"480.357 206.502 CURVE SMOOTH",
"480.357 93.97 OFFCURVE",
"401.334 16.379 OFFCURVE",
"296.005 16.379 CURVE SMOOTH",
"190.676 16.379 OFFCURVE",
"111.653 93.97 OFFCURVE"
);
}
);
width = 543.24836;
}
);
unicode = 00FE;
},
{
glyphname = q;
lastChange = "2017-08-14 19:06:31 +0000";
layers = (
{
anchors = (
{
name = bottom;
position = "{246.336, 0}";
},
{
name = top;
position = "{247.243, 413.802}";
}
);
layerId = "7C7516DB-6554-481F-A885-45E791722A73";
paths = (
{
closed = 1;
nodes = (
"446.202 206.502 CURVE SMOOTH",
"446.202 329.803 OFFCURVE",
"361.338 416.367 OFFCURVE",
"246.336 416.367 CURVE SMOOTH",
"131.458 416.367 OFFCURVE",
"43.099 329.3 OFFCURVE",
"43.099 206.502 CURVE SMOOTH",
"43.099 83.703 OFFCURVE",
"131.458 -2.565 OFFCURVE",
"246.336 -2.565 CURVE SMOOTH",
"361.196 -2.565 OFFCURVE",
"446.202 83.272 OFFCURVE"
);
},
{
closed = 1;
nodes = (
"62.892 206.502 CURVE SMOOTH",
"62.892 319.033 OFFCURVE",
"141.915 397.423 OFFCURVE",
"247.243 397.423 CURVE SMOOTH",
"352.572 397.423 OFFCURVE",
"431.595 319.033 OFFCURVE",
"431.595 206.502 CURVE SMOOTH",
"431.595 93.97 OFFCURVE",
"352.572 16.379 OFFCURVE",
"247.243 16.379 CURVE SMOOTH",
"141.915 16.379 OFFCURVE",
"62.892 93.97 OFFCURVE"
);
},
{
closed = 1;
nodes = (
"451.37 -155.006 LINE",
"451.37 413.802 LINE",
"431.72 413.802 LINE",
"431.72 264.773 LINE",
"439.614 205.727 LINE",
"431.524 146.68 LINE",
"431.524 -155.006 LINE"
);
}
);
width = 543.24836;
}
);
unicode = 0071;
},
{
glyphname = r;
lastChange = "2017-08-14 19:06:31 +0000";
layers = (
{
anchors = (
{
name = bottom;
position = "{101.801, 0}";
},
{
name = top;
position = "{183.963, 413.802}";
}
);
layerId = "7C7516DB-6554-481F-A885-45E791722A73";
paths = (
{
closed = 1;
nodes = (
"111.725 0 LINE",
"111.725 252.54 LINE",
"111.529 269.143 LINE",
"111.529 413.802 LINE",
"91.878 413.802 LINE",
"91.878 0 LINE"
);
},
{
closed = 1;
nodes = (
"269.656 396.168 CURVE SMOOTH",
"271.523 396.168 OFFCURVE",
"273.355 396.144 OFFCURVE",
"275.293 396.072 CURVE",
"275.257 416.367 LINE",
"162.842 416.367 OFFCURVE",
"98.735 344.792 OFFCURVE",
"98.735 226.277 CURVE",
"111.725 221.283 LINE",
"111.725 329.548 OFFCURVE",
"170.337 396.168 OFFCURVE"
);
}
);
width = 316.68467;
}
);
unicode = 0072;
},
{
glyphname = s;
lastChange = "2017-08-14 19:06:31 +0000";
layers = (
{
anchors = (
{
name = bottom;
position = "{188.596, 0}";
},
{
name = top;
position = "{188.596, 413.802}";
}
);
layerId = "7C7516DB-6554-481F-A885-45E791722A73";
paths = (
{
closed = 1;
nodes = (
"346.121 105.724 CURVE SMOOTH",
"346.121 262.104 OFFCURVE",
"60.447 169.652 OFFCURVE",
"60.447 308.973 CURVE SMOOTH",
"60.447 365.862 OFFCURVE",
"108.995 397.95 OFFCURVE",
"189.939 397.95 CURVE SMOOTH",
"236.647 397.95 OFFCURVE",
"285.116 384.559 OFFCURVE",
"318.552 358.24 CURVE",
"329.15 374.212 LINE",
"296.38 399.732 OFFCURVE",
"241.946 416.367 OFFCURVE",
"189.885 416.367 CURVE SMOOTH",
"99.4 416.367 OFFCURVE",
"40.903 374.827 OFFCURVE",
"40.903 308.853 CURVE SMOOTH",
"40.903 147.775 OFFCURVE",
"327.386 241.026 OFFCURVE",
"327.386 105.604 CURVE SMOOTH",
"327.386 47.093 OFFCURVE",
"279.647 15.852 OFFCURVE",
"190.054 15.852 CURVE SMOOTH",
"123.227 15.852 OFFCURVE",
"66.526 41.085 OFFCURVE",
"36.326 69.729 CURVE",
"25.728 53.757 LINE",
"57.581 21.213 OFFCURVE",
"121.831 -2.565 OFFCURVE",
"189.965 -2.565 CURVE SMOOTH",
"288.468 -2.565 OFFCURVE",
"346.121 38.248 OFFCURVE"
);
}
);
width = 376.63158;
}
);
unicode = 0073;
},
{
glyphname = germandbls;
lastChange = "2017-08-14 19:06:31 +0000";
layers = (
{
layerId = "7C7516DB-6554-481F-A885-45E791722A73";
paths = (
{
closed = 1;
nodes = (
"485.366 155.461 CURVE SMOOTH",
"485.366 254.777 OFFCURVE",
"409.969 311.578 OFFCURVE",
"297.704 311.578 CURVE",
"277.034 300.752 LINE",
"359.277 300.752 OFFCURVE",
"439.146 357.672 OFFCURVE",
"439.146 452.993 CURVE SMOOTH",
"439.146 534.97 OFFCURVE",
"374.879 595.423 OFFCURVE",
"271.229 595.423 CURVE SMOOTH",
"165.507 595.423 OFFCURVE",
"91.878 529.569 OFFCURVE",
"91.878 405.029 CURVE SMOOTH",
"91.878 0 LINE",
"111.725 0 LINE",
"111.725 404.997 LINE SMOOTH",
"111.725 520.077 OFFCURVE",
"176.31 576.526 OFFCURVE",
"272.038 576.526 CURVE SMOOTH",
"364.511 576.526 OFFCURVE",
"419.567 524.727 OFFCURVE",
"419.567 452.466 CURVE SMOOTH",
"419.567 367.005 OFFCURVE",
"357.301 312.88 OFFCURVE",
"252.044 312.832 CURVE",
"252.044 294.032 LINE",
"300.442 294.032 LINE SMOOTH",
"397.067 294.032 OFFCURVE",
"465.573 243.999 OFFCURVE",
"465.573 155.605 CURVE SMOOTH",
"465.573 67.188 OFFCURVE",
"393.849 16.379 OFFCURVE",
"299.793 16.379 CURVE SMOOTH",
"269.3 16.379 OFFCURVE",
"243.608 20.351 OFFCURVE",
"219.498 28.293 CURVE",
"214.359 9.444 LINE",
"238.576 1.454 OFFCURVE",
"269.585 -2.565 OFFCURVE",
"300.398 -2.565 CURVE SMOOTH",
"404.43 -2.565 OFFCURVE",
"485.366 57.528 OFFCURVE"
);
}
);
width = 528.46470;
}
);
unicode = 00DF;
},
{
glyphname = t;
lastChange = "2017-08-14 19:06:31 +0000";
layers = (
{
anchors = (
{
name = bottom;
position = "{195.556, 0}";
},
{
name = center;
position = "{138.98, 244.19}";
},
{
name = top;
position = "{108.576, 504.329}";
},
{
name = topright;
position = "{202.43, 592.858}";
}
);
layerId = "7C7516DB-6554-481F-A885-45E791722A73";
paths = (
{
closed = 1;
nodes = (
"284.192 26.806 CURVE",
"272.154 41.42 LINE",
"254.481 24.905 OFFCURVE",
"229.633 16.26 OFFCURVE",
"203.203 16.26 CURVE SMOOTH",
"147.338 16.26 OFFCURVE",
"118.499 47.716 OFFCURVE",
"118.499 105.108 CURVE SMOOTH",
"118.499 504.329 LINE",
"98.653 504.329 LINE",
"98.653 101.185 LINE SMOOTH",
"98.653 38.664 OFFCURVE",
"134.241 -2.565 OFFCURVE",
"201.807 -2.565 CURVE SMOOTH",
"232.024 -2.565 OFFCURVE",
"264.58 6.951 OFFCURVE"
);
},
{
closed = 1;
nodes = (
"258.953 394.402 LINE",
"258.953 413.083 LINE",
"18.198 413.083 LINE",
"18.198 394.402 LINE"
);
}
);
width = 315.17346;
}
);
unicode = 0074;
},
{
glyphname = u;
lastChange = "2017-08-14 19:06:31 +0000";
layers = (
{
anchors = (
{
name = bottom;
position = "{266.499, 0}";
},
{
name = ogonek;
position = "{445.903, 0}";
},
{
name = top;
position = "{266.499, 413.802}";
},
{
name = topright;
position = "{436.771, 413.802}";
}
);
layerId = "7C7516DB-6554-481F-A885-45E791722A73";
paths = (
{
closed = 1;
nodes = (
"439.402 183.339 CURVE",
"426.057 189.858 LINE",
"426.057 86.388 OFFCURVE",
"362.875 16.715 OFFCURVE",
"259.325 16.715 CURVE SMOOTH",
"162.806 16.715 OFFCURVE",
"106.942 70.04 OFFCURVE",
"106.942 171.114 CURVE SMOOTH",
"106.942 413.802 LINE",
"87.095 413.802 LINE",
"87.095 170.179 LINE SMOOTH",
"87.095 57.408 OFFCURVE",
"152.945 -2.565 OFFCURVE",
"258.924 -2.565 CURVE SMOOTH",
"370.894 -2.565 OFFCURVE",
"439.046 73.588 OFFCURVE"
);
},
{
closed = 1;
nodes = (
"445.903 0 LINE",
"445.903 413.802 LINE",
"426.057 413.802 LINE",
"426.057 161.262 LINE",
"426.252 144.659 LINE",
"426.252 0 LINE"
);
}
);
width = 537.78114;
}
);
unicode = 0075;
},
{
glyphname = v;
lastChange = "2017-08-14 19:06:31 +0000";
layers = (
{
anchors = (
{
name = bottom;
position = "{206.696, 0}";
},
{
name = top;
position = "{206.696, 413.802}";
}
);
layerId = "7C7516DB-6554-481F-A885-45E791722A73";
paths = (
{
closed = 1;
nodes = (
"216.691 0 LINE",
"408.912 413.802 LINE",
"386.906 413.802 LINE",
"202.553 13.319 LINE",
"210.965 13.319 LINE",
"26.807 413.802 LINE",
"4.48 413.802 LINE",
"196.702 0 LINE"
);
}
);
width = 413.39254;
}
);
unicode = 0076;
},
{
glyphname = w;
lastChange = "2017-08-14 19:06:31 +0000";
layers = (
{
anchors = (
{
name = bottom;
position = "{390.775, 0}";
},
{
name = top;
position = "{390.775, 413.802}";
}
);
layerId = "7C7516DB-6554-481F-A885-45E791722A73";
paths = (
{
closed = 1;
nodes = (
"214.21 0 LINE",
"394.598 394.354 LINE",
"387.022 394.354 LINE",
"567.339 0 LINE",
"587.328 0 LINE",
"773.006 413.802 LINE",
"751 413.802 LINE",
"573.083 13.319 LINE",
"581.584 13.319 LINE",
"400.698 413.802 LINE",
"381.118 413.802 LINE",
"200.037 13.319 LINE",
"208.555 13.319 LINE",
"30.834 413.802 LINE",
"8.543 413.802 LINE",
"194.221 0 LINE"
);
}
);
width = 781.54903;
}
);
unicode = 0077;
},
{
glyphname = x;
lastChange = "2017-08-14 19:06:31 +0000";
layers = (
{
layerId = "7C7516DB-6554-481F-A885-45E791722A73";
paths = (
{
closed = 1;
nodes = (
"46.134 0 LINE",
"205.088 202.722 LINE",
"199.441 203.034 LINE",
"358.324 0 LINE",
"383.505 0 LINE",
"209.703 219.829 LINE",
"208.911 207.532 LINE",
"371.548 413.802 LINE",
"348.341 413.802 LINE",
"198.019 223.289 LINE",
"206.022 223.456 LINE",
"55.913 413.802 LINE",
"31.595 413.802 LINE",
"192.631 210.369 LINE",
"193.529 218.91 LINE",
"21.993 0 LINE"
);
}
);
width = 405.49831;
}
);
unicode = 0078;
},
{
glyphname = y;
lastChange = "2017-08-14 19:06:31 +0000";
layers = (
{
anchors = (
{
name = bottom;
position = "{279.971, 0}";
},
{
name = top;
position = "{194.668, 413.802}";
}
);
layerId = "7C7516DB-6554-481F-A885-45E791722A73";
paths = (
{
closed = 1;
nodes = (
"187.203 -65.023 CURVE SMOOTH",
"408.912 413.802 LINE",
"386.906 413.802 LINE",
"202.606 13.271 LINE",
"198.365 7.319 LINE",
"167.944 -58.958 LINE SMOOTH",
"139.193 -120.297 OFFCURVE",
"107.98 -138.579 OFFCURVE",
"67.708 -138.579 CURVE SMOOTH",
"34.789 -138.579 OFFCURVE",
"11.292 -128.287 OFFCURVE",
"-11.253 -104.629 CURVE",
"-24.456 -120.745 LINE",
"-1.644 -145.49 OFFCURVE",
"30.441 -157.571 OFFCURVE",
"67.113 -157.571 CURVE SMOOTH",
"117.441 -157.571 OFFCURVE",
"155.402 -134.064 OFFCURVE"
);
},
{
closed = 1;
nodes = (
"210.911 13.751 LINE",
"26.807 413.802 LINE",
"4.48 413.802 LINE",
"200.978 -9.125 LINE"
);
}
);
width = 413.39254;
}
);
unicode = 0079;
},
{
glyphname = z;
lastChange = "2017-08-14 19:06:31 +0000";
layers = (
{
anchors = (
{
name = bottom;
position = "{206.918, 0}";
},
{
name = top;
position = "{199.006, 413.802}";
}
);
layerId = "7C7516DB-6554-481F-A885-45E791722A73";
paths = (
{
closed = 1;
nodes = (
"360.327 0 LINE",
"360.327 18.681 LINE",
"48.889 18.681 LINE",
"59.042 12.305 LINE",
"356.175 399.061 LINE",
"356.175 413.802 LINE",
"41.028 413.802 LINE",
"41.028 395.121 LINE",
"341.05 395.121 LINE",
"334.062 401.497 LINE",
"36.929 14.742 LINE",
"36.929 0 LINE"
);
}
);
width = 398.62505;
}
);
unicode = 007A;
},
{
glyphname = a.ss01;
lastChange = "2017-08-14 19:06:31 +0000";
layers = (
{
anchors = (
{
name = bottom;
position = "{257.218, 0}";
},
{
name = ogonek;
position = "{451.37, 0}";
},
{
name = top;
position = "{257.218, 413.802}";
}
);
layerId = "7C7516DB-6554-481F-A885-45E791722A73";
paths = (
{
closed = 1;
nodes = (
"446.202 207.301 CURVE SMOOTH",
"446.202 330.53 OFFCURVE",
"361.196 416.367 OFFCURVE",
"246.336 416.367 CURVE SMOOTH",
"131.458 416.367 OFFCURVE",
"43.099 330.099 OFFCURVE",
"43.099 207.301 CURVE SMOOTH",
"43.099 84.502 OFFCURVE",
"131.458 -2.565 OFFCURVE",
"246.336 -2.565 CURVE SMOOTH",
"361.338 -2.565 OFFCURVE",
"446.202 83.999 OFFCURVE"
);
},
{
closed = 1;
nodes = (
"62.892 207.301 CURVE SMOOTH",
"62.892 319.832 OFFCURVE",
"141.915 397.423 OFFCURVE",
"247.243 397.423 CURVE SMOOTH",
"352.572 397.423 OFFCURVE",
"431.595 319.832 OFFCURVE",
"431.595 207.301 CURVE SMOOTH",
"431.595 94.769 OFFCURVE",
"352.572 16.379 OFFCURVE",
"247.243 16.379 CURVE SMOOTH",
"141.915 16.379 OFFCURVE",
"62.892 94.769 OFFCURVE"
);
},
{
closed = 1;
nodes = (
"451.37 0 LINE",
"451.37 413.802 LINE",
"431.524 413.802 LINE",
"431.524 267.122 LINE",
"439.614 208.076 LINE",
"431.72 149.029 LINE",
"431.72 0 LINE"
);
}
);
width = 543.24836;
}
);
},
{
glyphname = ae.ss01;
lastChange = "2017-08-14 19:06:31 +0000";
layers = (
{
anchors = (
{
name = top;
position = "{395.227, 413.802}";
}
);
layerId = "7C7516DB-6554-481F-A885-45E791722A73";
paths = (
{
closed = 1;
nodes = (
"377.688 148.646 CURVE",
"365.569 150.196 LINE",
"394.276 48.116 OFFCURVE",
"481.755 -2.565 OFFCURVE",
"576.443 -2.565 CURVE SMOOTH",
"640.044 -2.565 OFFCURVE",
"699.19 20.63 OFFCURVE",
"737.337 65.422 CURVE",
"724.196 79.125 LINE",
"689.516 36.626 OFFCURVE",
"635.198 16.164 OFFCURVE",
"576.568 16.164 CURVE SMOOTH",
"462.9 16.164 OFFCURVE",
"378.25 94.602 OFFCURVE",
"378.25 207.133 CURVE SMOOTH",
"378.25 211.048 LINE SMOOTH",
"378.25 317.962 OFFCURVE",
"455.672 397.95 OFFCURVE",
"565.873 397.95 CURVE SMOOTH",
"669.672 397.95 OFFCURVE",
"736.739 317.962 OFFCURVE",
"743.068 233.763 CURVE",
"751.559 245.836 LINE",
"371.368 174.741 LINE",
"376.907 158.154 LINE",
"762.594 230.623 LINE",
"755.473 331.865 OFFCURVE",
"678.644 416.367 OFFCURVE",
"565.926 416.367 CURVE SMOOTH",
"473.914 416.367 OFFCURVE",
"401.122 365.806 OFFCURVE",
"373.26 289.046 CURVE",
"377.199 282.071 LINE",
"370.842 372.174 OFFCURVE",
"320.275 416.367 OFFCURVE",
"226.556 416.367 CURVE SMOOTH",
"163.382 416.367 OFFCURVE",
"103.143 392.589 OFFCURVE",
"63.235 355.203 CURVE",
"75.593 340.781 LINE",
"111.838 374.755 OFFCURVE",
"165.036 397.614 OFFCURVE",
"226.742 397.614 CURVE SMOOTH",
"312.753 397.614 OFFCURVE",
"358.403 354.293 OFFCURVE",
"358.403 269.319 CURVE SMOOTH",
"358.403 161.35 LINE SMOOTH",
"358.403 67.244 OFFCURVE",
"293.871 15.421 OFFCURVE",
"201.308 15.421 CURVE SMOOTH",
"119.156 15.421 OFFCURVE",
"71.346 53.853 OFFCURVE",
"71.346 114.928 CURVE SMOOTH",
"71.346 168.373 OFFCURVE",
"108.115 207.532 OFFCURVE",
"201.54 207.532 CURVE SMOOTH",
"363.435 207.532 LINE",
"363.435 224.871 LINE",
"201.69 224.871 LINE SMOOTH",
"89.514 224.871 OFFCURVE",
"51.731 173.103 OFFCURVE",
"51.731 113.937 CURVE SMOOTH",
"51.731 44.209 OFFCURVE",
"106.343 -2.565 OFFCURVE",
"200.757 -2.565 CURVE SMOOTH",
"290.573 -2.565 OFFCURVE",
"368.131 42.355 OFFCURVE"
);
}
);
width = 805.69282;
}
);
},
{
glyphname = e.ss01;
lastChange = "2017-08-14 19:06:31 +0000";
layers = (
{
anchors = (
{
name = bottom;
position = "{241.687, 0}";
},
{
name = ogonek;
position = "{368.886, 0}";
},
{
name = top;
position = "{241.687, 413.802}";
}
);
layerId = "7C7516DB-6554-481F-A885-45E791722A73";
paths = (
{
closed = 1;
nodes = (
"421.997 65.422 CURVE",
"408.856 79.125 LINE",
"374.175 36.626 OFFCURVE",
"319.858 16.164 OFFCURVE",
"261.192 16.164 CURVE SMOOTH",
"147.489 16.164 OFFCURVE",
"62.838 94.602 OFFCURVE",
"62.838 207.133 CURVE SMOOTH",
"62.838 211.048 LINE SMOOTH",
"62.838 317.962 OFFCURVE",
"140.261 397.95 OFFCURVE",
"250.497 397.95 CURVE SMOOTH",
"354.332 397.95 OFFCURVE",
"421.398 317.962 OFFCURVE",
"427.728 233.763 CURVE",
"436.219 245.836 LINE",
"55.957 174.741 LINE",
"61.495 158.154 LINE",
"447.254 230.623 LINE",
"440.133 331.865 OFFCURVE",
"363.304 416.367 OFFCURVE",
"250.479 416.367 CURVE SMOOTH",
"129.369 416.367 OFFCURVE",
"43.099 329.859 OFFCURVE",
"43.099 207.301 CURVE SMOOTH",
"43.099 84.814 OFFCURVE",
"135.609 -2.565 OFFCURVE",
"261.068 -2.565 CURVE SMOOTH",
"324.703 -2.565 OFFCURVE",
"383.849 20.63 OFFCURVE"
);
}
);
width = 490.35271;
}
);
},
{
glyphname = f.ss01;
lastChange = "2017-08-14 19:06:31 +0000";
layers = (
{
layerId = "7C7516DB-6554-481F-A885-45E791722A73";
paths = (
{
closed = 1;
nodes = (
"111.725 0 LINE",
"111.725 399.404 LINE",
"111.6 410.159 LINE",
"111.6 487.51 LINE SMOOTH",
"111.6 545.142 OFFCURVE",
"140.475 576.598 OFFCURVE",
"196.428 576.598 CURVE SMOOTH",
"222.858 576.598 OFFCURVE",
"247.706 567.929 OFFCURVE",
"265.38 551.486 CURVE",
"277.417 566.099 LINE",
"257.841 585.907 OFFCURVE",
"225.25 595.423 OFFCURVE",
"195.121 595.423 CURVE SMOOTH",
"129.048 595.423 OFFCURVE",
"91.878 553.715 OFFCURVE",
"91.878 491.433 CURVE SMOOTH",
"91.878 0 LINE"
);
},
{
closed = 1;
nodes = (
"252.178 394.402 LINE",
"252.178 413.083 LINE",
"102.015 413.083 LINE",
"102.015 394.402 LINE"
);
}
);
width = 246.87121;
}
);
},
{
glyphname = l.ss01;
lastChange = "2017-08-14 19:06:31 +0000";
layers = (
{
anchors = (
{
name = bottom;
position = "{152.084, 0}";
},
{
name = center;
position = "{101.801, 280.129}";
},
{
name = dot;
position = "{205.996, 280.129}";
},
{
name = top;
position = "{101.801, 592.858}";
},
{
name = topright;
position = "{190.508, 592.858}";
}
);
layerId = "7C7516DB-6554-481F-A885-45E791722A73";
paths = (
{
closed = 1;
nodes = (
"235.349 5.521 CURVE",
"232.816 23.475 LINE",
"223.161 19.48 OFFCURVE",
"208.617 16.26 OFFCURVE",
"191.735 16.26 CURVE SMOOTH",
"137.381 16.26 OFFCURVE",
"111.725 47.692 OFFCURVE",
"111.725 105.108 CURVE SMOOTH",
"111.725 592.858 LINE",
"91.878 592.858 LINE",
"91.878 100.946 LINE SMOOTH",
"91.878 38.688 OFFCURVE",
"125.884 -2.565 OFFCURVE",
"191.689 -2.565 CURVE SMOOTH",
"206.518 -2.565 OFFCURVE",
"222.876 0.631 OFFCURVE"
);
}
);
width = 230.78020;
}
);
},
{
glyphname = oe.ss01;
lastChange = "2017-08-14 19:06:31 +0000";
layers = (
{
anchors = (
{
name = bottom;
position = "{439.847, 0}";
},
{
name = top;
position = "{439.847, 413.802}";
}
);
layerId = "7C7516DB-6554-481F-A885-45E791722A73";
paths = (
{
closed = 1;
nodes = (
"450.134 207.301 CURVE SMOOTH",
"450.134 329.859 OFFCURVE",
"363.518 416.367 OFFCURVE",
"247.172 416.367 CURVE SMOOTH",
"130.071 416.367 OFFCURVE",
"43.099 329.859 OFFCURVE",
"43.099 207.301 CURVE SMOOTH",
"43.099 84.742 OFFCURVE",
"130.071 -2.565 OFFCURVE",
"247.172 -2.565 CURVE SMOOTH",
"363.518 -2.565 OFFCURVE",
"450.134 84.742 OFFCURVE"
);
},
{
closed = 1;
nodes = (
"62.892 207.301 CURVE SMOOTH",
"62.892 319.832 OFFCURVE",
"141.915 397.423 OFFCURVE",
"247.243 397.423 CURVE SMOOTH",
"352.572 397.423 OFFCURVE",
"431.595 319.832 OFFCURVE",
"431.595 207.301 CURVE SMOOTH",
"431.595 94.769 OFFCURVE",
"352.572 16.379 OFFCURVE",
"247.243 16.379 CURVE SMOOTH",
"141.915 16.379 OFFCURVE",
"62.892 94.769 OFFCURVE"
);
},
{
closed = 1;
nodes = (
"810.547 65.422 CURVE",
"797.405 79.125 LINE",
"762.725 36.626 OFFCURVE",
"708.407 16.164 OFFCURVE",
"649.742 16.164 CURVE SMOOTH",
"536.039 16.164 OFFCURVE",
"451.388 94.602 OFFCURVE",
"451.388 207.133 CURVE SMOOTH",
"451.388 211.048 LINE SMOOTH",
"451.388 317.962 OFFCURVE",
"528.811 397.95 OFFCURVE",
"639.047 397.95 CURVE SMOOTH",
"742.882 397.95 OFFCURVE",
"809.948 317.962 OFFCURVE",
"816.278 233.763 CURVE",
"824.769 245.836 LINE",
"444.507 174.741 LINE",
"450.045 158.154 LINE",
"835.804 230.623 LINE",
"828.683 331.865 OFFCURVE",
"751.854 416.367 OFFCURVE",
"639.029 416.367 CURVE SMOOTH",
"517.954 416.367 OFFCURVE",
"432.742 329.859 OFFCURVE",
"432.742 207.301 CURVE SMOOTH",
"432.742 84.814 OFFCURVE",
"524.302 -2.565 OFFCURVE",
"649.617 -2.565 CURVE SMOOTH",
"713.253 -2.565 OFFCURVE",
"772.399 20.63 OFFCURVE"
);
}
);
width = 878.90247;
}
);
},
{
glyphname = t.ss01;
lastChange = "2017-08-14 19:06:31 +0000";
layers = (
{
anchors = (
{
name = bottom;
position = "{183.999, 0}";
},
{
name = center;
position = "{127.422, 244.19}";
},
{
name = top;
position = "{97.019, 504.329}";
},
{
name = topright;
position = "{190.961, 592.858}";
}
);
layerId = "7C7516DB-6554-481F-A885-45E791722A73";
paths = (
{
closed = 1;
nodes = (
"272.635 26.806 CURVE",
"260.597 41.42 LINE",
"242.923 24.905 OFFCURVE",
"218.076 16.26 OFFCURVE",
"191.646 16.26 CURVE SMOOTH",
"135.781 16.26 OFFCURVE",
"106.942 47.716 OFFCURVE",
"106.942 105.108 CURVE SMOOTH",
"106.942 504.329 LINE",
"87.095 504.329 LINE",
"87.095 101.185 LINE SMOOTH",
"87.095 38.664 OFFCURVE",
"122.683 -2.565 OFFCURVE",
"190.249 -2.565 CURVE SMOOTH",
"220.467 -2.565 OFFCURVE",
"253.023 6.951 OFFCURVE"
);
},
{
closed = 1;
nodes = (
"247.395 394.402 LINE",
"247.395 413.083 LINE",
"97.232 413.083 LINE",
"97.232 394.402 LINE"
);
}
);
width = 303.61609;
}
);
},
{
glyphname = w.ss01;
lastChange = "2017-08-14 19:06:31 +0000";
layers = (
{
anchors = (
{
name = bottom;
position = "{424.511, 0}";
},
{
name = top;
position = "{424.511, 413.802}";
}
);
layerId = "7C7516DB-6554-481F-A885-45E791722A73";
paths = (
{
closed = 1;
nodes = (
"426.966 129.302 CURVE",
"422.057 129.302 LINE",
"441.127 36.131 OFFCURVE",
"497.97 -2.565 OFFCURVE",
"588.347 -2.565 CURVE SMOOTH",
"702.301 -2.565 OFFCURVE",
"761.928 57.744 OFFCURVE",
"761.928 185.68 CURVE SMOOTH",
"761.928 413.802 LINE",
"742.081 413.802 LINE",
"742.081 186.039 LINE SMOOTH",
"742.081 69.801 OFFCURVE",
"691.844 16.475 OFFCURVE",
"588.258 16.475 CURVE SMOOTH",
"484.672 16.475 OFFCURVE",
"434.435 69.801 OFFCURVE",
"434.435 189.914 CURVE SMOOTH",
"434.435 413.802 LINE",
"414.588 413.802 LINE",
"414.588 189.914 LINE SMOOTH",
"414.588 69.801 OFFCURVE",
"364.351 16.475 OFFCURVE",
"260.765 16.475 CURVE SMOOTH",
"157.179 16.475 OFFCURVE",
"106.942 69.801 OFFCURVE",
"106.942 186.039 CURVE SMOOTH",
"106.942 413.802 LINE",
"87.095 413.802 LINE",
"87.095 185.68 LINE SMOOTH",
"87.095 57.744 OFFCURVE",
"146.722 -2.565 OFFCURVE",
"260.676 -2.565 CURVE SMOOTH",
"351.07 -2.565 OFFCURVE",
"407.896 36.131 OFFCURVE"
);
}
);
width = 849.02286;
}
);
},
{
glyphname = y.ss01;
lastChange = "2017-08-14 19:06:31 +0000";
layers = (
{
anchors = (
{
name = bottom;
position = "{517.317, 0}";
},
{
name = top;
position = "{266.553, 413.802}";
}
);
layerId = "7C7516DB-6554-481F-A885-45E791722A73";
paths = (
{
closed = 1;
nodes = (
"445.956 38.264 CURVE SMOOTH",
"445.956 413.802 LINE",
"426.11 413.802 LINE",
"426.11 35.196 LINE SMOOTH",
"426.11 -85.133 OFFCURVE",
"376.397 -138.818 OFFCURVE",
"268.756 -138.818 CURVE SMOOTH",
"205.219 -138.818 OFFCURVE",
"149.345 -115.839 OFFCURVE",
"112.184 -74.746 CURVE",
"99.755 -89.288 LINE",
"134.987 -132.219 OFFCURVE",
"200.009 -157.571 OFFCURVE",
"269.957 -157.571 CURVE SMOOTH",
"387.574 -157.571 OFFCURVE",
"445.956 -96.248 OFFCURVE"
);
},
{
closed = 1;
nodes = (
"439.455 199.798 CURVE",
"426.11 206.318 LINE",
"426.11 102.847 OFFCURVE",
"362.929 33.174 OFFCURVE",
"259.378 33.174 CURVE SMOOTH",
"162.86 33.174 OFFCURVE",
"106.995 86.5 OFFCURVE",
"106.995 187.573 CURVE SMOOTH",
"106.995 413.802 LINE",
"87.149 413.802 LINE",
"87.149 186.638 LINE SMOOTH",
"87.149 73.868 OFFCURVE",
"152.998 13.895 OFFCURVE",
"258.977 13.895 CURVE SMOOTH",
"370.948 13.895 OFFCURVE",
"439.099 90.047 OFFCURVE"
);
}
);
width = 537.83454;
}
);
},
{
glyphname = z.ss01;
lastChange = "2017-08-14 19:06:31 +0000";
layers = (
{
anchors = (
{
name = bottom;
position = "{203.14, 0}";
},
{
name = top;
position = "{203.14, 413.802}";
}
);
layerId = "7C7516DB-6554-481F-A885-45E791722A73";
paths = (
{
closed = 1;
nodes = (
"364.461 0 LINE",
"364.461 18.273 LINE",
"53.023 18.273 LINE",
"63.176 12.305 LINE",
"360.309 399.061 LINE",
"360.309 413.802 LINE",
"45.162 413.802 LINE",
"45.162 395.529 LINE",
"345.184 395.529 LINE",
"338.196 401.497 LINE",
"41.063 14.742 LINE",
"41.063 0 LINE"
);
},
{
closed = 1;
nodes = (
"196.352 200.269 LINE",
"201.891 203.481 LINE",
"325.849 203.481 LINE",
"324.781 218.303 LINE",
"204.549 218.303 LINE",
"199.011 215.091 LINE",
"79.924 215.091 LINE",
"80.992 200.269 LINE"
);
}
);
width = 406.89303;
}
);
},
{
glyphname = a.sc;
lastChange = "2017-08-14 19:06:31 +0000";
layers = (
{
anchors = (
{
name = bottom;
position = "{236.042, 0}";
},
{
name = ogonek;
position = "{456.499, 0}";
},
{
name = top;
position = "{236.976, 447.192}";
},
{
name = topleft;
position = "{80.127, 447.192}";
}
);
layerId = "7C7516DB-6554-481F-A885-45E791722A73";
paths = (
{
closed = 1;
nodes = (
"39.199 0 LINE",
"236.167 425.036 LINE",
"435.383 0 LINE",
"457.638 0 LINE",
"246.934 447.192 LINE",
"225.612 447.192 LINE",
"16.313 0 LINE"
);
},
{
closed = 1;
nodes = (
"378.266 131.883 LINE",
"378.266 150.979 LINE",
"94.609 150.979 LINE",
"94.609 131.883 LINE"
);
}
);
width = 473.96884;
}
);
},
{
glyphname = ae.sc;
lastChange = "2017-08-14 19:06:31 +0000";
layers = (
{
anchors = (
{
name = bottom;
position = "{444.89, 0}";
},
{
name = ogonek;
position = "{614.719, 6.392}";
},
{
name = top;
position = "{398.785, 447.192}";
}
);
layerId = "7C7516DB-6554-481F-A885-45E791722A73";
paths = (
{
closed = 1;
nodes = (
"32.816 0 LINE",
"295.188 428.584 LINE",
"484.743 428.584 LINE",
"487.766 447.192 LINE",
"284.687 447.192 LINE",
"9.894 0 LINE"
);
},
{
closed = 1;
nodes = (
"327.389 138.587 LINE",
"328.252 156.98 LINE",
"109.278 156.98 LINE",
"108.416 138.587 LINE"
);
},
{
closed = 1;
nodes = (
"614.052 0 LINE",
"614.052 19.336 LINE",
"334.041 19.336 LINE",
"334.041 220.516 LINE",
"575.469 220.516 LINE",
"575.469 239.077 LINE",
"334.041 239.077 LINE",
"334.041 428.632 LINE",
"605.224 428.632 LINE",
"605.224 447.192 LINE",
"314.408 447.192 LINE",
"314.408 0 LINE"
);
}
);
width = 644.98982;
}
);
},
{
glyphname = b.sc;
lastChange = "2017-08-14 19:06:31 +0000";
layers = (
{
layerId = "7C7516DB-6554-481F-A885-45E791722A73";
paths = (
{
closed = 1;
nodes = (
"281.453 0 LINE",
"386.098 0 OFFCURVE",
"446.356 44.185 OFFCURVE",
"446.356 120.186 CURVE SMOOTH",
"446.356 183.139 OFFCURVE",
"404.395 224.855 OFFCURVE",
"332.75 232.988 CURVE",
"389.993 243.519 OFFCURVE",
"422.317 281.12 OFFCURVE",
"422.317 336.715 CURVE SMOOTH",
"422.317 407.027 OFFCURVE",
"370.007 447.192 OFFCURVE",
"281.168 447.192 CURVE SMOOTH",
"94.519 447.192 LINE",
"94.519 0 LINE"
);
},
{
closed = 1;
nodes = (
"114.134 222.378 LINE",
"280.163 222.378 LINE SMOOTH",
"373.232 222.378 OFFCURVE",
"426.581 185.64 OFFCURVE",
"426.581 121.608 CURVE SMOOTH",
"426.581 55.978 OFFCURVE",
"373.232 19.192 OFFCURVE",
"280.163 19.192 CURVE SMOOTH",
"114.134 19.192 LINE"
);
},
{
closed = 1;
nodes = (
"114.134 428.775 LINE",
"280.163 428.775 LINE SMOOTH",
"358.039 428.775 OFFCURVE",
"402.596 394.362 OFFCURVE",
"402.596 335.005 CURVE SMOOTH",
"402.596 274.848 OFFCURVE",
"358.039 240.411 OFFCURVE",
"280.163 240.411 CURVE SMOOTH",
"114.134 240.411 LINE"
);
}
);
width = 507.74135;
}
);
},
{
glyphname = c.sc;
lastChange = "2017-08-14 19:06:31 +0000";
layers = (
{
anchors = (
{
name = bottom;
position = "{279.38, 0}";
},
{
name = top;
position = "{287.79, 447.192}";
}
);
layerId = "7C7516DB-6554-481F-A885-45E791722A73";
paths = (
{
closed = 1;
nodes = (
"447.316 58.391 CURVE",
"434.823 71.63 LINE",
"395.396 37.321 OFFCURVE",
"343.851 16.523 OFFCURVE",
"287.773 16.523 CURVE SMOOTH",
"168.798 16.523 OFFCURVE",
"71.488 110.749 OFFCURVE",
"71.488 224.104 CURVE SMOOTH",
"71.488 338.209 OFFCURVE",
"168.798 431.636 OFFCURVE",
"287.773 431.636 CURVE SMOOTH",
"343.904 431.636 OFFCURVE",
"396.258 411.493 OFFCURVE",
"434.823 376.992 CURVE",
"447.316 390.591 LINE",
"405.087 427.872 OFFCURVE",
"348.679 450.628 OFFCURVE",
"287.719 450.628 CURVE SMOOTH",
"157.799 450.628 OFFCURVE",
"51.766 349.179 OFFCURVE",
"51.766 224.032 CURVE SMOOTH",
"51.766 99.611 OFFCURVE",
"157.745 -2.685 OFFCURVE",
"287.577 -2.685 CURVE SMOOTH",
"348.554 -2.685 OFFCURVE",
"404.981 20.966 OFFCURVE"
);
}
);
width = 480.56381;
}
);
},
{
glyphname = d.sc;
lastChange = "2017-08-14 19:06:31 +0000";
layers = (
{
anchors = (
{
name = bottom;
position = "{263.823, 0}";
},
{
name = center;
position = "{147.22, 224.008}";
},
{
name = top;
position = "{257.351, 447.192}";
}
);
layerId = "7C7516DB-6554-481F-A885-45E791722A73";
paths = (
{
closed = 1;
nodes = (
"275.566 0 LINE",
"405.772 0 OFFCURVE",
"511.697 99.587 OFFCURVE",
"511.697 223.233 CURVE SMOOTH",
"511.697 347.629 OFFCURVE",
"405.825 447.192 OFFCURVE",
"275.709 447.192 CURVE SMOOTH",
"94.519 447.192 LINE",
"94.519 0 LINE"
);
},
{
closed = 1;
nodes = (
"114.152 428.536 LINE",
"275.638 428.536 LINE SMOOTH",
"394.719 428.536 OFFCURVE",
"491.202 336.659 OFFCURVE",
"491.202 223.185 CURVE SMOOTH",
"491.202 110.486 OFFCURVE",
"394.808 19.432 OFFCURVE",
"276.607 19.432 CURVE SMOOTH",
"114.152 19.432 LINE"
);
}
);
width = 563.46366;
}
);
},
{
glyphname = e.sc;
lastChange = "2017-08-14 19:06:31 +0000";
layers = (
{
anchors = (
{
name = bottom;
position = "{244.727, 0}";
},
{
name = ogonek;
position = "{394.954, 0}";
},
{
name = top;
position = "{243.092, 447.192}";
},
{
name = topleft;
position = "{35.009, 447.192}";
}
);
layerId = "7C7516DB-6554-481F-A885-45E791722A73";
paths = (
{
closed = 1;
nodes = (
"394.954 0 LINE",
"394.954 19.336 LINE",
"114.152 19.336 LINE",
"114.152 220.516 LINE",
"356.371 220.516 LINE",
"356.371 239.077 LINE",
"114.152 239.077 LINE",
"114.152 428.632 LINE",
"386.126 428.632 LINE",
"386.126 447.192 LINE",
"94.519 447.192 LINE",
"94.519 0 LINE"
);
}
);
width = 425.89159;
}
);
},
{
glyphname = f.sc;
lastChange = "2017-08-14 19:06:31 +0000";
layers = (
{
layerId = "7C7516DB-6554-481F-A885-45E791722A73";
paths = (
{
closed = 1;
nodes = (
"114.152 0 LINE",
"114.152 203.449 LINE",
"337.151 203.449 LINE",
"337.151 222.785 LINE",
"114.152 222.785 LINE",
"114.152 428.632 LINE",
"365.919 428.632 LINE",
"365.901 447.192 LINE",
"94.519 447.192 LINE",
"94.519 0 LINE"
);
}
);
width = 387.02399;
}
);
},
{
glyphname = g.sc;
lastChange = "2017-08-14 19:06:31 +0000";
layers = (
{
anchors = (
{
name = bottom;
position = "{269.593, 0}";
},
{
name = top;
position = "{269.842, 447.192}";
}
);
layerId = "7C7516DB-6554-481F-A885-45E791722A73";
paths = (
{
closed = 1;
nodes = (
"448.285 56.513 CURVE",
"435.054 70.184 LINE",
"396.329 36.962 OFFCURVE",
"343.904 16.308 OFFCURVE",
"288.777 16.308 CURVE SMOOTH",
"168.887 16.308 OFFCURVE",
"71.488 109.807 OFFCURVE",
"71.488 224.759 CURVE SMOOTH",
"71.488 338.137 OFFCURVE",
"168.869 431.636 OFFCURVE",
"287.951 431.636 CURVE SMOOTH",
"344.153 431.636 OFFCURVE",
"396.578 411.661 OFFCURVE",
"435.25 377.448 CURVE",
"447.671 391.047 LINE",
"405.39 428.04 OFFCURVE",
"348.964 450.628 OFFCURVE",
"287.968 450.628 CURVE SMOOTH",
"157.905 450.628 OFFCURVE",
"51.766 349.155 OFFCURVE",
"51.766 224.759 CURVE SMOOTH",
"51.766 99.587 OFFCURVE",
"157.799 -2.685 OFFCURVE",
"287.719 -2.685 CURVE SMOOTH",
"348.572 -2.685 OFFCURVE",
"405.95 19.807 OFFCURVE"
);
},
{
closed = 1;
nodes = (
"448.285 56.513 LINE",
"448.285 219.813 LINE",
"429.204 219.813 LINE",
"429.204 56.513 LINE"
);
}
);
width = 517.95579;
}
);
},
{
glyphname = h.sc;
lastChange = "2017-08-14 19:06:31 +0000";
layers = (
{
anchors = (
{
name = bottom;
position = "{275.38, 0}";
},
{
name = center;
position = "{275.363, 344.481}";
},
{
name = top;
position = "{275.541, 447.192}";
}
);
layerId = "7C7516DB-6554-481F-A885-45E791722A73";
paths = (
{
closed = 1;
nodes = (
"114.152 0 LINE",
"114.152 215.674 LINE",
"435.009 215.674 LINE",
"435.009 0 LINE",
"455.415 0 LINE",
"455.415 447.192 LINE",
"435.009 447.192 LINE",
"435.009 235.01 LINE",
"114.152 235.01 LINE",
"114.152 447.192 LINE",
"94.519 447.192 LINE",
"94.519 0 LINE"
);
}
);
width = 549.93394;
}
);
},
{
glyphname = i.sc;
lastChange = "2017-08-14 19:06:31 +0000";
layers = (
{
anchors = (
{
name = bottom;
position = "{108.291, 0}";
},
{
name = ogonek;
position = "{117.235, 0}";
},
{
name = top;
position = "{108.291, 447.192}";
},
{
name = topleft;
position = "{38.965, 447.192}";
}
);
layerId = "7C7516DB-6554-481F-A885-45E791722A73";
paths = (
{
closed = 1;
nodes = (
"118.108 0 LINE",
"118.108 447.192 LINE",
"98.475 447.192 LINE",
"98.475 0 LINE"
);
}
);
width = 216.58225;
}
);
},
{
glyphname = j.sc;
lastChange = "2017-08-14 19:06:31 +0000";
layers = (
{
anchors = (
{
name = top;
position = "{162.326, 447.192}";
}
);
layerId = "7C7516DB-6554-481F-A885-45E791722A73";
paths = (
{
closed = 1;
nodes = (
"252.811 127.273 CURVE",
"252.811 447.192 LINE",
"61.884 447.192 LINE",
"61.884 428.464 LINE",
"232.369 428.464 LINE",
"232.369 128.144 LINE",
"232.369 56.969 OFFCURVE",
"198.08 19.504 OFFCURVE",
"135.975 19.504 CURVE",
"95.934 19.504 OFFCURVE",
"59.494 39.335 OFFCURVE",
"31.739 77.663 CURVE",
"19.744 62.753 LINE",
"49.349 22.396 OFFCURVE",
"91.089 -0.216 OFFCURVE",
"136.367 -0.216 CURVE",
"210.858 -0.216 OFFCURVE",
"252.811 45.008 OFFCURVE"
);
}
);
width = 341.57760;
}
);
},
{
glyphname = k.sc;
lastChange = "2017-08-14 19:06:31 +0000";
layers = (
{
anchors = (
{
name = bottom;
position = "{234.042, 0}";
},
{
name = top;
position = "{234.042, 447.192}";
}
);
layerId = "7C7516DB-6554-481F-A885-45E791722A73";
paths = (
{
closed = 1;
nodes = (
"114.152 0 LINE",
"114.152 121.136 LINE",
"422.719 447.192 LINE",
"396.996 447.192 LINE",
"114.152 149.677 LINE",
"114.152 447.192 LINE",
"94.519 447.192 LINE",
"94.519 0 LINE"
);
},
{
closed = 1;
nodes = (
"437.174 0 LINE",
"228.123 253.874 LINE",
"216.084 235.897 LINE",
"411.273 0 LINE"
);
}
);
width = 451.13077;
}
);
},
{
glyphname = l.sc;
lastChange = "2017-08-14 19:06:31 +0000";
layers = (
{
anchors = (
{
name = bottom;
position = "{206.989, 0}";
},
{
name = center;
position = "{265.816, 250.391}";
},
{
name = top;
position = "{110.54, 447.192}";
},
{
name = topright;
position = "{301.108, 447.192}";
}
);
layerId = "7C7516DB-6554-481F-A885-45E791722A73";
paths = (
{
closed = 1;
nodes = (
"318.651 0 LINE",
"318.651 19.743 LINE",
"114.152 19.743 LINE",
"114.152 447.192 LINE",
"94.519 447.192 LINE",
"94.519 0 LINE"
);
}
);
width = 325.01576;
}
);
},
{
glyphname = m.sc;
lastChange = "2017-08-14 19:06:31 +0000";
layers = (
{
anchors = (
{
name = bottom;
position = "{312.861, 0}";
}
);
layerId = "7C7516DB-6554-481F-A885-45E791722A73";
paths = (
{
closed = 1;
nodes = (
"113.653 0 LINE",
"113.653 423.941 LINE",
"310.033 48.619 LINE",
"316.481 48.619 LINE",
"512.07 423.941 LINE",
"512.07 0 LINE",
"531.204 0 LINE",
"531.204 447.192 LINE",
"501.899 447.192 LINE",
"313.653 85.421 LINE",
"124.615 447.192 LINE",
"94.519 447.192 LINE",
"94.519 0 LINE"
);
}
);
width = 625.72268;
}
);
},
{
glyphname = n.sc;
lastChange = "2017-08-14 19:06:31 +0000";
layers = (
{
anchors = (
{
name = bottom;
position = "{272.358, 0}";
},
{
name = top;
position = "{284.839, 447.192}";
}
);
layerId = "7C7516DB-6554-481F-A885-45E791722A73";
paths = (
{
closed = 1;
nodes = (
"113.778 0 LINE",
"113.778 421.84 LINE",
"430.129 0 LINE",
"455.415 0 LINE",
"455.415 447.192 LINE",
"435.383 447.192 LINE",
"435.383 25.304 LINE",
"119.805 447.192 LINE",
"94.519 447.192 LINE",
"94.519 0 LINE"
);
}
);
width = 549.93394;
}
);
},
{
glyphname = eng.sc;
lastChange = "2017-08-14 19:06:31 +0000";
layers = (
{
anchors = (
{
name = bottom;
position = "{275.38, 0}";
},
{
name = top;
position = "{275.38, 447.192}";
}
);
layerId = "7C7516DB-6554-481F-A885-45E791722A73";
paths = (
{
closed = 1;
nodes = (
"113.778 0 LINE",
"113.778 421.84 LINE",
"430.129 0 LINE",
"455.415 0 LINE",
"455.415 447.192 LINE",
"435.383 447.192 LINE",
"435.383 25.304 LINE",
"119.805 447.192 LINE",
"94.519 447.192 LINE",
"94.519 0 LINE"
);
},
{
closed = 1;
nodes = (
"455.415 0 CURVE",
"435.472 3.044 LINE",
"435.472 -69.002 OFFCURVE",
"401.237 -106.539 OFFCURVE",
"338.989 -106.539 CURVE SMOOTH",
"299.144 -106.539 OFFCURVE",
"263.13 -87.067 OFFCURVE",
"236.451 -50.449 CURVE",
"224.182 -65.957 LINE",
"253.431 -104.341 OFFCURVE",
"294.565 -126.258 OFFCURVE",
"338.989 -126.258 CURVE SMOOTH",
"413.338 -126.258 OFFCURVE",
"455.255 -81.202 OFFCURVE"
);
}
);
width = 549.93394;
}
);
},
{
glyphname = o.sc;
lastChange = "2017-08-14 19:06:31 +0000";
layers = (
{
anchors = (
{
name = bottom;
position = "{279.896, 0}";
},
{
name = center;
position = "{279.896, 224.783}";
},
{
name = ogonek;
position = "{400.767, 29.947}";
},
{
name = top;
position = "{279.896, 447.192}";
},
{
name = topleft;
position = "{24.99, 449.685}";
},
{
name = topright;
position = "{399.646, 447.192}";
}
);
layerId = "7C7516DB-6554-481F-A885-45E791722A73";
paths = (
{
closed = 1;
nodes = (
"516.712 224.783 CURVE SMOOTH",
"516.712 349.179 OFFCURVE",
"409.852 450.628 OFFCURVE",
"279.896 450.628 CURVE SMOOTH",
"149.922 450.628 OFFCURVE",
"43.854 349.179 OFFCURVE",
"43.854 224.783 CURVE SMOOTH",
"43.854 99.587 OFFCURVE",
"149.922 -2.685 OFFCURVE",
"279.896 -2.685 CURVE SMOOTH",
"409.852 -2.685 OFFCURVE",
"516.712 99.611 OFFCURVE"
);
},
{
closed = 1;
nodes = (
"63.576 224.759 CURVE SMOOTH",
"63.576 338.161 OFFCURVE",
"161.802 430.861 OFFCURVE",
"279.95 430.861 CURVE SMOOTH",
"398.853 430.861 OFFCURVE",
"496.199 338.161 OFFCURVE",
"496.199 224.759 CURVE SMOOTH",
"496.199 110.606 OFFCURVE",
"398.853 17.083 OFFCURVE",
"279.95 17.083 CURVE SMOOTH",
"161.819 17.083 OFFCURVE",
"63.576 110.606 OFFCURVE"
);
}
);
width = 560.56582;
}
);
},
{
glyphname = p.sc;
lastChange = "2017-08-14 19:06:31 +0000";
layers = (
{
layerId = "7C7516DB-6554-481F-A885-45E791722A73";
paths = (
{
closed = 1;
nodes = (
"114.152 0 LINE",
"114.152 151.506 LINE",
"253.084 151.506 LINE SMOOTH",
"365.011 151.506 OFFCURVE",
"428.291 206.198 OFFCURVE",
"428.291 301.079 CURVE SMOOTH",
"428.291 394.219 OFFCURVE",
"365.011 447.192 OFFCURVE",
"253.084 447.192 CURVE SMOOTH",
"94.519 447.192 LINE",
"94.519 0 LINE"
);
},
{
closed = 1;
nodes = (
"114.152 428.632 LINE",
"252.871 428.632 LINE SMOOTH",
"352.358 428.632 OFFCURVE",
"408.872 382.377 OFFCURVE",
"408.872 300.935 CURVE SMOOTH",
"408.872 217.895 OFFCURVE",
"352.358 170.067 OFFCURVE",
"252.871 170.067 CURVE SMOOTH",
"114.152 170.067 LINE"
);
}
);
width = 470.42056;
}
);
},
{
glyphname = thorn.sc;
lastChange = "2017-08-14 19:06:31 +0000";
layers = (
{
layerId = "7C7516DB-6554-481F-A885-45E791722A73";
paths = (
{
closed = 1;
nodes = (
"234.184 89.52 LINE",
"364.238 89.52 OFFCURVE",
"429.296 138.155 OFFCURVE",
"429.296 235.17 CURVE SMOOTH",
"429.296 329.619 OFFCURVE",
"364.238 376.561 OFFCURVE",
"234.184 376.561 CURVE SMOOTH",
"107.11 376.561 LINE",
"110 357.976 LINE",
"234.024 357.976 LINE SMOOTH",
"351.496 357.976 OFFCURVE",
"408.765 317.123 OFFCURVE",
"408.765 234.227 CURVE SMOOTH",
"408.765 149.733 OFFCURVE",
"351.496 108.105 OFFCURVE",
"234.024 108.105 CURVE SMOOTH",
"110.791 108.105 LINE",
"110.791 89.52 LINE"
);
},
{
closed = 1;
nodes = (
"114.152 0 LINE",
"114.152 447.192 LINE",
"94.519 447.192 LINE",
"94.519 0 LINE"
);
}
);
width = 470.58075;
}
);
},
{
glyphname = q.sc;
lastChange = "2017-08-14 19:06:31 +0000";
layers = (
{
anchors = (
{
name = bottom;
position = "{287.862, 0}";
},
{
name = center;
position = "{287.808, 224.783}";
},
{
name = ogonek;
position = "{409.488, 0}";
},
{
name = top;
position = "{287.63, 447.192}";
},
{
name = topleft;
position = "{43.374, 447.192}";
},
{
name = topright;
position = "{347.55, 440.72}";
}
);
layerId = "7C7516DB-6554-481F-A885-45E791722A73";
paths = (
{
closed = 1;
nodes = (
"524.624 224.783 CURVE SMOOTH",
"524.624 349.179 OFFCURVE",
"417.764 450.628 OFFCURVE",
"287.808 450.628 CURVE SMOOTH",
"157.834 450.628 OFFCURVE",
"51.766 349.179 OFFCURVE",
"51.766 224.783 CURVE SMOOTH",
"51.766 99.587 OFFCURVE",
"157.834 -2.685 OFFCURVE",
"287.808 -2.685 CURVE SMOOTH",
"417.764 -2.685 OFFCURVE",
"524.624 99.611 OFFCURVE"
);
},
{
closed = 1;
nodes = (
"550.369 -33.087 CURVE",
"538.838 -19.24 LINE",
"506.62 -48.467 OFFCURVE",
"475.105 -63.552 OFFCURVE",
"444.647 -63.552 CURVE SMOOTH",
"403.833 -63.552 OFFCURVE",
"363.108 -38.224 OFFCURVE",
"314.72 12.025 CURVE",
"299.142 1.502 LINE",
"350.242 -53.357 OFFCURVE",
"396.675 -81.146 OFFCURVE",
"443.447 -81.146 CURVE SMOOTH",
"479.381 -81.146 OFFCURVE",
"514.738 -64.999 OFFCURVE"
);
},
{
closed = 1;
nodes = (
"71.488 224.759 CURVE SMOOTH",
"71.488 338.161 OFFCURVE",
"169.714 430.861 OFFCURVE",
"287.862 430.861 CURVE SMOOTH",
"406.765 430.861 OFFCURVE",
"504.111 338.161 OFFCURVE",
"504.111 224.759 CURVE SMOOTH",
"504.111 110.606 OFFCURVE",
"406.765 17.083 OFFCURVE",
"287.862 17.083 CURVE SMOOTH",
"169.731 17.083 OFFCURVE",
"71.488 110.606 OFFCURVE"
);
}
);
width = 575.70544;
}
);
},
{
glyphname = r.sc;
lastChange = "2017-08-14 19:06:31 +0000";
layers = (
{
anchors = (
{
name = bottom;
position = "{249.581, 0}";
},
{
name = top;
position = "{236.495, 447.192}";
}
);
layerId = "7C7516DB-6554-481F-A885-45E791722A73";
paths = (
{
closed = 1;
nodes = (
"114.152 0 LINE",
"114.152 151.506 LINE",
"253.245 151.506 LINE SMOOTH",
"365.296 151.506 OFFCURVE",
"429.456 206.198 OFFCURVE",
"429.456 301.079 CURVE SMOOTH",
"429.456 394.219 OFFCURVE",
"365.296 447.192 OFFCURVE",
"253.245 447.192 CURVE SMOOTH",
"94.519 447.192 LINE",
"94.519 0 LINE"
);
},
{
closed = 1;
nodes = (
"429.901 0 LINE",
"309.645 162.628 LINE",
"286.99 162.628 LINE",
"406.623 0 LINE"
);
},
{
closed = 1;
nodes = (
"114.152 428.632 LINE",
"253.245 428.632 LINE SMOOTH",
"352.714 428.632 OFFCURVE",
"410.019 382.377 OFFCURVE",
"410.019 300.935 CURVE SMOOTH",
"410.019 217.895 OFFCURVE",
"352.714 170.067 OFFCURVE",
"253.245 170.067 CURVE SMOOTH",
"114.152 170.067 LINE"
);
}
);
width = 487.83672;
}
);
},
{
glyphname = s.sc;
lastChange = "2017-08-14 19:06:31 +0000";
layers = (
{
anchors = (
{
name = bottom;
position = "{209.487, 0}";
},
{
name = top;
position = "{212.937, 447.192}";
}
);
layerId = "7C7516DB-6554-481F-A885-45E791722A73";
paths = (
{
closed = 1;
nodes = (
"356.674 109.791 CURVE",
"357.465 277.7 OFFCURVE",
"84.646 202.291 OFFCURVE",
"84.646 348.004 CURVE",
"84.646 398.693 OFFCURVE",
"134.669 431.34 OFFCURVE",
"212.456 431.34 CURVE",
"252.169 431.34 OFFCURVE",
"298.993 418.756 OFFCURVE",
"329.318 399.364 CURVE",
"338.583 416.423 LINE",
"305.707 436.805 OFFCURVE",
"257.228 450.7 OFFCURVE",
"212.795 450.7 CURVE",
"122.95 450.7 OFFCURVE",
"64.168 409.328 OFFCURVE",
"64.168 347.501 CURVE",
"64.168 183.634 OFFCURVE",
"336.987 258.365 OFFCURVE",
"336.196 109.527 CURVE",
"336.196 53.317 OFFCURVE",
"282.145 16.747 OFFCURVE",
"199.486 16.747 CURVE",
"144.635 16.747 OFFCURVE",
"86.519 40.254 OFFCURVE",
"50.621 77.127 CURVE",
"38.947 61.667 LINE",
"78.384 23.003 OFFCURVE",
"139.842 -2.613 OFFCURVE",
"199.469 -2.613 CURVE",
"294.406 -2.613 OFFCURVE",
"356.674 41.404 OFFCURVE"
);
}
);
width = 403.16839;
}
);
},
{
glyphname = germandbls.sc;
lastChange = "2017-08-14 19:06:31 +0000";
layers = (
{
layerId = "7C7516DB-6554-481F-A885-45E791722A73";
paths = (
{
closed = 1;
nodes = (
"104.248 0 LINE",
"104.248 289.182 LINE SMOOTH",
"104.248 379.453 OFFCURVE",
"165.18 428.656 OFFCURVE",
"259.157 428.656 CURVE SMOOTH",
"315.555 428.656 OFFCURVE",
"354.947 414.178 OFFCURVE",
"385.511 394.93 CURVE",
"386.738 406.763 LINE",
"254.507 247.634 LINE",
"254.507 230.44 LINE",
"259.414 230.44 LINE",
"351.167 230.44 OFFCURVE",
"403.023 189.778 OFFCURVE",
"403.023 127.177 CURVE SMOOTH",
"403.023 61.427 OFFCURVE",
"348.776 19.192 OFFCURVE",
"264.952 19.192 CURVE SMOOTH",
"209.861 19.192 LINE",
"209.861 0 LINE",
"265.682 0 LINE SMOOTH",
"362.034 0 OFFCURVE",
"422.798 49.754 OFFCURVE",
"422.798 126.602 CURVE SMOOTH",
"422.798 193.398 OFFCURVE",
"370.737 247.634 OFFCURVE",
"261.647 247.634 CURVE",
"268.92 237.239 LINE",
"396.483 390.687 LINE",
"396.483 408.864 LINE",
"366.105 429.103 OFFCURVE",
"321.201 447.408 OFFCURVE",
"258.783 447.408 CURVE SMOOTH",
"153.176 447.408 OFFCURVE",
"84.633 391.126 OFFCURVE",
"84.633 288.703 CURVE SMOOTH",
"84.633 0 LINE"
);
}
);
width = 473.75526;
}
);
},
{
glyphname = schwa.sc;
lastChange = "2017-08-14 19:06:31 +0000";
layers = (
{
layerId = "7C7516DB-6554-481F-A885-45E791722A73";
paths = (
{
closed = 1;
nodes = (
"500.745 224.783 CURVE SMOOTH",
"500.745 349.179 OFFCURVE",
"397.878 450.628 OFFCURVE",
"271.157 450.628 CURVE SMOOTH",
"200.614 450.628 OFFCURVE",
"137.352 421.137 OFFCURVE",
"94.404 373.269 CURVE",
"107.11 358.967 LINE",
"147.204 403.351 OFFCURVE",
"205.567 430.861 OFFCURVE",
"271.193 430.861 CURVE SMOOTH",
"387.634 430.861 OFFCURVE",
"481.006 337.601 OFFCURVE",
"481.006 221.611 CURVE SMOOTH",
"481.006 106.682 OFFCURVE",
"383.1 17.083 OFFCURVE",
"271.175 17.083 CURVE SMOOTH",
"161.562 17.083 OFFCURVE",
"69.88 101.849 OFFCURVE",
"63.141 208.403 CURVE",
"484.259 208.403 LINE",
"485.157 225.789 LINE",
"41.605 225.789 LINE",
"41.605 99.779 OFFCURVE",
"144.295 -2.685 OFFCURVE",
"271.157 -2.685 CURVE SMOOTH",
"397.878 -2.685 OFFCURVE",
"500.745 99.611 OFFCURVE"
);
}
);
width = 547.09759;
}
);
},
{
glyphname = t.sc;
lastChange = "2017-08-14 19:06:31 +0000";
layers = (
{
anchors = (
{
name = bottom;
position = "{172.54, 0}";
},
{
name = center;
position = "{172.558, 222.058}";
},
{
name = top;
position = "{172.825, 447.192}";
}
);
layerId = "7C7516DB-6554-481F-A885-45E791722A73";
paths = (
{
closed = 1;
nodes = (
"182.357 0 LINE",
"182.357 428.464 LINE",
"338.787 428.464 LINE",
"338.787 447.192 LINE",
"6.33 447.192 LINE",
"6.33 428.464 LINE",
"162.742 428.464 LINE",
"162.742 0 LINE"
);
}
);
width = 345.11617;
}
);
},
{
glyphname = u.sc;
lastChange = "2017-08-14 19:06:31 +0000";
layers = (
{
anchors = (
{
name = bottom;
position = "{265.405, 0}";
},
{
name = ogonek;
position = "{381.351, 29.947}";
},
{
name = top;
position = "{265.405, 447.192}";
},
{
name = topright;
position = "{440.078, 447.192}";
}
);
layerId = "7C7516DB-6554-481F-A885-45E791722A73";
paths = (
{
closed = 1;
nodes = (
"449.236 180.182 CURVE SMOOTH",
"449.236 447.192 LINE",
"428.812 447.192 LINE",
"428.812 180.182 LINE SMOOTH",
"428.812 76.728 OFFCURVE",
"368.92 17.083 OFFCURVE",
"265.459 17.083 CURVE SMOOTH",
"162.753 17.083 OFFCURVE",
"101.981 76.752 OFFCURVE",
"101.981 180.182 CURVE SMOOTH",
"101.981 447.192 LINE",
"82.348 447.192 LINE",
"82.348 180.182 LINE SMOOTH",
"82.348 64.088 OFFCURVE",
"149.273 -2.685 OFFCURVE",
"265.441 -2.685 CURVE SMOOTH",
"381.591 -2.685 OFFCURVE",
"449.236 64.088 OFFCURVE"
);
}
);
width = 532.37540;
}
);
},
{
glyphname = v.sc;
lastChange = "2017-08-14 19:06:31 +0000";
layers = (
{
layerId = "7C7516DB-6554-481F-A885-45E791722A73";
paths = (
{
closed = 1;
nodes = (
"231.528 0 LINE",
"422.22 447.192 LINE",
"400.143 447.192 LINE",
"220.973 23.147 LINE",
"41.786 447.192 LINE",
"19.531 447.192 LINE",
"210.188 0 LINE"
);
}
);
width = 441.73342;
}
);
},
{
glyphname = w.sc;
lastChange = "2017-08-14 19:06:31 +0000";
layers = (
{
anchors = (
{
name = bottom;
position = "{346.493, 0}";
},
{
name = top;
position = "{346.493, 447.192}";
}
);
layerId = "7C7516DB-6554-481F-A885-45E791722A73";
paths = (
{
closed = 1;
nodes = (
"201.862 0 LINE",
"346.493 420.034 LINE",
"490.28 0 LINE",
"510.793 0 LINE",
"666.245 447.192 LINE",
"644.168 447.192 LINE",
"501.065 23.147 LINE",
"357.118 447.192 LINE",
"335.219 447.192 LINE",
"192.099 23.147 LINE",
"48.169 447.192 LINE",
"25.914 447.192 LINE",
"181.331 0 LINE"
);
}
);
width = 692.14158;
}
);
},
{
glyphname = x.sc;
lastChange = "2017-08-14 19:06:31 +0000";
layers = (
{
layerId = "7C7516DB-6554-481F-A885-45E791722A73";
paths = (
{
closed = 1;
nodes = (
"42.951 0 LINE",
"201.913 214.795 LINE",
"361.72 0 LINE",
"386.056 0 LINE",
"214.637 232.07 LINE",
"373.077 447.192 LINE",
"349.603 447.192 LINE",
"201.913 248.209 LINE",
"55.806 447.192 LINE",
"31.595 447.192 LINE",
"190.105 231.055 LINE",
"19.513 0 LINE"
);
}
);
width = 405.55171;
}
);
},
{
glyphname = y.sc;
lastChange = "2017-08-14 19:06:31 +0000";
layers = (
{
anchors = (
{
name = bottom;
position = "{204.722, 0}";
},
{
name = top;
position = "{203.122, 447.192}";
}
);
layerId = "7C7516DB-6554-481F-A885-45E791722A73";
paths = (
{
closed = 1;
nodes = (
"208.182 158.665 LINE",
"397.879 447.192 LINE",
"375.117 447.192 LINE",
"204.722 190.274 LINE",
"31.109 447.192 LINE",
"9.121 447.192 LINE",
"201.227 158.665 LINE"
);
},
{
closed = 1;
nodes = (
"214.539 0 LINE",
"214.539 178.457 LINE",
"194.906 178.457 LINE",
"194.906 0 LINE"
);
}
);
width = 406.99982;
}
);
},
{
glyphname = z.sc;
lastChange = "2017-08-14 19:06:31 +0000";
layers = (
{
anchors = (
{
name = bottom;
position = "{203.211, 0}";
},
{
name = top;
position = "{207.185, 447.192}";
}
);
layerId = "7C7516DB-6554-481F-A885-45E791722A73";
paths = (
{
closed = 1;
nodes = (
"383.735 0 LINE",
"383.735 19.384 LINE",
"45.131 19.384 LINE",
"382.045 426.978 LINE",
"382.045 447.192 LINE",
"31.551 447.192 LINE",
"31.551 428.584 LINE",
"359.567 428.584 LINE",
"22.67 20.215 LINE",
"22.67 0 LINE"
);
}
);
width = 408.79580;
}
);
},
{
glyphname = a.sc.ss01;
lastChange = "2017-08-14 19:06:31 +0000";
layers = (
{
anchors = (
{
name = bottom;
position = "{266.25, 0}";
},
{
name = ogonek;
position = "{449.28, 0}";
},
{
name = top;
position = "{266.25, 447.192}";
},
{
name = topleft;
position = "{59.625, 447.192}";
}
);
layerId = "7C7516DB-6554-481F-A885-45E791722A73";
paths = (
{
closed = 1;
nodes = (
"102.772 0 LINE",
"102.772 140.736 LINE",
"430.501 140.736 LINE",
"430.501 0 LINE",
"450.116 0 LINE",
"450.116 267.737 LINE SMOOTH",
"450.116 382.282 OFFCURVE",
"382.435 450.628 OFFCURVE",
"266.197 450.628 CURVE SMOOTH",
"150.802 450.628 OFFCURVE",
"83.139 382.282 OFFCURVE",
"83.139 267.737 CURVE SMOOTH",
"83.139 0 LINE"
);
},
{
closed = 1;
nodes = (
"102.772 267.737 LINE",
"102.772 370.392 OFFCURVE",
"163.42 430.861 OFFCURVE",
"266.232 430.861 CURVE SMOOTH",
"369.836 430.861 OFFCURVE",
"430.501 370.392 OFFCURVE",
"430.501 267.737 CURVE SMOOTH",
"430.501 159.832 LINE",
"102.772 159.832 LINE"
);
}
);
width = 533.25560;
}
);
},
{
glyphname = e.sc.ss01;
lastChange = "2017-08-14 19:06:31 +0000";
layers = (
{
anchors = (
{
name = bottom;
position = "{227.143, 0}";
},
{
name = ogonek;
position = "{363.252, 29.947}";
},
{
name = top;
position = "{229.534, 447.192}";
},
{
name = topleft;
position = "{41.952, 449.685}";
}
);
layerId = "7C7516DB-6554-481F-A885-45E791722A73";
paths = (
{
closed = 1;
nodes = (
"363.252 29.947 CURVE",
"353.916 47.564 LINE",
"321.485 29.891 OFFCURVE",
"267.771 16.915 OFFCURVE",
"228.743 16.915 CURVE SMOOTH",
"142.528 16.915 OFFCURVE",
"79.436 60.652 OFFCURVE",
"79.436 121.608 CURVE SMOOTH",
"79.436 183.267 OFFCURVE",
"143.159 227.659 OFFCURVE",
"230.868 227.659 CURVE SMOOTH",
"305.084 227.659 LINE",
"305.084 246.028 LINE",
"230.868 246.028 LINE SMOOTH",
"154.556 246.028 OFFCURVE",
"99.536 284.196 OFFCURVE",
"99.536 337.354 CURVE SMOOTH",
"99.536 391.31 OFFCURVE",
"153.783 431.1 OFFCURVE",
"230.646 431.1 CURVE SMOOTH",
"266.366 431.1 OFFCURVE",
"309.35 422.264 OFFCURVE",
"333.958 410.159 CURVE",
"342.272 427.05 LINE",
"315.165 440.145 OFFCURVE",
"268.358 450.7 OFFCURVE",
"229.517 450.7 CURVE SMOOTH",
"142.766 450.7 OFFCURVE",
"80.117 403.535 OFFCURVE",
"80.117 339.136 CURVE SMOOTH",
"80.117 288.942 OFFCURVE",
"122.585 246.715 OFFCURVE",
"182.023 237.543 CURVE",
"111.045 229.121 OFFCURVE",
"59.678 179.847 OFFCURVE",
"59.678 120.066 CURVE SMOOTH",
"59.678 49.25 OFFCURVE",
"130.417 -2.685 OFFCURVE",
"227.596 -2.685 CURVE SMOOTH",
"273.825 -2.685 OFFCURVE",
"330.358 11.114 OFFCURVE"
);
}
);
width = 390.98000;
}
);
},
{
glyphname = f.sc.ss01;
lastChange = "2017-08-14 19:06:31 +0000";
layers = (
{
layerId = "7C7516DB-6554-481F-A885-45E791722A73";
paths = (
{
closed = 1;
nodes = (
"107.608 0 LINE",
"107.608 319.584 LINE SMOOTH",
"107.608 385.382 OFFCURVE",
"150.689 428.44 OFFCURVE",
"216.893 428.44 CURVE SMOOTH",
"252.525 428.44 OFFCURVE",
"295.651 417.957 OFFCURVE",
"325.868 402.728 CURVE",
"333.052 421.648 LINE",
"300.425 437.724 OFFCURVE",
"256.854 447.408 OFFCURVE",
"215.728 447.408 CURVE SMOOTH",
"137.93 447.408 OFFCURVE",
"87.958 397.295 OFFCURVE",
"87.958 319.704 CURVE SMOOTH",
"87.958 0 LINE"
);
},
{
closed = 1;
nodes = (
"298.807 201.899 LINE",
"298.807 221.235 LINE",
"98.955 221.235 LINE",
"98.955 201.899 LINE"
);
}
);
width = 356.12181;
}
);
},
{
glyphname = g.sc.ss01;
lastChange = "2017-08-14 19:06:31 +0000";
layers = (
{
anchors = (
{
name = bottom;
position = "{269.753, 0.072}";
},
{
name = top;
position = "{269.824, 447.192}";
}
);
layerId = "7C7516DB-6554-481F-A885-45E791722A73";
paths = (
{
closed = 1;
nodes = (
"446.532 65.238 CURVE",
"433.676 78.022 LINE",
"396.276 39.646 OFFCURVE",
"344.011 16.308 OFFCURVE",
"287.755 16.308 CURVE SMOOTH",
"168.798 16.308 OFFCURVE",
"71.506 109.807 OFFCURVE",
"71.506 224.759 CURVE SMOOTH",
"71.506 338.137 OFFCURVE",
"168.887 431.636 OFFCURVE",
"287.968 431.636 CURVE SMOOTH",
"344.171 431.636 OFFCURVE",
"396.596 411.661 OFFCURVE",
"435.268 377.448 CURVE",
"447.689 391.047 LINE",
"405.39 428.04 OFFCURVE",
"348.928 450.628 OFFCURVE",
"287.915 450.628 CURVE SMOOTH",
"157.905 450.628 OFFCURVE",
"51.784 349.155 OFFCURVE",
"51.784 224.759 CURVE SMOOTH",
"51.784 99.587 OFFCURVE",
"157.639 -2.685 OFFCURVE",
"287.31 -2.685 CURVE SMOOTH",
"348.287 -2.685 OFFCURVE",
"404.642 23.65 OFFCURVE"
);
},
{
closed = 1;
nodes = (
"448.302 0 LINE",
"448.302 220.564 LINE",
"429.221 220.564 LINE",
"429.221 55.922 LINE",
"430.511 52.271 LINE",
"430.511 0 LINE"
);
}
);
width = 522.00079;
}
);
},
{
glyphname = i.sc.ss01;
lastChange = "2017-08-14 19:06:31 +0000";
layers = (
{
anchors = (
{
name = bottom;
position = "{133.868, 0}";
},
{
name = ogonek;
position = "{142.795, 0}";
},
{
name = top;
position = "{133.868, 447.192}";
},
{
name = topleft;
position = "{-2.516, 447.192}";
}
);
layerId = "7C7516DB-6554-481F-A885-45E791722A73";
paths = (
{
closed = 1;
nodes = (
"143.685 0 LINE",
"143.685 447.192 LINE",
"124.052 447.192 LINE",
"124.052 0 LINE"
);
},
{
closed = 1;
nodes = (
"243.289 0 LINE",
"243.289 19.336 LINE",
"24.43 19.336 LINE",
"24.43 0 LINE"
);
},
{
closed = 1;
nodes = (
"243.289 428.632 LINE",
"243.289 447.192 LINE",
"24.43 447.192 LINE",
"24.43 428.632 LINE"
);
}
);
width = 267.71914;
}
);
},
{
glyphname = j.sc.ss01;
lastChange = "2017-08-14 19:06:31 +0000";
layers = (
{
anchors = (
{
name = top;
position = "{149.311, 447.192}";
}
);
layerId = "7C7516DB-6554-481F-A885-45E791722A73";
paths = (
{
closed = 1;
nodes = (
"241.627 63.281 CURVE",
"241.627 447.192 LINE",
"51.491 447.192 LINE",
"51.491 428.464 LINE",
"221.994 428.464 LINE",
"221.994 64.152 LINE",
"221.994 -7.023 OFFCURVE",
"187.688 -44.488 OFFCURVE",
"125.583 -44.488 CURVE",
"85.542 -44.488 OFFCURVE",
"49.101 -24.657 OFFCURVE",
"21.346 13.671 CURVE",
"9.352 -1.238 LINE",
"38.957 -41.596 OFFCURVE",
"80.696 -64.208 OFFCURVE",
"125.992 -64.208 CURVE",
"200.465 -64.208 OFFCURVE",
"241.627 -18.984 OFFCURVE"
);
}
);
width = 335.31918;
}
);
},
{
glyphname = m.sc.ss01;
lastChange = "2017-08-14 19:06:31 +0000";
layers = (
{
anchors = (
{
name = bottom;
position = "{419.835, 0}";
},
{
name = top;
position = "{104.335, 447.192}";
}
);
layerId = "7C7516DB-6554-481F-A885-45E791722A73";
paths = (
{
closed = 1;
nodes = (
"745.979 0 LINE",
"745.979 287.368 LINE SMOOTH",
"745.979 381.962 OFFCURVE",
"682.175 450.628 OFFCURVE",
"594.696 450.628 CURVE SMOOTH",
"492.024 450.628 OFFCURVE",
"416.263 373.732 OFFCURVE",
"416.263 273.721 CURVE",
"429.67 272.195 LINE",
"429.67 360.9 OFFCURVE",
"498.194 430.549 OFFCURVE",
"592.267 430.549 CURVE SMOOTH",
"668.97 430.549 OFFCURVE",
"725.519 369.402 OFFCURVE",
"725.519 285.347 CURVE SMOOTH",
"725.519 0 LINE"
);
},
{
closed = 1;
nodes = (
"114.152 0 LINE",
"114.152 450.268 LINE",
"94.519 450.268 LINE",
"94.519 0 LINE"
);
},
{
closed = 1;
nodes = (
"429.67 0 LINE",
"429.67 287.368 LINE SMOOTH",
"429.67 381.962 OFFCURVE",
"366.639 450.628 OFFCURVE",
"279.178 450.628 CURVE SMOOTH",
"175.697 450.628 OFFCURVE",
"100.745 373.732 OFFCURVE",
"100.745 273.721 CURVE",
"114.152 272.195 LINE",
"114.152 360.9 OFFCURVE",
"182.675 430.549 OFFCURVE",
"275.958 430.549 CURVE SMOOTH",
"353.452 430.549 OFFCURVE",
"409.983 369.402 OFFCURVE",
"409.983 285.347 CURVE SMOOTH",
"409.983 0 LINE"
);
}
);
width = 830.82522;
}
);
},
{
glyphname = n.sc.ss01;
lastChange = "2017-08-14 19:06:31 +0000";
layers = (
{
anchors = (
{
name = bottom;
position = "{272.038, 0}";
},
{
name = ogonek;
position = "{151.516, 6.392}";
},
{
name = top;
position = "{273.851, 447.192}";
}
);
layerId = "7C7516DB-6554-481F-A885-45E791722A73";
paths = (
{
closed = 1;
nodes = (
"461.585 0 LINE",
"461.585 287.368 LINE SMOOTH",
"461.585 381.962 OFFCURVE",
"392.998 450.628 OFFCURVE",
"297.482 450.628 CURVE SMOOTH",
"183.68 450.628 OFFCURVE",
"99.954 373.732 OFFCURVE",
"99.954 273.721 CURVE",
"114.152 272.195 LINE",
"114.152 360.924 OFFCURVE",
"189.832 430.549 OFFCURVE",
"295.16 430.549 CURVE SMOOTH",
"379.758 430.549 OFFCURVE",
"441.125 369.378 OFFCURVE",
"441.125 285.347 CURVE SMOOTH",
"441.125 0 LINE"
);
},
{
closed = 1;
nodes = (
"114.152 0 LINE",
"114.152 450.268 LINE",
"94.519 450.268 LINE",
"94.519 0 LINE"
);
}
);
width = 545.63977;
}
);
},
{
glyphname = eng.sc.ss01;
lastChange = "2017-08-14 19:06:31 +0000";
layers = (
{
anchors = (
{
name = bottom;
position = "{272.055, 0}";
},
{
name = ogonek;
position = "{151.516, 6.392}";
},
{
name = top;
position = "{272.411, 447.192}";
}
);
layerId = "7C7516DB-6554-481F-A885-45E791722A73";
paths = (
{
closed = 1;
nodes = (
"461.585 0 LINE",
"461.585 284.708 LINE",
"461.585 379.325 OFFCURVE",
"392.998 447.192 OFFCURVE",
"297.482 447.192 CURVE",
"183.68 444.867 OFFCURVE",
"99.954 371.096 OFFCURVE",
"99.954 270.286 CURVE",
"114.152 269.535 LINE",
"114.152 358.264 OFFCURVE",
"189.832 424.788 OFFCURVE",
"295.16 427.113 CURVE",
"379.758 427.113 OFFCURVE",
"441.125 365.942 OFFCURVE",
"441.125 282.686 CURVE",
"441.125 0 LINE"
);
},
{
closed = 1;
nodes = (
"461.585 0 CURVE",
"441.125 2.517 LINE",
"441.125 -69.145 OFFCURVE",
"406.943 -106.539 OFFCURVE",
"344.891 -106.539 CURVE SMOOTH",
"305.082 -106.539 OFFCURVE",
"269.14 -87.067 OFFCURVE",
"242.55 -50.449 CURVE",
"231.16 -65.957 LINE",
"259.6 -104.341 OFFCURVE",
"300.734 -126.258 OFFCURVE",
"345.158 -126.258 CURVE SMOOTH",
"419.507 -126.258 OFFCURVE",
"461.424 -81.202 OFFCURVE"
);
},
{
closed = 1;
nodes = (
"114.152 0 LINE",
"114.152 447.192 LINE",
"94.519 447.192 LINE",
"94.519 0 LINE"
);
}
);
width = 544.81297;
}
);
},
{
glyphname = q.sc.ss01;
lastChange = "2017-08-14 19:06:31 +0000";
layers = (
{
layerId = "7C7516DB-6554-481F-A885-45E791722A73";
paths = (
{
closed = 1;
nodes = (
"524.624 224.783 CURVE SMOOTH",
"524.624 349.179 OFFCURVE",
"417.764 450.628 OFFCURVE",
"287.808 450.628 CURVE SMOOTH",
"157.834 450.628 OFFCURVE",
"51.766 349.179 OFFCURVE",
"51.766 224.783 CURVE SMOOTH",
"51.766 99.587 OFFCURVE",
"157.834 -2.685 OFFCURVE",
"287.808 -2.685 CURVE SMOOTH",
"417.764 -2.685 OFFCURVE",
"524.624 99.611 OFFCURVE"
);
},
{
closed = 1;
nodes = (
"296.735 -85.956 LINE",
"296.735 146.752 LINE",
"279.655 146.752 LINE",
"279.655 -85.956 LINE"
);
},
{
closed = 1;
nodes = (
"71.488 224.759 CURVE SMOOTH",
"71.488 338.161 OFFCURVE",
"169.714 430.861 OFFCURVE",
"287.862 430.861 CURVE SMOOTH",
"406.765 430.861 OFFCURVE",
"504.111 338.161 OFFCURVE",
"504.111 224.759 CURVE SMOOTH",
"504.111 110.606 OFFCURVE",
"406.765 17.083 OFFCURVE",
"287.862 17.083 CURVE SMOOTH",
"169.731 17.083 OFFCURVE",
"71.488 110.606 OFFCURVE"
);
}
);
width = 576.38986;
}
);
},
{
glyphname = schwa.sc.ss01;
lastChange = "2017-08-14 19:06:31 +0000";
layers = (
{
layerId = "7C7516DB-6554-481F-A885-45E791722A73";
paths = (
{
closed = 1;
nodes = (
"478.307 224.783 CURVE SMOOTH",
"478.307 349.179 OFFCURVE",
"375.457 450.628 OFFCURVE",
"248.737 450.628 CURVE SMOOTH",
"177.385 450.628 OFFCURVE",
"114.914 421.137 OFFCURVE",
"71.174 373.269 CURVE",
"84.85 358.727 LINE",
"124.748 403.111 OFFCURVE",
"183.164 430.861 OFFCURVE",
"248.79 430.861 CURVE SMOOTH",
"365.213 430.861 OFFCURVE",
"457.776 336.826 OFFCURVE",
"457.776 224.711 CURVE SMOOTH",
"457.776 109.783 OFFCURVE",
"363.053 17.083 OFFCURVE",
"248.772 17.083 CURVE SMOOTH",
"170.807 17.083 OFFCURVE",
"103.092 59.925 OFFCURVE",
"66.377 121.704 CURVE",
"457.19 280.393 LINE",
"450.869 296.014 LINE",
"40.778 129.254 LINE",
"78.463 52.119 OFFCURVE",
"156.021 -2.685 OFFCURVE",
"248.755 -2.685 CURVE SMOOTH",
"375.457 -2.685 OFFCURVE",
"478.307 99.611 OFFCURVE"
);
}
);
width = 524.65916;
}
);
},
{
glyphname = t.sc.ss01;
lastChange = "2017-08-14 19:06:31 +0000";
layers = (
{
anchors = (
{
name = bottom;
position = "{183.111, 0}";
},
{
name = center;
position = "{183.093, 222.058}";
},
{
name = top;
position = "{183.973, 447.192}";
}
);
layerId = "7C7516DB-6554-481F-A885-45E791722A73";
paths = (
{
closed = 1;
nodes = (
"183.093 430.981 CURVE SMOOTH",
"240.061 430.981 OFFCURVE",
"300.069 417.326 OFFCURVE",
"348.823 392.461 CURVE",
"356.06 409.352 LINE",
"304.684 436.054 OFFCURVE",
"243.528 450.628 OFFCURVE",
"183.093 450.628 CURVE SMOOTH",
"122.657 450.628 OFFCURVE",
"61.484 436.054 OFFCURVE",
"10.934 409.376 CURVE",
"18.19 392.461 LINE",
"67.663 417.302 OFFCURVE",
"126.88 430.981 OFFCURVE"
);
},
{
closed = 1;
nodes = (
"193.718 0 LINE",
"193.718 438.132 LINE",
"173.294 438.132 LINE",
"173.294 0 LINE"
);
}
);
width = 366.99477;
}
);
},
{
glyphname = u.sc.ss01;
lastChange = "2017-08-14 19:06:31 +0000";
layers = (
{
anchors = (
{
name = bottom;
position = "{272.793, 0}";
},
{
name = ogonek;
position = "{450.213, 0}";
},
{
name = top;
position = "{272.793, 447.192}";
},
{
name = topright;
position = "{441.963, 447.192}";
}
);
layerId = "7C7516DB-6554-481F-A885-45E791722A73";
paths = (
{
closed = 1;
nodes = (
"445.686 174.222 CURVE",
"431.488 175.748 LINE",
"431.488 87.019 OFFCURVE",
"355.808 17.394 OFFCURVE",
"250.479 17.394 CURVE SMOOTH",
"165.882 17.394 OFFCURVE",
"104.515 78.566 OFFCURVE",
"104.515 162.596 CURVE SMOOTH",
"104.515 447.192 LINE",
"84.055 447.192 LINE",
"84.055 160.575 LINE SMOOTH",
"84.055 65.981 OFFCURVE",
"152.642 -2.685 OFFCURVE",
"248.158 -2.685 CURVE SMOOTH",
"361.96 -2.685 OFFCURVE",
"445.686 74.211 OFFCURVE"
);
},
{
closed = 1;
nodes = (
"451.121 0 LINE",
"451.121 447.192 LINE",
"431.488 447.192 LINE",
"431.488 0 LINE"
);
}
);
width = 545.63977;
}
);
},
{
glyphname = w.sc.ss01;
lastChange = "2017-08-14 19:06:31 +0000";
layers = (
{
anchors = (
{
name = top;
position = "{408.367, 447.192}";
}
);
layerId = "7C7516DB-6554-481F-A885-45E791722A73";
paths = (
{
closed = 1;
nodes = (
"409.176 94.897 CURVE",
"427.348 35.476 OFFCURVE",
"489.694 -2.685 OFFCURVE",
"568.709 -2.685 CURVE SMOOTH",
"667.674 -2.685 OFFCURVE",
"731.995 57.232 OFFCURVE",
"731.995 149.085 CURVE SMOOTH",
"731.995 447.192 LINE",
"711.57 447.192 LINE",
"711.57 149.085 LINE SMOOTH",
"711.57 69.002 OFFCURVE",
"654.95 16.284 OFFCURVE",
"567.295 16.284 CURVE SMOOTH",
"478.075 16.284 OFFCURVE",
"418.975 69.002 OFFCURVE",
"418.975 149.085 CURVE SMOOTH",
"418.975 447.192 LINE",
"399.342 447.192 LINE",
"399.342 149.085 LINE SMOOTH",
"399.342 69.002 OFFCURVE",
"341.104 16.284 OFFCURVE",
"250.301 16.284 CURVE SMOOTH",
"161.855 16.284 OFFCURVE",
"105.164 69.002 OFFCURVE",
"105.164 149.085 CURVE SMOOTH",
"105.164 447.192 LINE",
"85.531 447.192 LINE",
"85.531 149.085 LINE SMOOTH",
"85.531 57.232 OFFCURVE",
"149.887 -2.685 OFFCURVE",
"248.887 -2.685 CURVE SMOOTH",
"327.129 -2.685 OFFCURVE",
"390.231 35.476 OFFCURVE"
);
}
);
width = 817.52526;
}
);
},
{
glyphname = y.sc.ss01;
lastChange = "2017-08-14 19:06:31 +0000";
layers = (
{
anchors = (
{
name = bottom;
position = "{256.071, -60.796}";
},
{
name = top;
position = "{243.954, 447.192}";
}
);
layerId = "7C7516DB-6554-481F-A885-45E791722A73";
paths = (
{
closed = 1;
nodes = (
"414.423 96.28 CURVE",
"414.423 447.192 LINE",
"395.582 447.192 LINE",
"395.582 96.375 LINE",
"395.582 14.478 OFFCURVE",
"332.294 -45.239 OFFCURVE",
"246.407 -45.239 CURVE",
"184.612 -45.239 OFFCURVE",
"117.048 -16.204 OFFCURVE",
"86.901 22.372 CURVE",
"74.454 8.07 LINE",
"105.712 -34.061 OFFCURVE",
"178.718 -64.208 OFFCURVE",
"246.923 -64.208 CURVE",
"344.28 -64.208 OFFCURVE",
"414.423 2.565 OFFCURVE"
);
},
{
closed = 1;
nodes = (
"409.78 278.579 CURVE",
"396.373 279.258 LINE",
"396.373 190.018 OFFCURVE",
"327.813 123.637 OFFCURVE",
"235.251 121.312 CURVE",
"152.165 121.312 OFFCURVE",
"92.344 182.34 OFFCURVE",
"92.344 266.227 CURVE",
"92.344 447.192 LINE",
"72.711 447.192 LINE",
"72.711 264.972 LINE",
"72.711 170.211 OFFCURVE",
"139.787 102.2 OFFCURVE",
"232.893 102.2 CURVE",
"335.618 103.75 OFFCURVE",
"409.78 178.081 OFFCURVE"
);
}
);
width = 506.47931;
}
);
},
{
glyphname = z.sc.ss01;
lastChange = "2017-08-14 19:06:31 +0000";
layers = (
{
anchors = (
{
name = bottom;
position = "{213.746, 0}";
},
{
name = top;
position = "{217.72, 447.192}";
}
);
layerId = "7C7516DB-6554-481F-A885-45E791722A73";
paths = (
{
closed = 1;
nodes = (
"394.269 0 LINE",
"394.269 19.384 LINE",
"55.666 19.384 LINE",
"392.58 426.978 LINE",
"392.58 447.192 LINE",
"42.086 447.192 LINE",
"42.086 428.584 LINE",
"370.101 428.584 LINE",
"33.205 20.215 LINE",
"33.205 0 LINE"
);
},
{
closed = 1;
nodes = (
"214.875 216.681 LINE",
"214.875 234.379 LINE",
"75.006 234.379 LINE",
"75.006 216.681 LINE"
);
},
{
closed = 1;
nodes = (
"352.326 213.9 LINE",
"352.326 232.373 LINE",
"211.968 232.373 LINE",
"211.968 213.9 LINE"
);
}
);
width = 429.05639;
}
);
},
{
glyphname = Oogonek;
lastChange = "2017-08-14 19:06:31 +0000";
layers = (
{
anchors = (
{
name = top;
position = "{338.269, 559.3}";
}
);
layerId = "7C7516DB-6554-481F-A885-45E791722A73";
paths = (
{
closed = 1;
nodes = (
"395.496 -149.357 CURVE",
"386.312 -135.502 LINE",
"373.386 -147.296 OFFCURVE",
"354.797 -153.664 OFFCURVE",
"336.207 -153.664 CURVE SMOOTH",
"303.11 -153.664 OFFCURVE",
"278.298 -136.957 OFFCURVE",
"278.298 -103.079 CURVE SMOOTH",
"278.298 -51.911 OFFCURVE",
"338.963 -8.445 OFFCURVE",
"405.639 4.77 CURVE SMOOTH",
"527.709 29.195 OFFCURVE",
"629.341 132.147 OFFCURVE",
"629.341 279.65 CURVE SMOOTH",
"629.341 441.288 OFFCURVE",
"504.523 562.009 OFFCURVE",
"338.269 562.009 CURVE SMOOTH",
"172.014 562.009 OFFCURVE",
"47.197 441.288 OFFCURVE",
"47.197 279.65 CURVE SMOOTH",
"47.197 118.012 OFFCURVE",
"172.014 -2.709 OFFCURVE",
"338.269 -2.709 CURVE SMOOTH",
"344.865 -2.709 OFFCURVE",
"350.689 -1.91 OFFCURVE",
"357.463 -1.087 CURVE",
"371.491 13.575 LINE",
"281.781 -24.417 OFFCURVE",
"260.124 -70.008 OFFCURVE",
"260.124 -103.558 CURVE SMOOTH",
"260.124 -145.658 OFFCURVE",
"292.013 -170.834 OFFCURVE",
"334.936 -170.834 CURVE SMOOTH",
"357.855 -170.834 OFFCURVE",
"377.662 -164.394 OFFCURVE"
);
},
{
closed = 1;
nodes = (
"67.257 279.65 CURVE SMOOTH",
"67.257 430.293 OFFCURVE",
"184.018 542.705 OFFCURVE",
"338.269 542.705 CURVE SMOOTH",
"492.519 542.705 OFFCURVE",
"609.281 430.293 OFFCURVE",
"609.281 279.65 CURVE SMOOTH",
"609.281 129.007 OFFCURVE",
"492.519 16.595 OFFCURVE",
"338.269 16.595 CURVE SMOOTH",
"184.018 16.595 OFFCURVE",
"67.257 129.007 OFFCURVE"
);
}
);
width = 676.53759;
}
);
},
{
glyphname = Saltillo;
lastChange = "2017-08-14 19:06:31 +0000";
layers = (
{
layerId = "7C7516DB-6554-481F-A885-45E791722A73";
paths = (
{
closed = 1;
nodes = (
"94.771 238.054 LINE",
"95.305 558.549 LINE",
"75.352 558.549 LINE",
"75.352 238.054 LINE"
);
}
);
width = 170.65694;
}
);
},
{
glyphname = Udieresis.alt.02;
lastChange = "2017-08-14 19:06:31 +0000";
layers = (
{
layerId = "7C7516DB-6554-481F-A885-45E791722A73";
paths = (
{
closed = 1;
nodes = (
"540.778 234.634 CURVE SMOOTH",
"540.778 559.3 LINE",
"520.825 559.3 LINE",
"520.825 235.577 LINE SMOOTH",
"520.825 88.082 OFFCURVE",
"448.095 16.595 OFFCURVE",
"321.12 16.595 CURVE SMOOTH",
"194.144 16.595 OFFCURVE",
"121.415 88.082 OFFCURVE",
"121.415 235.577 CURVE SMOOTH",
"121.415 559.3 LINE",
"101.39 559.3 LINE",
"101.39 234.634 LINE SMOOTH",
"101.39 76.145 OFFCURVE",
"185.127 -2.709 OFFCURVE",
"321.084 -2.709 CURVE SMOOTH",
"457.041 -2.709 OFFCURVE",
"540.778 76.145 OFFCURVE"
);
},
{
closed = 1;
nodes = (
"354.298 445.482 CURVE SMOOTH",
"354.298 462.837 OFFCURVE",
"339.434 477.698 OFFCURVE",
"321.12 477.698 CURVE SMOOTH",
"302.805 477.698 OFFCURVE",
"287.959 462.837 OFFCURVE",
"287.959 445.482 CURVE SMOOTH",
"287.959 428.128 OFFCURVE",
"302.805 413.267 OFFCURVE",
"321.12 413.267 CURVE SMOOTH",
"339.434 413.267 OFFCURVE",
"354.298 428.128 OFFCURVE"
);
},
{
closed = 1;
nodes = (
"354.298 529.649 CURVE SMOOTH",
"354.298 547.003 OFFCURVE",
"339.434 561.865 OFFCURVE",
"321.12 561.865 CURVE SMOOTH",
"302.805 561.865 OFFCURVE",
"287.959 547.003 OFFCURVE",
"287.959 529.649 CURVE SMOOTH",
"287.959 512.295 OFFCURVE",
"302.805 497.433 OFFCURVE",
"321.12 497.433 CURVE SMOOTH",
"339.434 497.433 OFFCURVE",
"354.298 512.295 OFFCURVE"
);
}
);
width = 642.16803;
}
);
},
{
glyphname = Udieresis.ss01.alt.02;
lastChange = "2017-08-14 19:06:31 +0000";
layers = (
{
layerId = "7C7516DB-6554-481F-A885-45E791722A73";
paths = (
{
closed = 1;
nodes = (
"536.348 238.27 CURVE SMOOTH",
"536.348 319.6 LINE",
"520.825 319.6 LINE",
"520.825 239.165 LINE SMOOTH",
"520.825 88.13 OFFCURVE",
"447.953 16.595 OFFCURVE",
"321.066 16.595 CURVE SMOOTH",
"194.144 16.595 OFFCURVE",
"121.415 87.283 OFFCURVE",
"121.415 223.472 CURVE SMOOTH",
"121.415 559.3 LINE",
"101.39 559.3 LINE",
"101.39 222.529 LINE SMOOTH",
"101.39 75.905 OFFCURVE",
"184.593 -2.709 OFFCURVE",
"319.047 -2.709 CURVE SMOOTH",
"453.145 -2.709 OFFCURVE",
"536.348 76.217 OFFCURVE"
);
},
{
closed = 1;
nodes = (
"354.298 445.458 CURVE SMOOTH",
"354.298 462.813 OFFCURVE",
"339.434 477.674 OFFCURVE",
"321.12 477.674 CURVE SMOOTH",
"302.805 477.674 OFFCURVE",
"287.959 462.813 OFFCURVE",
"287.959 445.458 CURVE SMOOTH",
"287.959 428.104 OFFCURVE",
"302.805 413.243 OFFCURVE",
"321.12 413.243 CURVE SMOOTH",
"339.434 413.243 OFFCURVE",
"354.298 428.104 OFFCURVE"
);
},
{
closed = 1;
nodes = (
"540.849 0 LINE",
"540.849 559.3 LINE",
"520.825 559.3 LINE",
"520.825 187.174 LINE",
"520.949 173.303 LINE",
"520.949 0 LINE"
);
},
{
closed = 1;
nodes = (
"354.298 529.649 CURVE SMOOTH",
"354.298 547.003 OFFCURVE",
"339.434 561.865 OFFCURVE",
"321.12 561.865 CURVE SMOOTH",
"302.805 561.865 OFFCURVE",
"287.959 547.003 OFFCURVE",
"287.959 529.649 CURVE SMOOTH",
"287.959 512.295 OFFCURVE",
"302.805 497.433 OFFCURVE",
"321.12 497.433 CURVE SMOOTH",
"339.434 497.433 OFFCURVE",
"354.298 512.295 OFFCURVE"
);
}
);
width = 647.09322;
}
);
},
{
glyphname = Adieresis.alt;
lastChange = "2017-08-14 19:06:31 +0000";
layers = (
{
layerId = "7C7516DB-6554-481F-A885-45E791722A73";
paths = (
{
closed = 1;
nodes = (
"29.252 0 LINE",
"284.085 544.215 LINE",
"274.536 544.215 LINE",
"529.369 0 LINE",
"551.91 0 LINE",
"289.323 559.3 LINE",
"269.37 559.3 LINE",
"6.783 0 LINE"
);
},
{
closed = 1;
nodes = (
"470.456 147.376 LINE",
"461.476 166.176 LINE",
"95.748 166.176 LINE",
"86.768 147.376 LINE"
);
},
{
closed = 1;
nodes = (
"191.901 539.341 CURVE SMOOTH",
"191.901 551.462 OFFCURVE",
"181.713 561.625 OFFCURVE",
"169.728 561.625 CURVE SMOOTH",
"157.744 561.625 OFFCURVE",
"147.555 551.462 OFFCURVE",
"147.555 539.341 CURVE SMOOTH",
"147.555 527.22 OFFCURVE",
"157.744 517.081 OFFCURVE",
"169.728 517.081 CURVE SMOOTH",
"181.713 517.081 OFFCURVE",
"191.901 527.22 OFFCURVE"
);
},
{
closed = 1;
nodes = (
"411.137 539.341 CURVE SMOOTH",
"411.137 551.462 OFFCURVE",
"400.948 561.625 OFFCURVE",
"388.964 561.625 CURVE SMOOTH",
"376.979 561.625 OFFCURVE",
"366.791 551.462 OFFCURVE",
"366.791 539.341 CURVE SMOOTH",
"366.791 527.22 OFFCURVE",
"376.979 517.081 OFFCURVE",
"388.964 517.081 CURVE SMOOTH",
"400.948 517.081 OFFCURVE",
"411.137 527.22 OFFCURVE"
);
}
);
width = 558.69217;
}
);
},
{
glyphname = Udieresis.alt;
lastChange = "2017-08-14 19:06:31 +0000";
layers = (
{
layerId = "7C7516DB-6554-481F-A885-45E791722A73";
paths = (
{
closed = 1;
nodes = (
"540.778 234.634 CURVE SMOOTH",
"540.778 559.3 LINE",
"520.825 559.3 LINE",
"520.825 235.577 LINE SMOOTH",
"520.825 88.082 OFFCURVE",
"448.095 16.595 OFFCURVE",
"321.12 16.595 CURVE SMOOTH",
"194.144 16.595 OFFCURVE",
"121.415 88.082 OFFCURVE",
"121.415 235.577 CURVE SMOOTH",
"121.415 559.3 LINE",
"101.39 559.3 LINE",
"101.39 234.634 LINE SMOOTH",
"101.39 76.145 OFFCURVE",
"185.127 -2.709 OFFCURVE",
"321.084 -2.709 CURVE SMOOTH",
"457.041 -2.709 OFFCURVE",
"540.778 76.145 OFFCURVE"
);
},
{
closed = 1;
nodes = (
"277.15 539.581 CURVE SMOOTH",
"277.15 551.702 OFFCURVE",
"266.962 561.865 OFFCURVE",
"254.977 561.865 CURVE SMOOTH",
"242.993 561.865 OFFCURVE",
"232.804 551.702 OFFCURVE",
"232.804 539.581 CURVE SMOOTH",
"232.804 527.46 OFFCURVE",
"242.993 517.321 OFFCURVE",
"254.977 517.321 CURVE SMOOTH",
"266.962 517.321 OFFCURVE",
"277.15 527.46 OFFCURVE"
);
},
{
closed = 1;
nodes = (
"409.435 539.581 CURVE SMOOTH",
"409.435 551.702 OFFCURVE",
"399.246 561.865 OFFCURVE",
"387.262 561.865 CURVE SMOOTH",
"375.277 561.865 OFFCURVE",
"365.089 551.702 OFFCURVE",
"365.089 539.581 CURVE SMOOTH",
"365.089 527.46 OFFCURVE",
"375.277 517.321 OFFCURVE",
"387.262 517.321 CURVE SMOOTH",
"399.246 517.321 OFFCURVE",
"409.435 527.46 OFFCURVE"
);
}
);
width = 642.16803;
}
);
},
{
glyphname = Udieresis.ss01.alt;
lastChange = "2017-08-14 19:06:31 +0000";
layers = (
{
layerId = "7C7516DB-6554-481F-A885-45E791722A73";
paths = (
{
closed = 1;
nodes = (
"536.348 238.27 CURVE SMOOTH",
"536.348 319.6 LINE",
"520.825 319.6 LINE",
"520.825 239.165 LINE SMOOTH",
"520.825 88.13 OFFCURVE",
"447.953 16.595 OFFCURVE",
"321.066 16.595 CURVE SMOOTH",
"194.144 16.595 OFFCURVE",
"121.415 87.283 OFFCURVE",
"121.415 223.472 CURVE SMOOTH",
"121.415 559.3 LINE",
"101.39 559.3 LINE",
"101.39 222.529 LINE SMOOTH",
"101.39 75.905 OFFCURVE",
"184.593 -2.709 OFFCURVE",
"319.047 -2.709 CURVE SMOOTH",
"453.145 -2.709 OFFCURVE",
"536.348 76.217 OFFCURVE"
);
},
{
closed = 1;
nodes = (
"277.15 539.581 CURVE SMOOTH",
"277.15 551.702 OFFCURVE",
"266.962 561.865 OFFCURVE",
"254.977 561.865 CURVE SMOOTH",
"242.993 561.865 OFFCURVE",
"232.804 551.702 OFFCURVE",
"232.804 539.581 CURVE SMOOTH",
"232.804 527.46 OFFCURVE",
"242.993 517.321 OFFCURVE",
"254.977 517.321 CURVE SMOOTH",
"266.962 517.321 OFFCURVE",
"277.15 527.46 OFFCURVE"
);
},
{
closed = 1;
nodes = (
"540.849 0 LINE",
"540.849 559.3 LINE",
"520.825 559.3 LINE",
"520.825 187.174 LINE",
"520.949 173.303 LINE",
"520.949 0 LINE"
);
},
{
closed = 1;
nodes = (
"409.435 539.581 CURVE SMOOTH",
"409.435 551.702 OFFCURVE",
"399.246 561.865 OFFCURVE",
"387.262 561.865 CURVE SMOOTH",
"375.277 561.865 OFFCURVE",
"365.089 551.702 OFFCURVE",
"365.089 539.581 CURVE SMOOTH",
"365.089 527.46 OFFCURVE",
"375.277 517.321 OFFCURVE",
"387.262 517.321 CURVE SMOOTH",
"399.246 517.321 OFFCURVE",
"409.435 527.46 OFFCURVE"
);
}
);
width = 647.09322;
}
);
},
{
glyphname = Eogonek.ss01;
lastChange = "2017-08-14 19:06:31 +0000";
layers = (
{
anchors = (
{
name = bottom;
position = "{272.518, 0}";
},
{
name = top;
position = "{272.518, 559.3}";
},
{
name = topleft;
position = "{53.748, 559.3}";
}
);
layerId = "7C7516DB-6554-481F-A885-45E791722A73";
paths = (
{
closed = 1;
nodes = (
"471.613 -149.357 CURVE",
"462.429 -135.502 LINE",
"449.503 -147.296 OFFCURVE",
"430.914 -153.664 OFFCURVE",
"412.325 -153.664 CURVE SMOOTH",
"379.227 -153.664 OFFCURVE",
"355.206 -135.407 OFFCURVE",
"355.206 -101.457 CURVE SMOOTH",
"355.206 -65.67 OFFCURVE",
"372.64 -14.022 OFFCURVE",
"478.281 70.855 CURVE",
"465.976 86.58 LINE",
"424.521 46.262 OFFCURVE",
"350.973 16.332 OFFCURVE",
"264.295 16.332 CURVE SMOOTH",
"134.341 16.332 OFFCURVE",
"71.951 70.336 OFFCURVE",
"71.951 148.606 CURVE SMOOTH",
"71.951 234.554 OFFCURVE",
"145.169 274.536 OFFCURVE",
"248.195 274.536 CURVE SMOOTH",
"381.094 274.536 LINE",
"381.094 293.433 LINE",
"247.688 293.433 LINE SMOOTH",
"153.454 293.433 OFFCURVE",
"96.203 337.242 OFFCURVE",
"96.203 414.593 CURVE SMOOTH",
"96.203 487.438 OFFCURVE",
"156.202 542.968 OFFCURVE",
"276.413 542.968 CURVE SMOOTH",
"338.421 542.968 OFFCURVE",
"394.891 527.204 OFFCURVE",
"442.764 497.881 CURVE",
"451.815 514.404 LINE",
"407.844 544.526 OFFCURVE",
"342.066 562.009 OFFCURVE",
"275.461 562.009 CURVE SMOOTH",
"143.753 562.009 OFFCURVE",
"76.143 495.963 OFFCURVE",
"76.143 415.728 CURVE SMOOTH",
"76.143 348.508 OFFCURVE",
"115.393 301.583 OFFCURVE",
"184.397 284.588 CURVE",
"106.387 270.669 OFFCURVE",
"51.891 224.303 OFFCURVE",
"51.891 147.447 CURVE SMOOTH",
"51.891 60.7 OFFCURVE",
"122.95 -2.709 OFFCURVE",
"263.344 -2.709 CURVE SMOOTH",
"319.44 -2.709 OFFCURVE",
"367.642 6.712 OFFCURVE",
"411.079 25.432 CURVE",
"410.288 30.17 LINE",
"350.439 -24.897 OFFCURVE",
"337.033 -67.971 OFFCURVE",
"337.033 -102.008 CURVE SMOOTH",
"337.033 -144.108 OFFCURVE",
"368.131 -170.834 OFFCURVE",
"411.053 -170.834 CURVE SMOOTH",
"433.972 -170.834 OFFCURVE",
"453.779 -164.394 OFFCURVE"
);
}
);
width = 498.16765;
}
);
},
{
glyphname = eth;
lastChange = "2017-08-14 19:06:31 +0000";
layers = (
{
layerId = "7C7516DB-6554-481F-A885-45E791722A73";
paths = (
{
closed = 1;
nodes = (
"418.975 183.195 CURVE SMOOTH",
"418.975 335.196 OFFCURVE",
"308.017 495.971 OFFCURVE",
"137.104 593.098 CURVE",
"124.923 577.014 LINE",
"255.998 506.646 OFFCURVE",
"363.595 380.364 OFFCURVE",
"396.844 253.938 CURVE",
"370.956 312.641 OFFCURVE",
"305.854 350.202 OFFCURVE",
"231.275 350.202 CURVE SMOOTH",
"119.633 350.202 OFFCURVE",
"47.632 282.239 OFFCURVE",
"47.632 177.498 CURVE SMOOTH",
"47.632 69.417 OFFCURVE",
"118.389 -0.264 OFFCURVE",
"227.382 -0.264 CURVE SMOOTH",
"343.959 -0.264 OFFCURVE",
"418.975 71.686 OFFCURVE"
);
},
{
closed = 1;
nodes = (
"67.283 179.312 CURVE SMOOTH",
"67.283 271.676 OFFCURVE",
"131.833 331.154 OFFCURVE",
"232.254 331.154 CURVE SMOOTH",
"333.502 331.154 OFFCURVE",
"398.861 269.327 OFFCURVE",
"398.861 173.087 CURVE SMOOTH",
"398.861 79.948 OFFCURVE",
"333.502 19.671 OFFCURVE",
"231.481 19.671 CURVE SMOOTH",
"131.851 19.671 OFFCURVE",
"67.283 82.273 OFFCURVE"
);
},
{
closed = 1;
nodes = (
"376.222 537.775 LINE",
"368.443 554.37 LINE",
"109.73 435.575 LINE",
"117.509 419.028 LINE"
);
}
);
width = 466.17170;
}
);
unicode = 00F0;
},
{
glyphname = eogonek;
lastChange = "2017-08-14 19:06:31 +0000";
layers = (
{
anchors = (
{
name = bottom;
position = "{243.27, 0}";
},
{
name = top;
position = "{243.27, 413.802}";
}
);
layerId = "7C7516DB-6554-481F-A885-45E791722A73";
paths = (
{
closed = 1;
nodes = (
"414.698 -149.357 CURVE",
"405.514 -135.502 LINE",
"392.588 -147.296 OFFCURVE",
"374 -153.664 OFFCURVE",
"355.445 -153.664 CURVE SMOOTH",
"322.383 -153.664 OFFCURVE",
"297.5 -136.885 OFFCURVE",
"297.5 -102.184 CURVE SMOOTH",
"297.5 -69.449 OFFCURVE",
"307.35 -37.729 OFFCURVE",
"392.748 37.409 CURVE SMOOTH",
"404.11 47.748 OFFCURVE",
"413.854 55.786 OFFCURVE",
"421.997 65.422 CURVE",
"408.856 79.125 LINE",
"374.175 36.626 OFFCURVE",
"319.858 16.164 OFFCURVE",
"261.192 16.164 CURVE SMOOTH",
"147.489 16.164 OFFCURVE",
"62.838 94.602 OFFCURVE",
"62.838 207.133 CURVE SMOOTH",
"62.838 211.048 LINE SMOOTH",
"62.838 317.962 OFFCURVE",
"140.226 397.95 OFFCURVE",
"245.679 397.95 CURVE SMOOTH",
"351.132 397.95 OFFCURVE",
"429.31 317.962 OFFCURVE",
"429.31 211.048 CURVE",
"437.206 223.368 LINE",
"55.939 223.368 LINE",
"55.939 206.03 LINE",
"447.974 206.03 LINE",
"448.01 207.964 OFFCURVE",
"448.045 209.242 OFFCURVE",
"448.045 211.176 CURVE SMOOTH",
"448.045 331.865 OFFCURVE",
"360.104 416.367 OFFCURVE",
"245.643 416.367 CURVE SMOOTH",
"129.351 416.367 OFFCURVE",
"43.099 329.859 OFFCURVE",
"43.099 207.301 CURVE SMOOTH",
"43.099 84.814 OFFCURVE",
"135.609 -2.565 OFFCURVE",
"261.068 -2.565 CURVE SMOOTH",
"293.934 -2.565 OFFCURVE",
"325.61 3.683 OFFCURVE",
"355.329 16.276 CURVE",
"354.884 19.951 LINE",
"292.787 -32.503 OFFCURVE",
"279.327 -71.071 OFFCURVE",
"279.327 -102.711 CURVE SMOOTH",
"279.327 -145.658 OFFCURVE",
"311.216 -170.834 OFFCURVE",
"354.138 -170.834 CURVE SMOOTH",
"377.057 -170.834 OFFCURVE",
"396.865 -164.394 OFFCURVE"
);
}
);
width = 491.14391;
}
);
unicode = 0119;
},
{
glyphname = oogonek;
lastChange = "2017-08-14 19:06:31 +0000";
layers = (
{
anchors = (
{
name = bottom;
position = "{247.19, 0}";
},
{
name = center;
position = "{247.19, 207.301}";
},
{
name = top;
position = "{247.19, 413.802}";
},
{
name = topright;
position = "{376.282, 414.577}";
}
);
layerId = "7C7516DB-6554-481F-A885-45E791722A73";
paths = (
{
closed = 1;
nodes = (
"331.318 -149.357 CURVE",
"322.134 -135.502 LINE",
"309.208 -147.296 OFFCURVE",
"290.619 -153.664 OFFCURVE",
"272.029 -153.664 CURVE SMOOTH",
"238.932 -153.664 OFFCURVE",
"214.12 -136.909 OFFCURVE",
"214.12 -103.055 CURVE SMOOTH",
"214.12 -72.014 OFFCURVE",
"227.188 -34.772 OFFCURVE",
"334.162 14.989 CURVE SMOOTH",
"406.555 48.595 OFFCURVE",
"451.388 117.549 OFFCURVE",
"451.388 207.301 CURVE SMOOTH",
"451.388 329.859 OFFCURVE",
"364.416 416.367 OFFCURVE",
"247.243 416.367 CURVE SMOOTH",
"130.071 416.367 OFFCURVE",
"43.099 329.859 OFFCURVE",
"43.099 207.301 CURVE SMOOTH",
"43.099 84.742 OFFCURVE",
"130.071 -2.565 OFFCURVE",
"247.243 -2.565 CURVE SMOOTH",
"260.979 -2.565 OFFCURVE",
"273.905 -1.742 OFFCURVE",
"293.97 1.406 CURVE",
"302.566 13.335 LINE",
"213.647 -25.968 OFFCURVE",
"195.946 -70.008 OFFCURVE",
"195.946 -103.558 CURVE SMOOTH",
"195.946 -145.658 OFFCURVE",
"227.835 -170.834 OFFCURVE",
"270.758 -170.834 CURVE SMOOTH",
"293.677 -170.834 OFFCURVE",
"313.484 -164.394 OFFCURVE"
);
},
{
closed = 1;
nodes = (
"62.892 207.301 CURVE SMOOTH",
"62.892 319.832 OFFCURVE",
"141.915 397.423 OFFCURVE",
"247.243 397.423 CURVE SMOOTH",
"352.572 397.423 OFFCURVE",
"431.595 319.832 OFFCURVE",
"431.595 207.301 CURVE SMOOTH",
"431.595 94.769 OFFCURVE",
"352.572 16.379 OFFCURVE",
"247.243 16.379 CURVE SMOOTH",
"141.915 16.379 OFFCURVE",
"62.892 94.769 OFFCURVE"
);
}
);
width = 494.48670;
}
);
},
{
glyphname = saltillo;
lastChange = "2017-08-14 19:06:31 +0000";
layers = (
{
layerId = "7C7516DB-6554-481F-A885-45E791722A73";
paths = (
{
closed = 1;
nodes = (
"94.629 238.054 LINE",
"95.954 507.397 LINE",
"76.143 507.397 LINE",
"75.352 238.054 LINE"
);
}
);
width = 171.30575;
}
);
},
{
glyphname = eogonek.ss01;
lastChange = "2017-08-14 19:06:31 +0000";
layers = (
{
anchors = (
{
name = bottom;
position = "{241.687, 0}";
},
{
name = top;
position = "{241.687, 413.802}";
}
);
layerId = "7C7516DB-6554-481F-A885-45E791722A73";
paths = (
{
closed = 1;
nodes = (
"414.698 -149.357 CURVE",
"405.514 -135.502 LINE",
"392.588 -147.296 OFFCURVE",
"374 -153.664 OFFCURVE",
"355.445 -153.664 CURVE SMOOTH",
"322.383 -153.664 OFFCURVE",
"297.5 -136.885 OFFCURVE",
"297.5 -102.184 CURVE SMOOTH",
"297.5 -69.449 OFFCURVE",
"307.35 -37.729 OFFCURVE",
"392.748 37.409 CURVE SMOOTH",
"404.11 47.748 OFFCURVE",
"413.854 55.786 OFFCURVE",
"421.997 65.422 CURVE",
"408.856 79.125 LINE",
"374.175 36.626 OFFCURVE",
"319.858 16.164 OFFCURVE",
"261.192 16.164 CURVE SMOOTH",
"147.489 16.164 OFFCURVE",
"62.838 94.602 OFFCURVE",
"62.838 207.133 CURVE SMOOTH",
"62.838 211.048 LINE SMOOTH",
"62.838 317.962 OFFCURVE",
"140.261 397.95 OFFCURVE",
"250.497 397.95 CURVE SMOOTH",
"354.332 397.95 OFFCURVE",
"421.398 317.962 OFFCURVE",
"427.728 233.763 CURVE",
"436.219 245.836 LINE",
"55.957 174.741 LINE",
"61.495 158.154 LINE",
"447.254 230.623 LINE",
"440.133 331.865 OFFCURVE",
"363.304 416.367 OFFCURVE",
"250.479 416.367 CURVE SMOOTH",
"129.369 416.367 OFFCURVE",
"43.099 329.859 OFFCURVE",
"43.099 207.301 CURVE SMOOTH",
"43.099 84.814 OFFCURVE",
"135.609 -2.565 OFFCURVE",
"261.068 -2.565 CURVE SMOOTH",
"293.934 -2.565 OFFCURVE",
"325.61 3.683 OFFCURVE",
"355.329 16.276 CURVE",
"354.884 19.951 LINE",
"292.787 -32.503 OFFCURVE",
"279.327 -71.071 OFFCURVE",
"279.327 -102.711 CURVE SMOOTH",
"279.327 -145.658 OFFCURVE",
"311.216 -170.834 OFFCURVE",
"354.138 -170.834 CURVE SMOOTH",
"377.057 -170.834 OFFCURVE",
"396.865 -164.394 OFFCURVE"
);
}
);
width = 490.35271;
}
);
},
{
glyphname = T_h;
lastChange = "2017-08-14 19:06:31 +0000";
layers = (
{
anchors = (
{
name = bottom_1;
position = "{217.702, 0}";
},
{
name = bottom_2;
position = "{667.365, 0}";
},
{
name = caret_1;
position = "{442.525, 0}";
},
{
name = center_1;
position = "{-7.139, 0}";
},
{
name = center_2;
position = "{-7.139, 0}";
},
{
name = top_1;
position = "{217.702, 413.802}";
},
{
name = top_2;
position = "{667.365, 413.802}";
}
);
layerId = "7C7516DB-6554-481F-A885-45E791722A73";
paths = (
{
closed = 1;
nodes = (
"232.443 0 LINE",
"232.443 538.662 LINE",
"457.54 538.662 LINE",
"457.54 558.549 LINE",
"3.236 558.549 LINE",
"3.236 538.662 LINE",
"212.49 538.662 LINE",
"212.49 0 LINE"
);
},
{
closed = 1;
nodes = (
"477.208 0 LINE",
"477.208 558.549 LINE",
"457.379 558.549 LINE",
"457.379 0 LINE"
);
},
{
closed = 1;
nodes = (
"817.538 0 LINE",
"817.538 250.95 LINE",
"817.538 353.174 OFFCURVE",
"756.756 414.042 OFFCURVE",
"653.436 414.042 CURVE",
"533.144 411.717 OFFCURVE",
"462.077 333.079 OFFCURVE",
"462.077 202.578 CURVE",
"477.208 202.578 LINE",
"477.208 320.103 OFFCURVE",
"541.794 391.47 OFFCURVE",
"651.763 393.795 CURVE",
"743.445 393.795 OFFCURVE",
"797.71 340.398 OFFCURVE",
"797.71 249.392 CURVE",
"797.71 0 LINE SMOOTH"
);
}
);
width = 904.63353;
}
);
},
{
glyphname = fl.ss01;
lastChange = "2017-08-14 19:06:31 +0000";
layers = (
{
layerId = "7C7516DB-6554-481F-A885-45E791722A73";
paths = (
{
closed = 1;
nodes = (
"467.295 -74.403 CURVE",
"464.761 -56.449 LINE",
"455.106 -60.444 OFFCURVE",
"440.562 -63.664 OFFCURVE",
"423.68 -63.664 CURVE SMOOTH",
"369.326 -63.664 OFFCURVE",
"343.67 -32.232 OFFCURVE",
"343.67 25.184 CURVE SMOOTH",
"343.67 453.44 LINE SMOOTH",
"343.67 550.231 OFFCURVE",
"297.565 595.423 OFFCURVE",
"221.161 595.423 CURVE SMOOTH",
"144.758 595.423 OFFCURVE",
"98.653 550.231 OFFCURVE",
"98.653 453.44 CURVE SMOOTH",
"98.653 0 LINE",
"118.499 0 LINE",
"118.499 453.584 LINE SMOOTH",
"118.499 538.726 OFFCURVE",
"156.202 576.598 OFFCURVE",
"221.161 576.598 CURVE SMOOTH",
"286.121 576.598 OFFCURVE",
"323.823 538.726 OFFCURVE",
"323.823 453.584 CURVE SMOOTH",
"323.823 21.022 LINE SMOOTH",
"323.823 -41.236 OFFCURVE",
"357.829 -82.489 OFFCURVE",
"423.634 -82.489 CURVE SMOOTH",
"438.463 -82.489 OFFCURVE",
"454.821 -79.293 OFFCURVE"
);
},
{
closed = 1;
nodes = (
"258.953 394.402 LINE",
"258.953 413.083 LINE",
"18.198 413.083 LINE",
"18.198 394.402 LINE"
);
}
);
width = 462.72536;
}
);
},
{
glyphname = eth.sc;
lastChange = "2017-08-14 19:06:31 +0000";
layers = (
{
layerId = "7C7516DB-6554-481F-A885-45E791722A73";
paths = (
{
closed = 1;
nodes = (
"275.566 0 LINE",
"405.772 0 OFFCURVE",
"510.924 99.587 OFFCURVE",
"510.924 223.233 CURVE SMOOTH",
"510.924 347.629 OFFCURVE",
"405.825 447.192 OFFCURVE",
"275.727 447.192 CURVE SMOOTH",
"94.519 447.192 LINE",
"94.519 0 LINE"
);
},
{
closed = 1;
nodes = (
"294.761 215.978 LINE",
"294.761 232.014 LINE",
"47.739 232.014 LINE",
"47.739 215.978 LINE"
);
},
{
closed = 1;
nodes = (
"114.152 428.536 LINE",
"275.638 428.536 LINE SMOOTH",
"393.946 428.536 OFFCURVE",
"491.202 336.659 OFFCURVE",
"491.202 223.185 CURVE SMOOTH",
"491.202 110.486 OFFCURVE",
"394.017 19.432 OFFCURVE",
"275.816 19.432 CURVE SMOOTH",
"114.152 19.432 LINE"
);
}
);
width = 563.46366;
}
);
},
{
glyphname = dcroat.sc;
lastChange = "2017-08-14 19:06:31 +0000";
layers = (
{
anchors = (
{
name = bottom;
position = "{292.538, 0}";
},
{
name = center;
position = "{152.972, 224.008}";
},
{
name = top;
position = "{270.242, 447.192}";
}
);
layerId = "7C7516DB-6554-481F-A885-45E791722A73";
paths = (
{
closed = 1;
nodes = (
"281.318 0 LINE",
"411.524 0 OFFCURVE",
"516.676 99.587 OFFCURVE",
"516.676 223.233 CURVE SMOOTH",
"516.676 347.629 OFFCURVE",
"411.577 447.192 OFFCURVE",
"281.479 447.192 CURVE SMOOTH",
"100.271 447.192 LINE",
"100.271 0 LINE"
);
},
{
closed = 1;
nodes = (
"300.513 215.978 LINE",
"300.513 232.014 LINE",
"53.491 232.014 LINE",
"53.491 215.978 LINE"
);
},
{
closed = 1;
nodes = (
"119.904 428.536 LINE",
"281.39 428.536 LINE SMOOTH",
"399.698 428.536 OFFCURVE",
"496.954 336.659 OFFCURVE",
"496.954 223.185 CURVE SMOOTH",
"496.954 110.486 OFFCURVE",
"399.769 19.432 OFFCURVE",
"281.568 19.432 CURVE SMOOTH",
"119.904 19.432 LINE"
);
}
);
width = 568.42444;
}
);
},
{
glyphname = hbar.sc;
lastChange = "2017-08-14 19:06:31 +0000";
layers = (
{
anchors = (
{
name = bottom;
position = "{280.519, 0}";
},
{
name = center;
position = "{280.501, 344.481}";
},
{
name = top;
position = "{280.679, 447.192}";
}
);
layerId = "7C7516DB-6554-481F-A885-45E791722A73";
paths = (
{
closed = 1;
nodes = (
"120.081 0 LINE",
"120.081 215.674 LINE",
"440.939 215.674 LINE",
"440.939 0 LINE",
"460.572 0 LINE",
"460.572 447.192 LINE",
"440.939 447.192 LINE",
"440.939 235.01 LINE",
"120.081 235.01 LINE",
"120.081 447.192 LINE",
"100.449 447.192 LINE",
"100.449 0 LINE"
);
},
{
closed = 1;
nodes = (
"506.232 336.451 LINE",
"506.232 353.262 LINE",
"55.544 353.262 LINE",
"55.544 336.451 LINE"
);
}
);
width = 561.00268;
}
);
},
{
glyphname = kgreenlandic.sc;
lastChange = "2017-08-14 19:06:31 +0000";
layers = (
{
anchors = (
{
name = bottom;
position = "{234.042, 0}";
},
{
name = top;
position = "{234.042, 447.192}";
}
);
layerId = "7C7516DB-6554-481F-A885-45E791722A73";
paths = (
{
closed = 1;
nodes = (
"422.719 447.192 LINE",
"396.996 447.192 LINE",
"110.018 145.514 LINE",
"110 116.974 LINE"
);
},
{
closed = 1;
nodes = (
"114.152 0 LINE",
"114.152 447.192 LINE",
"94.519 447.192 LINE",
"94.519 0 LINE"
);
},
{
closed = 1;
nodes = (
"437.174 0 LINE",
"228.123 253.874 LINE",
"216.084 235.897 LINE",
"411.273 0 LINE"
);
}
);
width = 451.13077;
}
);
},
{
glyphname = lslash.sc;
lastChange = "2017-08-14 19:06:31 +0000";
layers = (
{
anchors = (
{
name = bottom;
position = "{220.813, 0}";
},
{
name = center;
position = "{279.124, 249.815}";
},
{
name = top;
position = "{124.364, 447.192}";
},
{
name = topright;
position = "{314.159, 447.192}";
}
);
layerId = "7C7516DB-6554-481F-A885-45E791722A73";
paths = (
{
closed = 1;
nodes = (
"332.493 0 LINE",
"332.493 19.743 LINE",
"127.994 19.743 LINE",
"127.994 447.192 LINE",
"108.361 447.192 LINE",
"108.361 0 LINE"
);
},
{
closed = 1;
nodes = (
"212.565 279.019 LINE",
"212.565 297.835 LINE",
"36.627 202.698 LINE",
"36.627 184.681 LINE"
);
}
);
width = 338.85775;
}
);
},
{
glyphname = oslash.sc;
lastChange = "2017-08-14 19:06:31 +0000";
layers = (
{
anchors = (
{
name = bottom;
position = "{287.808, 0}";
},
{
name = center;
position = "{287.808, 224.783}";
},
{
name = ogonek;
position = "{422.939, 0}";
},
{
name = top;
position = "{289.391, 447.192}";
},
{
name = topleft;
position = "{32.902, 449.685}";
},
{
name = topright;
position = "{414.946, 447.192}";
}
);
layerId = "7C7516DB-6554-481F-A885-45E791722A73";
paths = (
{
closed = 1;
nodes = (
"515.244 216.681 CURVE SMOOTH",
"515.244 336.81 OFFCURVE",
"419.936 451.371 OFFCURVE",
"293.343 451.371 CURVE SMOOTH",
"166.751 451.371 OFFCURVE",
"61.128 352.942 OFFCURVE",
"61.128 232.813 CURVE SMOOTH",
"61.128 111.908 OFFCURVE",
"155.592 -3.428 OFFCURVE",
"282.184 -3.428 CURVE SMOOTH",
"408.776 -3.428 OFFCURVE",
"515.244 95.776 OFFCURVE"
);
},
{
closed = 1;
nodes = (
"113.99 -27.102 CURVE",
"113.99 -22.835 OFFCURVE",
"488.973 482.404 OFFCURVE",
"485.609 482.404 CURVE",
"482.227 482.404 OFFCURVE",
"463.191 479.384 OFFCURVE",
"463.191 475.117 CURVE",
"463.191 470.827 OFFCURVE",
"88.209 -34.461 OFFCURVE",
"91.59 -34.461 CURVE",
"94.954 -34.461 OFFCURVE",
"113.99 -31.369 OFFCURVE"
);
},
{
closed = 1;
nodes = (
"71.488 224.759 CURVE SMOOTH",
"71.488 338.161 OFFCURVE",
"169.714 430.861 OFFCURVE",
"287.862 430.861 CURVE SMOOTH",
"406.765 430.861 OFFCURVE",
"504.111 338.161 OFFCURVE",
"504.111 224.759 CURVE SMOOTH",
"504.111 110.606 OFFCURVE",
"406.765 17.083 OFFCURVE",
"287.862 17.083 CURVE SMOOTH",
"169.731 17.083 OFFCURVE",
"71.488 110.606 OFFCURVE"
);
}
);
width = 576.38986;
}
);
},
{
glyphname = ordfeminine;
lastChange = "2017-08-14 19:06:31 +0000";
layers = (
{
layerId = "7C7516DB-6554-481F-A885-45E791722A73";
paths = (
{
closed = 1;
nodes = (
"246.373 365.942 LINE",
"245.582 526.054 LINE SMOOTH",
"245.599 576 OFFCURVE",
"212.057 608.055 OFFCURVE",
"152.466 608.055 CURVE SMOOTH",
"115.954 608.055 OFFCURVE",
"83.976 594.616 OFFCURVE",
"53.616 574.01 CURVE",
"61.342 559.284 LINE",
"89.746 578.947 OFFCURVE",
"117.358 590.741 OFFCURVE",
"149.451 590.741 CURVE SMOOTH",
"200.693 590.741 OFFCURVE",
"226.315 566.427 OFFCURVE",
"227.106 524.847 CURVE SMOOTH",
"227.897 365.942 LINE"
);
},
{
closed = 1;
nodes = (
"236.903 435.655 CURVE",
"227.897 442.886 LINE",
"208.712 398.397 OFFCURVE",
"173.615 381.179 OFFCURVE",
"127.44 381.179 CURVE SMOOTH",
"85.977 381.179 OFFCURVE",
"58.916 403.871 OFFCURVE",
"58.916 436.781 CURVE SMOOTH",
"58.916 468.142 OFFCURVE",
"87.56 485.385 OFFCURVE",
"137.69 485.385 CURVE SMOOTH",
"232.876 485.385 LINE",
"232.876 499.391 LINE",
"135.538 499.391 LINE SMOOTH",
"76.988 499.367 OFFCURVE",
"40.547 476.052 OFFCURVE",
"40.547 435.719 CURVE SMOOTH",
"40.547 394.682 OFFCURVE",
"73.752 365.774 OFFCURVE",
"123.332 365.774 CURVE SMOOTH",
"175.81 365.774 OFFCURVE",
"216.047 387.347 OFFCURVE"
);
}
);
width = 301.44635;
}
);
unicode = 00AA;
},
{
glyphname = ordmasculine;
lastChange = "2017-08-14 19:06:31 +0000";
layers = (
{
layerId = "7C7516DB-6554-481F-A885-45E791722A73";
paths = (
{
closed = 1;
nodes = (
"284.956 486.927 CURVE SMOOTH",
"284.956 557.622 OFFCURVE",
"232.157 608.031 OFFCURVE",
"160.378 608.031 CURVE SMOOTH",
"87.825 608.031 OFFCURVE",
"35.818 557.622 OFFCURVE",
"35.818 486.927 CURVE SMOOTH",
"35.818 415.48 OFFCURVE",
"87.825 365.822 OFFCURVE",
"160.378 365.822 CURVE SMOOTH",
"232.157 365.822 OFFCURVE",
"284.956 415.48 OFFCURVE"
);
},
{
closed = 1;
nodes = (
"54.365 486.879 CURVE SMOOTH",
"54.365 548.17 OFFCURVE",
"98.975 590.549 OFFCURVE",
"160.378 590.549 CURVE SMOOTH",
"221.781 590.549 OFFCURVE",
"265.6 548.17 OFFCURVE",
"265.6 486.879 CURVE SMOOTH",
"265.6 424.836 OFFCURVE",
"221.781 382.457 OFFCURVE",
"160.378 382.457 CURVE SMOOTH",
"98.975 382.457 OFFCURVE",
"54.365 424.836 OFFCURVE"
);
}
);
width = 320.77336;
}
);
unicode = 00BA;
},
{
glyphname = Delta;
lastChange = "2017-08-14 19:06:31 +0000";
layers = (
{
layerId = "7C7516DB-6554-481F-A885-45E791722A73";
paths = (
{
closed = 1;
nodes = (
"30.959 0 LINE",
"276.883 535.186 LINE",
"526.657 0 LINE",
"549.251 0 LINE",
"287.829 558.549 LINE",
"266.187 558.549 LINE",
"7.734 0 LINE"
);
},
{
closed = 1;
nodes = (
"532.73 0 LINE",
"532.73 19.48 LINE",
"23.162 19.48 LINE",
"23.162 0 LINE"
);
}
);
width = 556.98518;
}
);
unicode = 0394;
},
{
glyphname = Omega;
lastChange = "2017-08-14 19:06:31 +0000";
layers = (
{
anchors = (
{
name = topleft;
position = "{9.041, 558.549}";
}
);
layerId = "7C7516DB-6554-481F-A885-45E791722A73";
paths = (
{
closed = 1;
nodes = (
"251.138 0 LINE",
"251.138 20.438 LINE",
"160.468 66.205 OFFCURVE",
"95.598 176.291 OFFCURVE",
"95.598 282.598 CURVE SMOOTH",
"95.598 430.389 OFFCURVE",
"209.879 538.806 OFFCURVE",
"366.592 538.806 CURVE SMOOTH",
"523.305 538.806 OFFCURVE",
"637.604 430.389 OFFCURVE",
"637.604 282.598 CURVE SMOOTH",
"637.604 176.315 OFFCURVE",
"572.751 67.028 OFFCURVE",
"482.855 21.213 CURVE",
"482.855 0 LINE",
"729.966 0 LINE",
"729.966 19.815 LINE",
"516.587 19.815 LINE",
"599.398 74.754 OFFCURVE",
"657.076 181.253 OFFCURVE",
"657.076 283.246 CURVE SMOOTH",
"657.076 440.848 OFFCURVE",
"533.193 558.789 OFFCURVE",
"366.592 558.789 CURVE SMOOTH",
"200.009 558.789 OFFCURVE",
"76.125 440.848 OFFCURVE",
"76.125 283.269 CURVE SMOOTH",
"76.125 181.253 OFFCURVE",
"133.804 74.754 OFFCURVE",
"216.632 19.815 CURVE",
"3.236 19.815 LINE",
"3.236 0 LINE"
);
}
);
width = 733.20157;
}
);
unicode = 03A9;
},
{
glyphname = mu;
lastChange = "2017-08-14 19:06:31 +0000";
layers = (
{
components = (
{
name = u;
transform = "{1, 0, 0, 1, 17.584, 0}";
}
);
layerId = "7C7516DB-6554-481F-A885-45E791722A73";
paths = (
{
closed = 1;
nodes = (
"111.707 -155.006 LINE",
"111.707 413.802 LINE",
"91.878 413.802 LINE",
"91.878 -155.006 LINE"
);
}
);
width = 555.36557;
}
);
unicode = 03BC;
},
{
glyphname = pi;
lastChange = "2017-08-14 19:06:31 +0000";
layers = (
{
layerId = "7C7516DB-6554-481F-A885-45E791722A73";
paths = (
{
closed = 1;
nodes = (
"44.959 223.912 LINE",
"28.957 245.341 OFFCURVE",
"19.321 270.765 OFFCURVE",
"18.529 295.926 CURVE",
"17.72 351.528 OFFCURVE",
"66.304 394.562 OFFCURVE",
"131.628 394.562 CURVE",
"575.359 394.562 LINE",
"576.133 413.802 LINE",
"131.094 413.802 LINE",
"56.363 413.802 OFFCURVE",
"-1.201 361.819 OFFCURVE",
"-0.392 296.836 CURVE",
"0.4 267.833 OFFCURVE",
"11.761 236.943 OFFCURVE",
"29.559 214.14 CURVE"
);
},
{
closed = 1;
nodes = (
"171.626 0 LINE",
"219.846 410.446 LINE",
"200.729 410.446 LINE",
"152.509 0 LINE"
);
},
{
closed = 1;
nodes = (
"429.474 0 LINE",
"429.474 410.446 LINE",
"410.357 410.446 LINE",
"410.357 0 LINE"
);
}
);
width = 581.12898;
}
);
unicode = 03C0;
},
{
glyphname = zero;
lastChange = "2017-08-14 19:06:31 +0000";
layers = (
{
layerId = "7C7516DB-6554-481F-A885-45E791722A73";
paths = (
{
closed = 1;
nodes = (
"508.08 279.65 CURVE SMOOTH",
"508.08 449.517 OFFCURVE",
"415.533 562.009 OFFCURVE",
"281.639 562.009 CURVE SMOOTH",
"147.744 562.009 OFFCURVE",
"55.198 449.517 OFFCURVE",
"55.198 279.65 CURVE SMOOTH",
"55.198 109.783 OFFCURVE",
"147.744 -2.709 OFFCURVE",
"281.639 -2.709 CURVE SMOOTH",
"415.533 -2.709 OFFCURVE",
"508.08 109.783 OFFCURVE"
);
},
{
closed = 1;
nodes = (
"75.169 279.65 CURVE SMOOTH",
"75.169 437.892 OFFCURVE",
"159.731 542.753 OFFCURVE",
"281.639 542.753 CURVE SMOOTH",
"403.547 542.753 OFFCURVE",
"488.109 437.892 OFFCURVE",
"488.109 279.65 CURVE SMOOTH",
"488.109 121.408 OFFCURVE",
"403.547 16.547 OFFCURVE",
"281.639 16.547 CURVE SMOOTH",
"159.731 16.547 OFFCURVE",
"75.169 121.408 OFFCURVE"
);
}
);
width = 563.27759;
}
);
unicode = 0030;
},
{
glyphname = one;
lastChange = "2017-08-14 19:06:31 +0000";
layers = (
{
layerId = "7C7516DB-6554-481F-A885-45E791722A73";
paths = (
{
closed = 1;
nodes = (
"173.28 0 LINE",
"173.28 559.3 LINE",
"9.494 559.3 LINE",
"9.494 540.308 LINE",
"162.965 540.308 LINE",
"154.047 548.809 LINE",
"154.047 0 LINE"
);
}
);
width = 279.52407;
}
);
unicode = 0031;
},
{
glyphname = two;
lastChange = "2017-08-14 19:06:31 +0000";
layers = (
{
layerId = "7C7516DB-6554-481F-A885-45E791722A73";
paths = (
{
closed = 1;
nodes = (
"411.116 0 LINE",
"411.116 19.112 LINE",
"41.351 19.112 LINE",
"51.415 11.721 LINE",
"287.339 246.052 LINE SMOOTH",
"362.736 320.383 OFFCURVE",
"382.979 365.223 OFFCURVE",
"382.979 420.33 CURVE SMOOTH",
"382.979 494.845 OFFCURVE",
"325.53 562.009 OFFCURVE",
"197.53 562.009 CURVE SMOOTH",
"119.696 562.009 OFFCURVE",
"60.052 538.894 OFFCURVE",
"15.735 492.248 CURVE",
"29.046 478.489 LINE",
"71.372 522.099 OFFCURVE",
"125.796 542.825 OFFCURVE",
"197.174 542.825 CURVE SMOOTH",
"308.815 542.825 OFFCURVE",
"363.008 487.198 OFFCURVE",
"363.008 419.147 CURVE SMOOTH",
"363.008 370.472 OFFCURVE",
"345.424 331.05 OFFCURVE",
"273.326 258.644 CURVE SMOOTH",
"29.124 15.101 LINE",
"29.124 0 LINE"
);
}
);
width = 455.07707;
}
);
unicode = 0032;
},
{
glyphname = three;
lastChange = "2017-08-14 19:06:31 +0000";
layers = (
{
layerId = "7C7516DB-6554-481F-A885-45E791722A73";
paths = (
{
closed = 1;
nodes = (
"408.236 146.353 CURVE SMOOTH",
"408.236 232.956 OFFCURVE",
"344.867 294.719 OFFCURVE",
"210.431 294.719 CURVE SMOOTH",
"187.191 294.719 LINE",
"189.602 287.76 LINE",
"387.78 544.199 LINE",
"387.78 559.3 LINE",
"4.294 559.3 LINE",
"4.294 540.308 LINE",
"368.876 540.308 LINE",
"367.676 547.627 LINE",
"169.641 291.188 LINE",
"169.641 276.086 LINE",
"210.047 276.086 LINE SMOOTH",
"335.654 276.086 OFFCURVE",
"388.265 223.728 OFFCURVE",
"388.265 146.353 CURVE SMOOTH",
"388.265 68.834 OFFCURVE",
"335.476 16.475 OFFCURVE",
"212.51 16.475 CURVE SMOOTH",
"121.84 16.475 OFFCURVE",
"53.129 48.779 OFFCURVE",
"21.097 90.015 CURVE",
"8.668 75.769 LINE",
"43.144 29.739 OFFCURVE",
"119.582 -2.709 OFFCURVE",
"212.581 -2.709 CURVE SMOOTH",
"344.831 -2.709 OFFCURVE",
"408.236 59.845 OFFCURVE"
);
}
);
width = 455.07707;
}
);
unicode = 0033;
},
{
glyphname = four;
lastChange = "2017-08-14 19:06:31 +0000";
layers = (
{
layerId = "7C7516DB-6554-481F-A885-45E791722A73";
paths = (
{
closed = 1;
nodes = (
"484.735 164.083 LINE",
"484.735 183.195 LINE",
"31.313 183.195 LINE",
"42.694 179.304 LINE",
"348.334 559.3 LINE",
"325.83 559.3 LINE",
"20.065 179.304 LINE",
"20.065 164.083 LINE"
);
},
{
closed = 1;
nodes = (
"355.696 0 LINE",
"355.696 327.59 LINE",
"336.01 327.59 LINE",
"336.01 183.195 LINE",
"335.885 164.083 LINE",
"335.885 0 LINE"
);
}
);
width = 520.71286;
}
);
unicode = 0034;
},
{
glyphname = five;
lastChange = "2017-08-14 19:06:31 +0000";
layers = (
{
layerId = "7C7516DB-6554-481F-A885-45E791722A73";
paths = (
{
closed = 1;
nodes = (
"408.022 151.946 CURVE SMOOTH",
"408.022 242.832 OFFCURVE",
"349.205 294.136 OFFCURVE",
"176.178 295.878 CURVE SMOOTH",
"59.44 296.892 LINE",
"66.377 286.673 LINE",
"95.305 548.929 LINE",
"87.506 540.308 LINE",
"376.258 540.308 LINE",
"376.258 559.3 LINE",
"77.415 559.3 LINE",
"46.655 277.828 LINE",
"173.945 276.861 LINE SMOOTH",
"336.125 276.015 OFFCURVE",
"388.051 232.301 OFFCURVE",
"388.051 151.706 CURVE SMOOTH",
"388.051 74.187 OFFCURVE",
"335.369 16.403 OFFCURVE",
"212.296 16.403 CURVE SMOOTH",
"121.733 16.403 OFFCURVE",
"54.675 48.659 OFFCURVE",
"19.479 84.35 CURVE",
"7.05 70.104 LINE",
"44.691 29.643 OFFCURVE",
"119.546 -2.709 OFFCURVE",
"212.456 -2.709 CURVE SMOOTH",
"344.875 -2.709 OFFCURVE",
"408.022 63.848 OFFCURVE"
);
}
);
width = 455.07707;
}
);
unicode = 0035;
},
{
glyphname = six;
lastChange = "2017-08-14 19:06:31 +0000";
layers = (
{
layerId = "7C7516DB-6554-481F-A885-45E791722A73";
paths = (
{
closed = 1;
nodes = (
"469.781 171.465 CURVE SMOOTH",
"469.781 275.575 OFFCURVE",
"394.242 344.361 OFFCURVE",
"275.586 344.361 CURVE SMOOTH",
"170.932 344.361 OFFCURVE",
"87.561 281.424 OFFCURVE",
"82.911 170.491 CURVE",
"90.202 170.139 LINE",
"77.543 210.145 OFFCURVE",
"75.169 254.777 OFFCURVE",
"75.169 281.608 CURVE SMOOTH",
"75.169 451.771 OFFCURVE",
"166.487 543.016 OFFCURVE",
"297.197 543.016 CURVE SMOOTH",
"355.036 543.016 OFFCURVE",
"404.838 527.276 OFFCURVE",
"441.172 487.758 CURVE",
"453.69 501.788 LINE",
"415.578 543.704 OFFCURVE",
"358.77 562.009 OFFCURVE",
"297.091 562.009 CURVE SMOOTH",
"156.101 562.009 OFFCURVE",
"55.198 464.027 OFFCURVE",
"55.198 279.123 CURVE SMOOTH",
"55.198 108.912 OFFCURVE",
"131.796 -2.709 OFFCURVE",
"281.008 -2.709 CURVE SMOOTH",
"392.41 -2.709 OFFCURVE",
"469.781 67.044 OFFCURVE"
);
},
{
closed = 1;
nodes = (
"99.892 171.202 CURVE SMOOTH",
"99.892 256.807 OFFCURVE",
"171.705 325.728 OFFCURVE",
"274.536 325.728 CURVE SMOOTH",
"384.487 325.728 OFFCURVE",
"449.971 263.007 OFFCURVE",
"449.971 171.202 CURVE SMOOTH",
"449.971 79.397 OFFCURVE",
"382.113 15.924 OFFCURVE",
"280.865 15.924 CURVE SMOOTH",
"163.002 15.924 OFFCURVE",
"99.892 95.672 OFFCURVE"
);
}
);
width = 518.66771;
}
);
unicode = 0036;
},
{
glyphname = seven;
lastChange = "2017-08-14 19:06:31 +0000";
layers = (
{
layerId = "7C7516DB-6554-481F-A885-45E791722A73";
paths = (
{
closed = 1;
nodes = (
"175.343 0 LINE",
"454.446 544.199 LINE",
"454.446 559.3 LINE",
"44.05 559.3 LINE",
"44.05 428.464 LINE",
"63.345 428.464 LINE",
"63.345 548.953 LINE",
"54.586 540.188 LINE",
"444.406 540.188 LINE",
"433.791 547.986 LINE",
"152.607 0 LINE"
);
}
);
width = 495.26010;
}
);
unicode = 0037;
},
{
glyphname = eight;
lastChange = "2017-08-14 19:06:31 +0000";
layers = (
{
layerId = "7C7516DB-6554-481F-A885-45E791722A73";
paths = (
{
closed = 1;
nodes = (
"516.783 149.916 CURVE SMOOTH",
"516.783 241.53 OFFCURVE",
"431.286 298.427 OFFCURVE",
"280.848 298.427 CURVE SMOOTH",
"130.409 298.427 OFFCURVE",
"46.495 241.53 OFFCURVE",
"46.495 149.916 CURVE SMOOTH",
"46.495 56.753 OFFCURVE",
"130.32 -2.709 OFFCURVE",
"280.848 -2.709 CURVE SMOOTH",
"431.375 -2.709 OFFCURVE",
"516.783 56.753 OFFCURVE"
);
},
{
closed = 1;
nodes = (
"66.466 149.333 CURVE SMOOTH",
"66.466 230.24 OFFCURVE",
"142.271 282.838 OFFCURVE",
"280.848 282.838 CURVE SMOOTH",
"419.424 282.838 OFFCURVE",
"496.812 230.24 OFFCURVE",
"496.812 149.333 CURVE SMOOTH",
"496.812 68.426 OFFCURVE",
"419.424 15.828 OFFCURVE",
"280.848 15.828 CURVE SMOOTH",
"142.271 15.828 OFFCURVE",
"66.466 68.426 OFFCURVE"
);
},
{
closed = 1;
nodes = (
"496.558 422.144 CURVE SMOOTH",
"496.558 507.341 OFFCURVE",
"414.493 562.009 OFFCURVE",
"280.848 562.009 CURVE SMOOTH",
"147.202 562.009 OFFCURVE",
"66.72 507.341 OFFCURVE",
"66.72 422.144 CURVE SMOOTH",
"66.72 338.496 OFFCURVE",
"140.171 285.619 OFFCURVE",
"280.848 285.619 CURVE SMOOTH",
"421.525 285.619 OFFCURVE",
"496.558 338.496 OFFCURVE"
);
},
{
closed = 1;
nodes = (
"86.655 422.679 CURVE SMOOTH",
"86.655 495.644 OFFCURVE",
"158.362 543.472 OFFCURVE",
"280.848 543.472 CURVE SMOOTH",
"403.333 543.472 OFFCURVE",
"476.622 495.644 OFFCURVE",
"476.622 421.904 CURVE SMOOTH",
"476.622 348.939 OFFCURVE",
"407.289 301.111 OFFCURVE",
"280.848 301.111 CURVE SMOOTH",
"154.406 301.111 OFFCURVE",
"86.655 348.939 OFFCURVE"
);
}
);
width = 563.27759;
}
);
unicode = 0038;
},
{
glyphname = zero.comp;
lastChange = "2017-08-14 19:06:31 +0000";
layers = (
{
layerId = "7C7516DB-6554-481F-A885-45E791722A73";
paths = (
{
closed = 1;
nodes = (
"263.459 146.409 CURVE SMOOTH",
"263.459 241.442 OFFCURVE",
"223.462 295.99 OFFCURVE",
"154.359 295.99 CURVE SMOOTH",
"85.238 295.99 OFFCURVE",
"46.014 241.442 OFFCURVE",
"46.014 146.409 CURVE SMOOTH",
"46.014 49.802 OFFCURVE",
"85.238 -3.22 OFFCURVE",
"154.359 -3.22 CURVE SMOOTH",
"223.462 -3.22 OFFCURVE",
"263.459 49.802 OFFCURVE"
);
},
{
closed = 1;
nodes = (
"64.259 146.409 CURVE SMOOTH",
"64.259 232.765 OFFCURVE",
"96.192 280.057 OFFCURVE",
"154.359 280.057 CURVE SMOOTH",
"213.299 280.057 OFFCURVE",
"245.25 232.765 OFFCURVE",
"245.25 146.409 CURVE SMOOTH",
"245.25 59.981 OFFCURVE",
"213.299 13.511 OFFCURVE",
"154.359 13.511 CURVE SMOOTH",
"96.192 13.511 OFFCURVE",
"64.259 59.981 OFFCURVE"
);
}
);
width = 309.49105;
}
);
},
{
glyphname = zero.osf;
lastChange = "2017-08-14 19:06:31 +0000";
layers = (
{
layerId = "7C7516DB-6554-481F-A885-45E791722A73";
paths = (
{
closed = 1;
nodes = (
"508.08 239.7 CURVE SMOOTH",
"508.08 382.234 OFFCURVE",
"413.951 482.109 OFFCURVE",
"281.639 482.109 CURVE SMOOTH",
"149.327 482.109 OFFCURVE",
"55.198 382.234 OFFCURVE",
"55.198 239.7 CURVE SMOOTH",
"55.198 97.166 OFFCURVE",
"149.327 -2.709 OFFCURVE",
"281.639 -2.709 CURVE SMOOTH",
"413.951 -2.709 OFFCURVE",
"508.08 97.166 OFFCURVE"
);
},
{
closed = 1;
nodes = (
"75.08 239.7 CURVE SMOOTH",
"75.08 372.038 OFFCURVE",
"160.451 462.997 OFFCURVE",
"281.639 462.997 CURVE SMOOTH",
"402.827 462.997 OFFCURVE",
"488.198 372.038 OFFCURVE",
"488.198 239.7 CURVE SMOOTH",
"488.198 107.362 OFFCURVE",
"402.827 16.403 OFFCURVE",
"281.639 16.403 CURVE SMOOTH",
"160.451 16.403 OFFCURVE",
"75.08 107.362 OFFCURVE"
);
}
);
width = 563.27759;
}
);
},
{
glyphname = one.osf;
lastChange = "2017-08-14 19:06:31 +0000";
layers = (
{
layerId = "7C7516DB-6554-481F-A885-45E791722A73";
paths = (
{
closed = 1;
nodes = (
"173.191 0 LINE",
"173.191 479.4 LINE",
"9.494 479.4 LINE",
"9.494 460.408 LINE",
"162.965 460.408 LINE",
"154.047 468.909 LINE",
"154.047 0 LINE"
);
}
);
width = 279.43508;
}
);
},
{
glyphname = two.osf;
lastChange = "2017-08-14 19:06:31 +0000";
layers = (
{
layerId = "7C7516DB-6554-481F-A885-45E791722A73";
paths = (
{
closed = 1;
nodes = (
"411.187 0 LINE",
"411.187 18.92 LINE",
"49.263 18.92 LINE",
"52.224 8.725 LINE",
"293.038 208.355 LINE SMOOTH",
"363.421 267.289 OFFCURVE",
"380.605 308.254 OFFCURVE",
"380.605 353.334 CURVE SMOOTH",
"380.605 426.858 OFFCURVE",
"322.365 482.109 OFFCURVE",
"198.357 482.109 CURVE SMOOTH",
"119.785 482.109 OFFCURVE",
"60.141 461.462 OFFCURVE",
"15.824 416.774 CURVE",
"29.135 403.016 LINE",
"71.443 444.108 OFFCURVE",
"125.076 463.188 OFFCURVE",
"197.948 463.188 CURVE SMOOTH",
"311.135 463.188 OFFCURVE",
"360.634 414.633 OFFCURVE",
"360.634 352.782 CURVE SMOOTH",
"360.634 311.179 OFFCURVE",
"346.179 276.622 OFFCURVE",
"278.197 220.077 CURVE SMOOTH",
"29.915 13.072 LINE",
"29.915 0 LINE"
);
}
);
width = 455.07707;
}
);
},
{
glyphname = zero.tf;
lastChange = "2017-08-14 19:06:31 +0000";
layers = (
{
layerId = "7C7516DB-6554-481F-A885-45E791722A73";
paths = (
{
closed = 1;
nodes = (
"496.38 279.674 CURVE SMOOTH",
"496.38 459.569 OFFCURVE",
"420.174 560.267 OFFCURVE",
"282.359 560.267 CURVE SMOOTH",
"146.109 560.267 OFFCURVE",
"69.92 459.569 OFFCURVE",
"69.92 279.674 CURVE SMOOTH",
"69.92 99.004 OFFCURVE",
"146.109 -1.718 OFFCURVE",
"282.359 -1.718 CURVE SMOOTH",
"420.174 -1.718 OFFCURVE",
"496.38 99.004 OFFCURVE"
);
},
{
closed = 1;
nodes = (
"89.945 279.674 CURVE SMOOTH",
"89.945 448.159 OFFCURVE",
"158.166 540.715 OFFCURVE",
"282.359 540.715 CURVE SMOOTH",
"407.343 540.715 OFFCURVE",
"476.355 448.159 OFFCURVE",
"476.355 279.674 CURVE SMOOTH",
"476.355 111.189 OFFCURVE",
"407.343 17.834 OFFCURVE",
"282.359 17.834 CURVE SMOOTH",
"158.166 17.834 OFFCURVE",
"89.945 111.189 OFFCURVE"
);
}
);
width = 566.30001;
}
);
},
{
glyphname = one.tf;
lastChange = "2017-08-14 19:06:31 +0000";
layers = (
{
layerId = "7C7516DB-6554-481F-A885-45E791722A73";
paths = (
{
closed = 1;
nodes = (
"336.243 0 LINE",
"336.243 558.549 LINE",
"142.863 558.549 LINE",
"142.863 538.662 LINE",
"326 538.662 LINE",
"317.081 548.058 LINE",
"317.081 0 LINE"
);
},
{
closed = 1;
nodes = (
"456.525 0 LINE",
"456.525 19.767 LINE",
"139.698 19.767 LINE",
"139.716 0 LINE"
);
}
);
width = 566.30001;
}
);
},
{
glyphname = two.tf;
lastChange = "2017-08-14 19:06:31 +0000";
layers = (
{
layerId = "7C7516DB-6554-481F-A885-45E791722A73";
paths = (
{
closed = 1;
nodes = (
"508.808 0 LINE",
"508.808 19.767 LINE",
"101.332 19.767 LINE",
"103.448 12.64 LINE",
"351.907 250.191 LINE SMOOTH",
"418.965 314.063 OFFCURVE",
"461.158 381.834 OFFCURVE",
"461.158 430.277 CURVE SMOOTH",
"461.158 511.264 OFFCURVE",
"391.948 561.138 OFFCURVE",
"280.199 561.138 CURVE SMOOTH",
"212.571 561.138 OFFCURVE",
"141.112 533.804 OFFCURVE",
"91.069 487.997 CURVE",
"103.677 473.144 LINE",
"151.568 515.539 OFFCURVE",
"217.692 541.179 OFFCURVE",
"279.558 541.179 CURVE SMOOTH",
"379.783 541.179 OFFCURVE",
"441.009 499.015 OFFCURVE",
"441.009 429.462 CURVE SMOOTH",
"441.009 386.261 OFFCURVE",
"401.021 323.419 OFFCURVE",
"338.018 263.798 CURVE SMOOTH",
"89.985 25.975 LINE",
"89.985 0 LINE"
);
}
);
width = 566.30001;
}
);
},
{
glyphname = three.tf;
lastChange = "2017-08-14 19:06:31 +0000";
layers = (
{
layerId = "7C7516DB-6554-481F-A885-45E791722A73";
paths = (
{
closed = 1;
nodes = (
"486.041 168.102 CURVE SMOOTH",
"486.041 260.522 OFFCURVE",
"401.736 314.902 OFFCURVE",
"273.418 315.405 CURVE SMOOTH",
"225.988 316.1 LINE",
"228.771 309.341 LINE",
"456.161 541.482 LINE",
"456.161 558.573 LINE",
"118.682 558.573 LINE",
"118.682 539.069 LINE",
"438.84 539.069 LINE",
"435.968 545.349 LINE",
"207.583 313.544 LINE",
"207.583 296.717 LINE",
"271.628 296.717 LINE SMOOTH",
"392.888 296.717 OFFCURVE",
"466.177 251.214 OFFCURVE",
"466.177 165.001 CURVE SMOOTH",
"466.177 78.741 OFFCURVE",
"394.47 17.81 OFFCURVE",
"274.002 17.81 CURVE SMOOTH",
"212.714 17.81 OFFCURVE",
"149.052 35.484 OFFCURVE",
"104.432 62.306 CURVE",
"93.478 46.166 LINE",
"141.423 17.698 OFFCURVE",
"208.313 -1.79 OFFCURVE",
"273.549 -1.79 CURVE SMOOTH",
"404.892 -1.79 OFFCURVE",
"486.041 67.164 OFFCURVE"
);
}
);
width = 566.30001;
}
);
},
{
glyphname = four.tf;
lastChange = "2017-08-14 19:06:31 +0000";
layers = (
{
layerId = "7C7516DB-6554-481F-A885-45E791722A73";
paths = (
{
closed = 1;
nodes = (
"472.03 164.442 LINE",
"472.03 183.922 LINE",
"71.407 183.922 LINE",
"75.675 175.492 LINE",
"315.733 558.549 LINE",
"293.656 558.549 LINE",
"60.39 187.437 LINE",
"60.39 164.442 LINE"
);
},
{
closed = 1;
nodes = (
"374.871 0 LINE",
"374.871 360.741 LINE",
"355.292 360.741 LINE",
"355.292 0 LINE"
);
}
);
width = 566.30001;
}
);
},
{
glyphname = five.tf;
lastChange = "2017-08-14 19:06:31 +0000";
layers = (
{
layerId = "7C7516DB-6554-481F-A885-45E791722A73";
paths = (
{
closed = 1;
nodes = (
"484.423 178.537 CURVE SMOOTH",
"484.423 272.283 OFFCURVE",
"407.301 333.95 OFFCURVE",
"287.177 333.95 CURVE SMOOTH",
"247.404 333.95 OFFCURVE",
"192.57 324.65 OFFCURVE",
"147.665 310.699 CURVE",
"154.477 302.853 LINE",
"154.477 548.178 LINE",
"145.559 538.782 LINE",
"462.473 538.782 LINE",
"462.473 558.549 LINE",
"134.88 558.549 LINE",
"134.88 286.497 LINE",
"182.273 303.548 OFFCURVE",
"242.291 314.399 OFFCURVE",
"286.358 314.399 CURVE SMOOTH",
"394.096 314.399 OFFCURVE",
"464.149 260.442 OFFCURVE",
"464.149 178.129 CURVE SMOOTH",
"464.149 80.315 OFFCURVE",
"394.078 17.786 OFFCURVE",
"284.794 17.786 CURVE SMOOTH",
"229.062 17.786 OFFCURVE",
"158.333 38 OFFCURVE",
"105.926 69.329 CURVE",
"96.536 53.118 LINE",
"150.935 20.023 OFFCURVE",
"224.154 -1.79 OFFCURVE",
"285.274 -1.79 CURVE SMOOTH",
"406.385 -1.79 OFFCURVE",
"484.423 68.762 OFFCURVE"
);
}
);
width = 566.30001;
}
);
},
{
glyphname = six.tf;
lastChange = "2017-08-14 19:06:31 +0000";
layers = (
{
layerId = "7C7516DB-6554-481F-A885-45E791722A73";
paths = (
{
closed = 1;
nodes = (
"482.805 178.489 CURVE SMOOTH",
"482.805 286.426 OFFCURVE",
"413.195 351.432 OFFCURVE",
"301.642 351.432 CURVE SMOOTH",
"196.011 351.432 OFFCURVE",
"123.984 295.055 OFFCURVE",
"106.044 203.585 CURVE",
"87.055 413.355 OFFCURVE",
"163.829 540.787 OFFCURVE",
"307.812 540.787 CURVE SMOOTH",
"353.871 540.787 OFFCURVE",
"406.909 528.003 OFFCURVE",
"448.71 507.133 CURVE",
"458.117 524.775 LINE",
"410.386 546.612 OFFCURVE",
"354.174 560.339 OFFCURVE",
"305.998 560.339 CURVE SMOOTH",
"167.934 560.339 OFFCURVE",
"83.317 442.934 OFFCURVE",
"83.317 265.508 CURVE SMOOTH",
"83.317 91.398 OFFCURVE",
"163.711 -1.79 OFFCURVE",
"297.676 -1.79 CURVE SMOOTH",
"409.692 -1.79 OFFCURVE",
"482.805 66.389 OFFCURVE"
);
},
{
closed = 1;
nodes = (
"119.85 173.838 CURVE",
"119.85 254.745 OFFCURVE",
"187.529 332.096 OFFCURVE",
"300.717 332.096 CURVE SMOOTH",
"398.835 332.096 OFFCURVE",
"463.332 274.145 OFFCURVE",
"463.332 180.063 CURVE SMOOTH",
"463.332 79.732 OFFCURVE",
"393.279 17.93 OFFCURVE",
"293.578 17.93 CURVE SMOOTH",
"170.896 17.93 OFFCURVE",
"119.85 110.781 OFFCURVE"
);
}
);
width = 566.30001;
}
);
},
{
glyphname = seven.tf;
lastChange = "2017-08-14 19:06:31 +0000";
layers = (
{
layerId = "7C7516DB-6554-481F-A885-45E791722A73";
paths = (
{
closed = 1;
nodes = (
"217.615 0 LINE",
"492.495 535.482 LINE",
"492.495 558.549 LINE",
"92.127 558.549 LINE",
"92.127 449.629 LINE",
"111.582 449.629 LINE",
"111.582 548.202 LINE",
"102.664 538.782 LINE",
"482.633 538.782 LINE",
"477.609 547.235 LINE",
"195.848 0 LINE"
);
}
);
width = 566.30001;
}
);
},
{
glyphname = eight.tf;
lastChange = "2017-08-14 19:06:31 +0000";
layers = (
{
layerId = "7C7516DB-6554-481F-A885-45E791722A73";
paths = (
{
closed = 1;
nodes = (
"481.418 155.877 CURVE SMOOTH",
"481.418 231.255 OFFCURVE",
"431.616 280.96 OFFCURVE",
"349.757 300.4 CURVE",
"416.192 320.543 OFFCURVE",
"454.65 362.163 OFFCURVE",
"454.65 426.986 CURVE SMOOTH",
"454.65 511.216 OFFCURVE",
"389.556 560.339 OFFCURVE",
"283.114 560.339 CURVE SMOOTH",
"176.726 560.339 OFFCURVE",
"110.841 511.288 OFFCURVE",
"110.841 427.153 CURVE SMOOTH",
"110.841 362.331 OFFCURVE",
"149.388 320.639 OFFCURVE",
"215.93 300.4 CURVE",
"133.964 280.96 OFFCURVE",
"84.073 231.207 OFFCURVE",
"84.073 155.781 CURVE SMOOTH",
"84.073 55.954 OFFCURVE",
"159.719 -1.79 OFFCURVE",
"283.132 -1.79 CURVE SMOOTH",
"405.772 -1.79 OFFCURVE",
"481.418 55.978 OFFCURVE"
);
},
{
closed = 1;
nodes = (
"103.759 157.906 CURVE SMOOTH",
"103.759 237.99 OFFCURVE",
"172.265 288.143 OFFCURVE",
"282.359 288.143 CURVE SMOOTH",
"394.017 288.143 OFFCURVE",
"461.75 237.215 OFFCURVE",
"461.75 157.131 CURVE SMOOTH",
"461.75 69.345 OFFCURVE",
"393.226 17.666 OFFCURVE",
"283.132 17.666 CURVE SMOOTH",
"171.474 17.666 OFFCURVE",
"103.759 70.12 OFFCURVE"
);
},
{
closed = 1;
nodes = (
"130.082 425.148 CURVE SMOOTH",
"130.082 497.362 OFFCURVE",
"188.232 541.243 OFFCURVE",
"283.132 541.243 CURVE SMOOTH",
"378.051 541.243 OFFCURVE",
"435.409 497.362 OFFCURVE",
"435.409 425.148 CURVE SMOOTH",
"435.409 352.207 OFFCURVE",
"378.051 307.599 OFFCURVE",
"283.132 307.599 CURVE SMOOTH",
"188.232 307.599 OFFCURVE",
"130.082 352.207 OFFCURVE"
);
}
);
width = 566.30001;
}
);
},
{
glyphname = nine.tf;
lastChange = "2017-08-14 19:06:31 +0000";
layers = (
{
layerId = "7C7516DB-6554-481F-A885-45E791722A73";
paths = (
{
closed = 1;
nodes = (
"475.071 294.615 CURVE SMOOTH",
"475.071 467.95 OFFCURVE",
"395.468 560.339 OFFCURVE",
"263.103 560.339 CURVE SMOOTH",
"151.861 560.339 OFFCURVE",
"79.557 492.959 OFFCURVE",
"79.557 381.634 CURVE SMOOTH",
"79.557 272.922 OFFCURVE",
"148.358 207.892 OFFCURVE",
"259.119 207.892 CURVE SMOOTH",
"363.168 207.892 OFFCURVE",
"434.404 264.293 OFFCURVE",
"452.344 356.538 CURVE",
"471.333 145.993 OFFCURVE",
"394.577 17.786 OFFCURVE",
"252.141 17.786 CURVE SMOOTH",
"206.89 17.786 OFFCURVE",
"154.644 30.546 OFFCURVE",
"113.634 51.44 CURVE",
"104.227 33.798 LINE",
"151.184 11.961 OFFCURVE",
"206.606 -1.79 OFFCURVE",
"253.955 -1.79 CURVE SMOOTH",
"391.263 -1.79 OFFCURVE",
"475.071 116.414 OFFCURVE"
);
},
{
closed = 1;
nodes = (
"99.03 380.06 CURVE SMOOTH",
"99.03 479.616 OFFCURVE",
"168.274 540.643 OFFCURVE",
"267.184 540.643 CURVE SMOOTH",
"387.492 540.643 OFFCURVE",
"438.538 448.567 OFFCURVE",
"438.538 386.285 CURVE",
"438.538 304.603 OFFCURVE",
"371.65 227.252 OFFCURVE",
"260.045 227.252 CURVE SMOOTH",
"162.717 227.252 OFFCURVE",
"99.03 285.203 OFFCURVE"
);
}
);
width = 566.30001;
}
);
},
{
glyphname = zero.tosf;
lastChange = "2017-08-14 19:06:31 +0000";
layers = (
{
layerId = "7C7516DB-6554-481F-A885-45E791722A73";
paths = (
{
closed = 1;
nodes = (
"496.38 240.499 CURVE SMOOTH",
"496.38 379.789 OFFCURVE",
"406.545 481.142 OFFCURVE",
"283.168 481.142 CURVE SMOOTH",
"159.79 481.142 OFFCURVE",
"70.729 379.789 OFFCURVE",
"70.729 240.499 CURVE SMOOTH",
"70.729 100.434 OFFCURVE",
"159.79 -0.144 OFFCURVE",
"283.168 -0.144 CURVE SMOOTH",
"406.545 -0.144 OFFCURVE",
"496.38 100.434 OFFCURVE"
);
},
{
closed = 1;
nodes = (
"90.291 240.499 CURVE SMOOTH",
"90.291 368.403 OFFCURVE",
"171.527 461.998 OFFCURVE",
"283.168 461.998 CURVE SMOOTH",
"395.599 461.998 OFFCURVE",
"476.818 368.403 OFFCURVE",
"476.818 240.499 CURVE SMOOTH",
"476.818 111.82 OFFCURVE",
"395.599 18.976 OFFCURVE",
"283.168 18.976 CURVE SMOOTH",
"171.527 18.976 OFFCURVE",
"90.291 111.82 OFFCURVE"
);
}
);
width = 566.30001;
}
);
},
{
glyphname = one.tosf;
lastChange = "2017-08-14 19:06:31 +0000";
layers = (
{
layerId = "7C7516DB-6554-481F-A885-45E791722A73";
paths = (
{
closed = 1;
nodes = (
"336.421 0 LINE",
"336.421 478.649 LINE",
"143.041 478.649 LINE",
"143.041 458.762 LINE",
"326.177 458.762 LINE",
"317.259 468.158 LINE",
"317.259 0 LINE"
);
},
{
closed = 1;
nodes = (
"456.703 0 LINE",
"456.703 19.767 LINE",
"139.876 19.767 LINE",
"139.894 0 LINE"
);
}
);
width = 566.30001;
}
);
},
{
glyphname = two.tosf;
lastChange = "2017-08-14 19:06:31 +0000";
layers = (
{
layerId = "7C7516DB-6554-481F-A885-45E791722A73";
paths = (
{
closed = 1;
nodes = (
"471.265 0 LINE",
"471.265 19.695 LINE",
"104.675 19.695 LINE",
"106.56 13.727 LINE",
"330.402 211.863 LINE SMOOTH",
"391.041 265.396 OFFCURVE",
"429.207 325.105 OFFCURVE",
"429.207 367.156 CURVE SMOOTH",
"429.207 437.732 OFFCURVE",
"366.433 481.19 OFFCURVE",
"265.095 481.19 CURVE SMOOTH",
"204.641 481.19 OFFCURVE",
"139.619 457.851 OFFCURVE",
"93.585 417.637 CURVE",
"106.175 402.784 LINE",
"148.492 439.562 OFFCURVE",
"208.971 462.006 OFFCURVE",
"265.227 462.006 CURVE SMOOTH",
"354.251 462.006 OFFCURVE",
"408.267 425.46 OFFCURVE",
"408.267 366.318 CURVE SMOOTH",
"408.267 328.757 OFFCURVE",
"373.098 274.728 OFFCURVE",
"316.513 224.647 CURVE SMOOTH",
"93.274 24.377 LINE",
"93.292 0 LINE"
);
}
);
width = 566.30001;
}
);
},
{
glyphname = three.tosf;
lastChange = "2017-08-14 19:06:31 +0000";
layers = (
{
layerId = "7C7516DB-6554-481F-A885-45E791722A73";
paths = (
{
closed = 1;
nodes = (
"415.65 88.202 CURVE SMOOTH",
"415.65 180.622 OFFCURVE",
"331.345 235.002 OFFCURVE",
"203.027 235.505 CURVE SMOOTH",
"155.597 236.2 LINE",
"158.38 229.441 LINE",
"385.77 461.582 LINE",
"385.77 478.673 LINE",
"48.291 478.673 LINE",
"48.291 459.169 LINE",
"368.449 459.169 LINE",
"365.577 465.449 LINE",
"137.192 233.644 LINE",
"137.192 216.817 LINE",
"201.237 216.817 LINE SMOOTH",
"322.497 216.817 OFFCURVE",
"395.785 171.314 OFFCURVE",
"395.785 85.101 CURVE SMOOTH",
"395.785 -1.159 OFFCURVE",
"324.079 -62.09 OFFCURVE",
"203.611 -62.09 CURVE SMOOTH",
"142.323 -62.09 OFFCURVE",
"78.661 -44.416 OFFCURVE",
"34.041 -17.594 CURVE",
"23.087 -33.734 LINE",
"71.032 -62.202 OFFCURVE",
"137.922 -81.69 OFFCURVE",
"203.158 -81.69 CURVE SMOOTH",
"334.5 -81.69 OFFCURVE",
"415.65 -12.736 OFFCURVE"
);
}
);
width = 566.30001;
}
);
},
{
glyphname = four.tosf;
lastChange = "2017-08-14 19:06:31 +0000";
layers = (
{
layerId = "7C7516DB-6554-481F-A885-45E791722A73";
paths = (
{
closed = 1;
nodes = (
"439.599 84.542 LINE",
"439.599 104.022 LINE",
"38.976 104.022 LINE",
"43.244 95.592 LINE",
"283.302 478.649 LINE",
"261.224 478.649 LINE",
"27.959 107.537 LINE",
"27.959 84.542 LINE"
);
},
{
closed = 1;
nodes = (
"342.44 -79.9 LINE",
"342.44 280.841 LINE",
"322.861 280.841 LINE",
"322.861 -79.9 LINE"
);
}
);
width = 566.30001;
}
);
},
{
glyphname = five.tosf;
lastChange = "2017-08-14 19:06:31 +0000";
layers = (
{
layerId = "7C7516DB-6554-481F-A885-45E791722A73";
paths = (
{
closed = 1;
nodes = (
"440.355 98.637 CURVE SMOOTH",
"440.355 192.383 OFFCURVE",
"363.233 254.05 OFFCURVE",
"243.109 254.05 CURVE SMOOTH",
"203.336 254.05 OFFCURVE",
"148.502 244.75 OFFCURVE",
"103.597 230.799 CURVE",
"110.409 222.953 LINE",
"110.409 468.278 LINE",
"101.491 458.882 LINE",
"418.405 458.882 LINE",
"418.405 478.649 LINE",
"90.812 478.649 LINE",
"90.812 206.597 LINE",
"138.205 223.648 OFFCURVE",
"198.223 234.499 OFFCURVE",
"242.291 234.499 CURVE SMOOTH",
"350.028 234.499 OFFCURVE",
"420.081 180.542 OFFCURVE",
"420.081 98.229 CURVE SMOOTH",
"420.081 0.415 OFFCURVE",
"350.011 -62.114 OFFCURVE",
"240.726 -62.114 CURVE SMOOTH",
"184.994 -62.114 OFFCURVE",
"114.265 -41.9 OFFCURVE",
"61.858 -10.571 CURVE",
"52.469 -26.782 LINE",
"106.867 -59.877 OFFCURVE",
"180.087 -81.69 OFFCURVE",
"241.207 -81.69 CURVE SMOOTH",
"362.317 -81.69 OFFCURVE",
"440.355 -11.138 OFFCURVE"
);
}
);
width = 566.30001;
}
);
},
{
glyphname = six.tosf;
lastChange = "2017-08-14 19:06:31 +0000";
layers = (
{
layerId = "7C7516DB-6554-481F-A885-45E791722A73";
paths = (
{
closed = 1;
nodes = (
"466.411 178.489 CURVE SMOOTH",
"466.411 286.426 OFFCURVE",
"396.802 351.432 OFFCURVE",
"285.249 351.432 CURVE SMOOTH",
"179.617 351.432 OFFCURVE",
"107.591 295.055 OFFCURVE",
"89.65 203.585 CURVE",
"70.661 413.355 OFFCURVE",
"147.435 540.787 OFFCURVE",
"291.418 540.787 CURVE SMOOTH",
"337.478 540.787 OFFCURVE",
"390.516 528.003 OFFCURVE",
"432.317 507.133 CURVE",
"441.724 524.775 LINE",
"393.993 546.612 OFFCURVE",
"337.78 560.339 OFFCURVE",
"289.604 560.339 CURVE SMOOTH",
"151.54 560.339 OFFCURVE",
"66.924 442.934 OFFCURVE",
"66.924 265.508 CURVE SMOOTH",
"66.924 91.398 OFFCURVE",
"147.317 -1.79 OFFCURVE",
"281.283 -1.79 CURVE SMOOTH",
"393.299 -1.79 OFFCURVE",
"466.411 66.389 OFFCURVE"
);
},
{
closed = 1;
nodes = (
"103.457 173.838 CURVE",
"103.457 254.745 OFFCURVE",
"171.136 332.096 OFFCURVE",
"284.323 332.096 CURVE SMOOTH",
"382.442 332.096 OFFCURVE",
"446.939 274.145 OFFCURVE",
"446.939 180.063 CURVE SMOOTH",
"446.939 79.732 OFFCURVE",
"376.886 17.93 OFFCURVE",
"277.184 17.93 CURVE SMOOTH",
"154.503 17.93 OFFCURVE",
"103.457 110.781 OFFCURVE"
);
}
);
width = 566.30001;
}
);
},
{
glyphname = seven.tosf;
lastChange = "2017-08-14 19:06:31 +0000";
layers = (
{
layerId = "7C7516DB-6554-481F-A885-45E791722A73";
paths = (
{
closed = 1;
nodes = (
"153.464 -79.9 LINE",
"428.344 455.582 LINE",
"428.344 478.649 LINE",
"27.977 478.649 LINE",
"27.977 369.729 LINE",
"47.432 369.729 LINE",
"47.432 468.302 LINE",
"38.513 458.882 LINE",
"418.483 458.882 LINE",
"413.459 467.335 LINE",
"131.697 -79.9 LINE"
);
}
);
width = 566.30001;
}
);
},
{
glyphname = eight.tosf;
lastChange = "2017-08-14 19:06:31 +0000";
layers = (
{
layerId = "7C7516DB-6554-481F-A885-45E791722A73";
paths = (
{
closed = 1;
nodes = (
"460.206 155.877 CURVE SMOOTH",
"460.206 231.255 OFFCURVE",
"410.404 280.96 OFFCURVE",
"328.545 300.4 CURVE",
"394.98 320.543 OFFCURVE",
"433.438 362.163 OFFCURVE",
"433.438 426.986 CURVE SMOOTH",
"433.438 511.216 OFFCURVE",
"368.344 560.339 OFFCURVE",
"261.902 560.339 CURVE SMOOTH",
"155.514 560.339 OFFCURVE",
"89.629 511.288 OFFCURVE",
"89.629 427.153 CURVE SMOOTH",
"89.629 362.331 OFFCURVE",
"128.176 320.639 OFFCURVE",
"194.718 300.4 CURVE",
"112.752 280.96 OFFCURVE",
"62.861 231.207 OFFCURVE",
"62.861 155.781 CURVE SMOOTH",
"62.861 55.954 OFFCURVE",
"138.507 -1.79 OFFCURVE",
"261.92 -1.79 CURVE SMOOTH",
"384.56 -1.79 OFFCURVE",
"460.206 55.978 OFFCURVE"
);
},
{
closed = 1;
nodes = (
"82.547 157.906 CURVE SMOOTH",
"82.547 237.99 OFFCURVE",
"151.053 288.143 OFFCURVE",
"261.147 288.143 CURVE SMOOTH",
"372.805 288.143 OFFCURVE",
"440.538 237.215 OFFCURVE",
"440.538 157.131 CURVE SMOOTH",
"440.538 69.345 OFFCURVE",
"372.014 17.666 OFFCURVE",
"261.92 17.666 CURVE SMOOTH",
"150.262 17.666 OFFCURVE",
"82.547 70.12 OFFCURVE"
);
},
{
closed = 1;
nodes = (
"108.87 425.148 CURVE SMOOTH",
"108.87 497.362 OFFCURVE",
"167.02 541.243 OFFCURVE",
"261.92 541.243 CURVE SMOOTH",
"356.839 541.243 OFFCURVE",
"414.197 497.362 OFFCURVE",
"414.197 425.148 CURVE SMOOTH",
"414.197 352.207 OFFCURVE",
"356.839 307.599 OFFCURVE",
"261.92 307.599 CURVE SMOOTH",
"167.02 307.599 OFFCURVE",
"108.87 352.207 OFFCURVE"
);
}
);
width = 566.30001;
}
);
},
{
glyphname = nine.tosf;
lastChange = "2017-08-14 19:06:31 +0000";
layers = (
{
layerId = "7C7516DB-6554-481F-A885-45E791722A73";
paths = (
{
closed = 1;
nodes = (
"450.587 214.715 CURVE SMOOTH",
"450.587 388.05 OFFCURVE",
"370.985 480.439 OFFCURVE",
"238.619 480.439 CURVE SMOOTH",
"127.377 480.439 OFFCURVE",
"55.073 413.059 OFFCURVE",
"55.073 301.734 CURVE SMOOTH",
"55.073 193.022 OFFCURVE",
"123.874 127.992 OFFCURVE",
"234.636 127.992 CURVE SMOOTH",
"338.685 127.992 OFFCURVE",
"409.92 184.393 OFFCURVE",
"427.861 276.638 CURVE",
"446.85 66.093 OFFCURVE",
"370.093 -62.114 OFFCURVE",
"227.657 -62.114 CURVE SMOOTH",
"182.407 -62.114 OFFCURVE",
"130.16 -49.354 OFFCURVE",
"89.15 -28.46 CURVE",
"79.743 -46.102 LINE",
"126.701 -67.939 OFFCURVE",
"182.122 -81.69 OFFCURVE",
"229.471 -81.69 CURVE SMOOTH",
"366.78 -81.69 OFFCURVE",
"450.587 36.514 OFFCURVE"
);
},
{
closed = 1;
nodes = (
"74.546 300.16 CURVE SMOOTH",
"74.546 399.716 OFFCURVE",
"143.79 460.743 OFFCURVE",
"242.7 460.743 CURVE SMOOTH",
"363.008 460.743 OFFCURVE",
"414.054 368.667 OFFCURVE",
"414.054 306.385 CURVE",
"414.054 224.703 OFFCURVE",
"347.166 147.352 OFFCURVE",
"235.561 147.352 CURVE SMOOTH",
"138.234 147.352 OFFCURVE",
"74.546 205.303 OFFCURVE"
);
}
);
width = 566.30001;
}
);
},
{
glyphname = zero.dnom;
lastChange = "2017-08-14 19:06:31 +0000";
layers = (
{
layerId = "7C7516DB-6554-481F-A885-45E791722A73";
paths = (
{
closed = 1;
nodes = (
"319.227 162.389 CURVE SMOOTH",
"319.227 268.584 OFFCURVE",
"269.539 328.725 OFFCURVE",
"181.883 328.725 CURVE SMOOTH",
"95.017 328.725 OFFCURVE",
"46.103 268.584 OFFCURVE",
"46.103 162.389 CURVE SMOOTH",
"46.103 55.395 OFFCURVE",
"95.017 -3.995 OFFCURVE",
"181.883 -3.995 CURVE SMOOTH",
"269.539 -3.995 OFFCURVE",
"319.227 55.395 OFFCURVE"
);
},
{
closed = 1;
nodes = (
"65.228 162.389 CURVE SMOOTH",
"65.228 259.108 OFFCURVE",
"106.816 311.946 OFFCURVE",
"181.883 311.946 CURVE SMOOTH",
"257.741 311.946 OFFCURVE",
"299.328 259.108 OFFCURVE",
"299.328 162.389 CURVE SMOOTH",
"299.328 65.646 OFFCURVE",
"257.741 12.808 OFFCURVE",
"181.883 12.808 CURVE SMOOTH",
"106.816 12.808 OFFCURVE",
"65.228 65.646 OFFCURVE"
);
}
);
width = 365.32984;
}
);
},
{
glyphname = one.dnom;
lastChange = "2017-08-14 19:06:31 +0000";
layers = (
{
layerId = "7C7516DB-6554-481F-A885-45E791722A73";
paths = (
{
closed = 1;
nodes = (
"99.056 0 LINE",
"99.056 324.754 LINE",
"7.894 324.754 LINE",
"7.894 307.176 LINE",
"79.664 307.176 LINE",
"79.664 0 LINE"
);
}
);
width = 167.93546;
}
);
},
{
glyphname = two.dnom;
lastChange = "2017-08-14 19:06:31 +0000";
layers = (
{
layerId = "7C7516DB-6554-481F-A885-45E791722A73";
paths = (
{
closed = 1;
nodes = (
"242.381 0 LINE",
"242.381 17.482 LINE",
"38.764 17.482 LINE",
"159.268 144.331 LINE SMOOTH",
"196.553 181.109 OFFCURVE",
"218.574 219.413 OFFCURVE",
"218.574 249.288 CURVE SMOOTH",
"218.574 298.219 OFFCURVE",
"180.933 328.773 OFFCURVE",
"121.538 328.773 CURVE SMOOTH",
"83.879 328.773 OFFCURVE",
"43.935 311.898 OFFCURVE",
"15.086 283.765 CURVE",
"25.613 269.551 LINE",
"51.697 295.143 OFFCURVE",
"88.084 311.147 OFFCURVE",
"121.093 311.147 CURVE SMOOTH",
"169.623 311.147 OFFCURVE",
"199.04 287 OFFCURVE",
"199.04 247.986 CURVE SMOOTH",
"199.04 220.548 OFFCURVE",
"179.011 189.866 OFFCURVE",
"146.304 155.382 CURVE SMOOTH",
"16.216 18.505 LINE",
"16.216 0 LINE"
);
}
);
width = 262.60626;
}
);
},
